/* XPM */
static char *zelda_water[] = {
/* columns rows colors chars-per-pixel */
"64 64 116 2 ",
"   c #006E6D",
".  c #00706F",
"X  c #047473",
"o  c #087776",
"O  c #057877",
"+  c #097877",
"@  c #057B7A",
"#  c #0D7C7A",
"$  c #107E7D",
"%  c #06827F",
"&  c #0C807F",
"*  c #12807F",
"=  c #038481",
"-  c #0C8482",
";  c #068986",
":  c #0A8987",
">  c #0C8D8A",
",  c #138382",
"<  c #1A8685",
"1  c #128987",
"2  c #1B8887",
"3  c #148D8A",
"4  c #1E8A89",
"5  c #0F908D",
"6  c #12918E",
"7  c #1C908F",
"8  c #169592",
"9  c #199693",
"0  c #1C9996",
"q  c #1F9B98",
"w  c #228D8C",
"e  c #25908F",
"r  c #259291",
"t  c #2B9493",
"y  c #219896",
"u  c #2F9897",
"i  c #2E9798",
"p  c #229D9A",
"a  c #2C9C9A",
"s  c #309796",
"d  c #309997",
"f  c #339C9B",
"g  c #389F9F",
"h  c #26A09E",
"j  c #29A19F",
"k  c #39A09F",
"l  c #27A2A0",
"z  c #2CA4A2",
"x  c #31A5A3",
"c  c #3CA3A2",
"v  c #32A9A7",
"b  c #3DA9A7",
"n  c #35ABA9",
"m  c #3AAEAC",
"M  c #3DB1AE",
"N  c #3FB2B0",
"B  c #40A7A6",
"V  c #42A8A7",
"C  c #45ABAA",
"Z  c #49ADAC",
"A  c #4BB0AF",
"S  c #43B5B3",
"D  c #4DB2B2",
"F  c #47B8B6",
"G  c #4AB9B7",
"H  c #4CBBB9",
"J  c #53B5B5",
"K  c #58B7B6",
"L  c #57B8B7",
"P  c #53BCBB",
"I  c #5CBDBC",
"U  c #60BFBD",
"Y  c #54C1BF",
"T  c #5FC0BE",
"R  c #56C2C0",
"E  c #5BC5C3",
"W  c #5EC8C6",
"Q  c #64C3C2",
"!  c #69C7C6",
"~  c #60C8C7",
"^  c #6BC8C7",
"/  c #64CCCA",
"(  c #6BCBCB",
")  c #71CECE",
"_  c #6AD0CF",
"`  c #73D0CF",
"'  c #6DD2D1",
"]  c #73D4D3",
"[  c #7AD6D5",
"{  c #75D8D7",
"}  c #78D8D7",
"|  c #76D9D8",
" . c #7CDCDB",
".. c #7FE0DE",
"X. c #83DDDC",
"o. c #82E0DF",
"O. c #84E3E2",
"+. c #8BE4E4",
"@. c #8BE8E7",
"#. c #8DEAE9",
"$. c #91E7E7",
"%. c #90E8E7",
"&. c #93EBEB",
"*. c #99EEED",
"=. c #96F0EF",
"-. c #98F0EF",
";. c #97F1F0",
":. c #9CF3F2",
">. c #A2F6F5",
",. c #A9F6F6",
"<. c #A2F8F7",
"1. c #A5FAF9",
"2. c #ABFDFC",
"3. c #B3FFFF",
"4. c #BAFFFF",
"5. c #C1FFFF",
/* pixels */
"$ $ # $ $ o B *.9 j z 6 8 8 9 8 8 1 $ $ $ $ # , #._ > 9 8 9 8 1 # * 6 9 6 O.4.' > 9 , $ X Z 2.Q B ,.x 6 9 9 9 8 8 1 $ $ $ $ $ $ ",
"$ $ $ $ $ # X.Z - v p 6 8 8 9 8 9 6 $ $ $ $ * X +.' > 9 8 8 8 1 $ , 8 ; ~ 4.2.1.p > 1 X J 1.B + . o.P ; 9 9 9 8 8 , $ # $ $ * # ",
"$ $ $ * X g $.+ & x p 8 9 8 8 8 9 8 1 $ $ $ $ , :.&.8 8 9 9 9 1 $ @ 5 _ 1.S j X.&.8 X g 2.f X $ # P 1.M ; 5 6 9 9 - * * $ $ $ $ ",
"$ $ $ , X ! Q X $ f 0 8 8 8 9 8 8 9 6 # $ , X C 3.3.' > > > > @ X k #.O.S 8 5 5  .;.! 3.K . * $ 7 z F 1.{ S q > 5 1 # * # $ $ $ ",
"$ $ $ $ o [ Z X * d 6 8 8 8 8 9 9 9 8 , # X r ,.;.O.1.;.{ R Y I X.=.R 5 h v 8 8 5 ] 5.&.* $ $ : p F > z { =.:.O.v & $ $ * $ $ $ ",
"$ $ $ $ o X.V X 2 s & 8 9 8 8 9 5 > 5 & $ D 3.{ 8 6 z _  .O. .) Z 6 ; 9 8 S z 8 5 , >.] X # , 9 H / q 5 > 8 v | 3.k + * $ $ $ $ ",
"$ $ $ $ o X.Z . f 2 # 6 8 8 8 5 m  .&.&.>.>.H > 8 8 q q ; 5 ; X X 1 9 8 8 z W n z , X.^ + r x n p p m 9 8 5 5 = [ &.+ $ # * $ $ ",
"# $ $ , o +.I w t # * 1 8 8 8 ' 1.{ R R b , : 9 9 8 z j 8 9 3 $ * 1 8 8 8 q n 9 z 4 ) #.r z p 6 8 6 q n v z l 7 c 3.f * < $ + # ",
"* $ $ + $ *.$.w $ $ $ , 9 > W >.h ; > > > 8 9 8 9 9 v 8 8 8 , $ $ 1 8 9 8 9 n 8 8 O I 3.n ; 9 9 9 8 8 6 q h a w k 3.J w u d t 4 ",
"d s t 2 ^ 4.3.k   $ # , 6 8 >.H > 9 9 9 9 8 8 8 8 v h 8 8 3 $ $ $ 1 8 8 9 9 z 8 9 ; ( 5.>.v > 0 9 9 9 9 8 3 # # & >.^   $ * 2 t ",
"+ + $ ! 4.K Q 2.J 2 # & 0 } 3.m > 9 8 8 8 8 8 8 z z 8 8 8 , $ $ # , 8 9 8 9 z 8 6 0 1.' ] 1.n > > 8 9 8 6 * $ $ # +.3.V X o + + ",
"t Z $.3.Z X X ) 4.>.*.*.2.4.3.*.p 8 9 9 9 9 8 z z 5 9 9 3 $ $ $ $ , 8 8 8 h l 5 9 &.+.> > R 1.O.H 8 8 6 * # $ $ , *.3.3.} c w 2 ",
"3.3.o.t X , + d 2.3.#. ./ E ' :.2.z 8 9 8 8 h v 8 8 8 8 , $ $ $ $ * 7 9 6 p 9 n ;.&.9 8 9 5 l W :.O.6 # $ $ < . Z 4.:.&.:.3.2.2.",
"A f X + * * + f 3.Z % > > > > 6 X.@.5 9 8 9 n 8 8 8 8 3 $ $ $ # $ * : > 9 Y O.2.1.p 6 9 8 9 8 > 6 @.+.< X o   g 1.K 2 * $ w c C ",
"r * $ $ # * o k 1.< 6 9 9 9 0 3 v 2.h > 6 z l 8 9 8 6 , $ $ $ $ # X f  .:.:.&.2.3.m 3 9 8 9 9 9 8 1 ] 1.) Z ^ 1.V X # $ $ # X X ",
"f < * * , , + c >.0 8 9 9 9 8 8 8 @.;.M 9 z > 6 8 3 , # $ $ * # # ( 1.] n n 9 q X.>.0 8 9 8 8 8 8 , X c 2.4.,.t o $ $ $ $ $ $ , ",
"v 0 6 6 7 9 : H :.9 8 8 8 9 8 9 8 q { 2.:...H z z r , # * * o , $.&.w O : z p 6 8 &. .5 9 8 8 8 8 3 * . I 4.k X * $ # # * , , 3 ",
"v p 6 9 9 0 : o.X.> 9 9 8 8 8 8 8 8 5 q _ ;.2.#.2 2 i w + X t :.[ + # $ , 0 n 8 6 z 2.H 5 9 9 8 9 8 3 + c >., $ $ $ , , 6 8 8 8 ",
"v p 6 6 9 5 n 3.M 5 9 8 9 8 9 9 8 9 9 5 N p p >.U o X w i I 2.I X $ $ $ $ - x z 6 > / ;.8 8 8 9 9 8 9 : x *.* - , 3 6 8 9 8 8 9 ",
"S p 6 0 6 0 >.[ > 9 9 8 8 8 8 8 8 8 8 q m 8 ; Z 3.$.X.$.>.X.i X $ $ $ $ $ $ : F n > q 2.N 5 9 9 8 8 9 3 M #.6 8 9 9 9 8 8 9 8 8 ",
"E S p > p *.*.9 8 8 8 9 8 8 8 8 8 8 8 l z 8 1 < :.4.,.J 2 w + * $ $ $ $ $ $ - M H v 9 @.{ > 8 9 8 6 8 5 M #.9 9 9 8 8 8 8 9 9 8 ",
"z p G ] -.4.G : 9 8 8 8 9 8 8 8 8 8 8 m 9 8 3 + X.2.e . + w t + $ $ $ $ $ $ , v 8 0 l | &.z v v n v z 9 q :.z 5 9 9 9 9 9 5 > l ",
";.:.2.3.3.2.Y 9 8 8 8 8 8 8 8 8 6 9 m p 8 9 8 X O.X.X , * # t 4 # $ $ $ $ # 0 h 8 9 ; / @.6 9 8 9 0 j n z ..&.9 > 5 5 > 8 n { ;.",
"H S j a Q 3.G j n a 0 0 9 9 p h S F 0 8 8 8 8 & +.^ X * $ $ # i 4 # # # # 2 z 8 8 9 >  . .> 9 9 8 8 8 6 9 z O.:.W S S E &.1. .Y ",
"O + + +   ^ ` . 2 w i s d d x l N n 5 9 8 8 9 > &.P X , $ $ # # t w < 4 e r 8 8 8 9 6 -.Y > 9 9 8 8 9 8 8 5 5 H 1.3.3.4./ 0 > - ",
"$ , $ , + e &.< # # # # # # - 3 5 v 0 8 9 9 6 z 2.f o $ $ $ * $ # 2 w 4 , $ 8 9 0 > M <.p 6 6 6 6 8 8 8 9 9 8 z 0 ' 4.E = , , # ",
"$ $ $ $ $ < &.w # $ $ $ $ $ $ 3 8 h z 8 8 9 ; { *.3 1 , $ $ $ $ $ # # # # 3 9 8 > 0 :./ > 3 * * $ , , 1 1 : r a @ X.} X , $ $ $ ",
"$ $ $ $ $ , &.t + $ $ $ $ $ $ , 8 9 n 8 9 > F 2.N 6 9 8 3 1 , & $ $ * , 6 9 > 0 G :.+.6 6 * * $ $ # $ $ $ $ i o a ;., # $ $ $ $ ",
"$ $ $ $ # , $.t # $ $ $ $ $ $ , 9 > p h ; N 1.2.q > 9 9 9 8 8 6 3 3 3 8 9 6 R :.3.3.n 5 6 * $ $ $ $ $ $ $ < e   Q ) X , $ $ $ # ",
"$ $ $ $ # w :.t # $ $ $ $ $ $ @ > h F | O.2.2.2.:.S 6 9 8 8 9 8 9 9 9 9 3 / 1.M S 1.p 8 3 # $ $ $ $ $ $ # w w   ] L X $ $ $ $ $ ",
"$ $ $ $ # < 2.Z X $ $ $ , o X c O.:.*.| ' W v q W 2.H > 9 8 9 8 8 8 9 5 S 1.h ; z ;.0 8 3 $ $ $ $ $ $ $ + w 2 X } K X $ $ $ $ $ ",
"$ $ $ $ $ o U ,.4 X o o o t X.>./ v 8 > > 8 v h = W <.9 9 9 8 9 8 9 9 5 &.R ; 8 v :.0 9 3 $ $ $ $ $ $ $ $ e < X ) I X , $ $ $ $ ",
"$ $ $ $ $ $ . X.>.J k C [ 1.) 0 > 6 8 9 9 8 8 n p h 3.G = 8 8 8 9 9 ; P *.8 9 8 0 :.M : 9 * $ $ $ $ $ $ $ t * X ` ( X $ $ $ $ $ ",
"$ $ $ $ $ $ X V 3.4.3.2.X.w O 8 9 9 9 9 8 8 8 8 v h ;.:.F l 8 8 5 5 m 1.m > 9 9 : _ :.p : + o $ $ $ $ # < e # X O.` X * $ $ $ $ ",
"$ $ $ $ $ * + f 3.I w 2 + # 3 9 8 8 8 8 9 8 9 8 9 x &.4.3.:.&.@.O.@.:.H > 9 8 9 8 0 &.1./ P k + $ $ # $ i < + w 3.) X * $ $ $ $ ",
"$ $ $ $ $ * X C $.X + # $ 1 8 8 8 8 8 9 8 8 8 8 # f 2._ 4 w d c C m 0 > 9 9 8 8 9 6 8 O.4.3.2.X.# # w i 4 $ X Q 4.U X * $ $ $ $ ",
"$ $ $ $ $ , X ) ! X * $ : 8 8 8 8 9 8 8 9 8 8 , X V >.# o # o o o X # , 3 9 9 9 8 9 6 h 2.E # +.X.e 2 # X X Z 2.3.V o * $ $ $ $ ",
"$ $ $ $ $ # < >.g X < 3 8 8 9 8 8 8 9 8 8 8 8 , o #.U $ w w w $ $ , * # - 3 9 8 8 9 9 > O.P # i +.:.J f k ] 2.3.:.< # $ $ $ $ $ ",
"# # $ $ o X ] 4.J : : 9 8 8 8 9 8 8 8 8 9 8 9 O I 2.C < * $ < t < # * * # , 8 8 8 8 9 > o./ z 1 + Z X.&.&.$.1.3.) X * $ $ $ $ $ ",
"2 w t 2 i +.3.;.;.#.R 3 9 9 8 9 9 9 9 8 9 9 : c 4.) # $ $ $ # $ e 2 # # * & 8 9 8 9 8 p <.H 5 6 3 @ # , $ X Z 4.Z X $ $ $ $ $ # ",
"w < # ! <._ x 9 9 z O.W > 9 0 9 8 8 8 8 8 8 p :.3.>.t # $ $ $ $ # w e * # * 6 9 9 > 8 $.O.8 8 9 9 9 9 6 3 - < 1.g o $ $ $ # , r ",
"# X Q $.e > z z 0 5 9 #.m l z z z z p 8 8 5  .2.O.+.&.* $ $ $ $ * # < r e 9 0 6 5 S ;...x 8 9 8 8 8 8 9 9 8 0 :.t + , * $ , r < ",
"X c &., > 9 8 p z v p _ { > 9 9 9 q z n 8 v :.S r X Q T X $ $ $ $ $ $ # 9 h p Y #.;.S h h 6 9 8 8 8 8 8 9 9 9 ;.J X # # + s $ $ ",
"# +.f 1 9 8 9 6 8 9 3 m O.6 9 9 8 8 8 9 v { O.9 9 , + } t + $ $ $ $ $ 1 8 > W :.H z 0 m 0 8 8 9 9 9 8 8 8 8 > W 2.E i , c t # $ ",
"` ! - 9 9 9 8 8 9 9 8 p #.9 1 3 3 9 9 9 > R @.6 8 3 o k ) o * $ $ $ 1 9 3 m ;.q > 8 R F > 6 6 6 8 8 8 8 0 z n l O.4.:.X.[ t X # ",
"^ , 6 9 9 8 9 8 8 9 8 : +.i X * , : 8 9 8 9 #.h 8 3 $ $ [ 2 $ $ $ * 6 9 > S ..> 0 5 m W z z z z z z n v n z 9 5 &.1.O.&.>.>.[ } ",
"X 1 9 8 9 8 8 8 9 3 , o J $.# o * $ 3 9 8 0 ;.n 6 8 , + ( f + $ $ 1 9 9 6 z @.9 8 q F S v z 0 p z q 6 6 8 8 > _ +.p > 6 y c I f ",
"& 8 8 8 8 8 8 9 8 , $ $ o Q &.w X $ 1 8 > O./ l 9 8 , X L K . * * 6 9 9 5 m @.5 q m 8 - @ - E @.&.#.{ v > ; F @.6 6 9 9 8 # $ w ",
"3 8 8 8 9 8 8 9 1 # $ $ $ X J *.J o # p X.| 5 z 9 8 1 + w +.w   @ 8 9 9 > | W > m 9 * o w &.[ c t c ' :.@./ 2.P 5 9 8 8 9 8 9 k ",
"9 9 9 8 8 8 8 8 1 # $ $ $ , X w &.&.X.*.W 6 6 z 0 8 1 * o B +.^ b 8 6 : R $.8 z j * + < :.K X o + X % q ' 4.3./ > 0 9 9 9 8 9 z ",
"8 8 6 8 9 9 8 8 , - $ $ $ $ , o , *.2.z > 8 8 z 8 9 3 * $ + w Q 2.@.| O.2.v 6 m 3 * o [ ^ . $ * $ $ , 3 : E 3.>.v ; > > 9 9 0 v ",
"z v z p 5 8 9 9 , # $ $ $ $ $ * . I o.% 9 8 0 z 8 8 6 * $ $ +   #.5.4.4.:.9 h x , + d *.$ $ $ $ $ $ $ 3 9 6 @.3.>.{ E S 9 ; l H ",
"0 9 q n n 9 8 9 3 - * # $ $ $ $ o V X.- 9 8 h q 8 8 8 , # * + ( >.~ G W 2.H p p * X ] I X , $ $ $ $ $ , 9 3 } 3.3.2.&.#.#.N v N ",
"> > 5 5 h m 8 > 8 3 , * $ $ $ $ X V X.+ 8 9 z 8 8 8 9 3 * X K *.9 : > ; S :.N 0 + t *.2 # $ $ $ $ $ $ 1 8 p 1.>.H 0 6 5 N 1./ > ",
"/ / {  .| ..O.W p 8 3 # $ $ $ < . ( [ O 8 q l 8 8 8 8 6 # , *.w : 9 9 0 : W -.0 X X.U X $ $ $ $ $ $ $ 3 >  .&.0 5 8 9 8 h l _ ..",
"H H n j h z M / *.R r - $ # $ X i 2.) X 6 l h 6 9 8 9 9 O T ( X 3 8 9 9 9 9 :.~ L &.$ $ $ $ $ $ $ $ * : N :.0 8 9 9 8 q v 6 5 z ",
": > 5 8 8 6 6 ; z #.F z , 2 $ c >.4.*.2 @ 0 z 8 9 9 5 > E +.< $ 3 9 9 8 9 > } 4.3.c X * $ $ $ $ $ # , 8 ;.H > 9 9 9 6 v 0 3 6 1 ",
", 1 3 9 8 9 8 0 ; W / n H i ] 4.>.X.$.>.X.G z 9 9 > z O. .2 + $ , 9 8 8 9 > / 4.{ + $ $ $ $ $ $ $ , @ ] O.> 9 8 8 8 0 x * , $ , ",
"# $ $ , 8 8 8 9 8 v 1.O.&.:.>.Z $ t , t Q :.@.9 ; S <.R > 1 $ # $ 6 9 8 9 > E 3.z : $ $ $ $ $ $ $ + m >.p 8 9 8 8 6 v 1 # $ $ # ",
"# , * # 1 8 8 9 6 v 2.;.{ H < o # w w X X 4 &.@.R >.N ; 9 8 , $ # 3 9 9 9 > / &.q 1 $ $ $ $ $ $ # , :.P > 9 8 9 q n r + * $ $ $ ",
"$ $ $ # , 8 9 9 > / ' h 9 > 3 , $ # a , & # p *.5...> 9 8 8 1 # # , 8 8 9 > } ' 9 3 , $ $ $ $ , X K *.> 8 p v v z 9 # $ $ $ $ $ ",
"$ $ $ $ $ 3 8 8 9 @.j v 9 9 9 1 $ # 2 s $ + t z 1. .6 9 8 8 3 , & - 8 9 9 6 O._ 8 8 , # $ $ $ o 4 1.H 8 m v p 8 8 , $ $ $ $ $ $ ",
"$ $ $ $ # , 8 5 { E h z 8 8 8 8 , * # 4 u C C = ..O.> 9 8 8 8 , $ * 3 9 9 5 O.H > 9 , $ $ $ o w &.2.n v 9 6 8 8 9 , $ $ $ $ $ $ ",
"$ $ $ $ $ $ % F O.9 n 8 8 8 8 9 1 $ $ # * w g 0 / @.> 9 8 8 8 , $ $ 3 9 8 p @.R : 9 , $ $ # t *.3.<.G 8 8 9 8 9 9 : $ $ $ $ $ # "
};
