/* XPM */
static char *zelda1[] = {
/* columns rows colors chars-per-pixel */
"64 64 233 2 ",
"   c #2C2B14",
".  c #2C2C1C",
"X  c #282919",
"o  c #332D1B",
"O  c #2E3113",
"+  c #2D321D",
"@  c #333316",
"#  c #33341B",
"$  c #3B351D",
"%  c #35391D",
"&  c #3B3C1D",
"*  c #373816",
"=  c #2A2C0F",
"-  c #2D2D21",
";  c #342F23",
":  c #2D3321",
">  c #343424",
",  c #3A3524",
"<  c #353B23",
"1  c #3C3C24",
"2  c #3A362A",
"3  c #353B29",
"4  c #3C3D2A",
"5  c #3C3C31",
"6  c #423D1D",
"7  c #493F1F",
"8  c #423E23",
"9  c #423D2B",
"0  c #423727",
"q  c #423D33",
"w  c #3C411D",
"e  c #3F481E",
"r  c #3D4224",
"t  c #3E4925",
"y  c #3D422B",
"u  c #364229",
"i  c #3F4532",
"p  c #3E4835",
"a  c #42421E",
"s  c #434324",
"d  c #4A4524",
"f  c #444925",
"g  c #4B4C26",
"h  c #44442B",
"j  c #4B462B",
"k  c #454A2B",
"l  c #4C4B2C",
"z  c #524D2C",
"x  c #554B27",
"c  c #4E5326",
"v  c #4D532C",
"b  c #4A552C",
"n  c #53522D",
"m  c #5B522E",
"M  c #545B2E",
"N  c #444433",
"B  c #4A4532",
"V  c #454A32",
"C  c #4C4C33",
"Z  c #4E4C3A",
"A  c #48483A",
"S  c #524D33",
"D  c #534D3B",
"F  c #554A30",
"G  c #4D5232",
"H  c #4B5A34",
"J  c #4C533B",
"K  c #4F5839",
"L  c #535433",
"P  c #5B5534",
"I  c #555B34",
"U  c #5B5B35",
"Y  c #53543B",
"T  c #5A553A",
"R  c #555A3A",
"E  c #5C5C3B",
"W  c #615633",
"Q  c #635D36",
"!  c #625D3B",
"~  c #695E3B",
"^  c #65583A",
"/  c #715E3C",
"(  c #56622E",
")  c #556133",
"_  c #5A6235",
"`  c #55633B",
"'  c #5D633C",
"]  c #5D6A3E",
"[  c #636436",
"{  c #63633D",
"}  c #6B643C",
"|  c #646A3D",
" . c #6C693D",
".. c #6B6336",
"X. c #70643D",
"o. c #74693C",
"O. c #69723E",
"+. c #4E4B42",
"@. c #464B41",
"#. c #514E42",
"$. c #525542",
"%. c #5A5642",
"&. c #565B42",
"*. c #5C5C43",
"=. c #5C5C4B",
"-. c #53584A",
";. c #55594A",
":. c #625D42",
">. c #625D49",
",. c #645847",
"<. c #5C6342",
"1. c #5E6943",
"2. c #5D6547",
"3. c #636443",
"4. c #6B6543",
"5. c #656B43",
"6. c #6B6B44",
"7. c #63644B",
"8. c #6A664B",
"9. c #656A4A",
"0. c #6C6C4B",
"q. c #736C44",
"w. c #786E44",
"e. c #726D4B",
"r. c #76694A",
"t. c #667043",
"y. c #6C7246",
"u. c #65724B",
"i. c #6C734B",
"p. c #6C794B",
"a. c #6D7847",
"s. c #737245",
"d. c #7B7247",
"f. c #74734C",
"g. c #7A744C",
"h. c #74794E",
"j. c #7B7B4D",
"k. c #6C6D52",
"l. c #676853",
"z. c #726D51",
"x. c #796E57",
"c. c #6D7452",
"v. c #6F7A53",
"b. c #6C7559",
"n. c #747453",
"m. c #7A7553",
"M. c #757B54",
"N. c #7C7B55",
"B. c #74745B",
"V. c #7A765B",
"C. c #757B5A",
"Z. c #7C7C5B",
"A. c #726F62",
"S. c #757461",
"D. c #797664",
"F. c #7D7C62",
"G. c #787A66",
"H. c #82754B",
"J. c #827D4E",
"K. c #897A4D",
"L. c #847646",
"P. c #837553",
"I. c #827C54",
"U. c #8A7D54",
"Y. c #837C5B",
"T. c #897C5A",
"R. c #83775A",
"E. c #826F41",
"W. c #827D61",
"Q. c #897D63",
"!. c #768154",
"~. c #7B8254",
"^. c #75835E",
"/. c #7D825C",
"(. c #7D8363",
"). c #7C8962",
"_. c #7D816C",
"`. c #7F8D6A",
"'. c #7D8B70",
"]. c #84824F",
"[. c #848354",
"{. c #8B8355",
"}. c #83835C",
"|. c #8A845B",
" X c #83895E",
".X c #8C8C5D",
"XX c #8D8A56",
"oX c #938A5D",
"OX c #948658",
"+X c #94945D",
"@X c #93804E",
"#X c #838464",
"$X c #8B8663",
"%X c #858A64",
"&X c #8C8B65",
"*X c #83836A",
"=X c #8A866A",
"-X c #858A6A",
";X c #8B8C6B",
":X c #928C63",
">X c #918D6B",
",X c #9A8E63",
"<X c #8B9164",
"1X c #8D926B",
"2X c #869268",
"3X c #949365",
"4X c #9A9464",
"5X c #93936C",
"6X c #9B946B",
"7X c #9B9A6C",
"8X c #979A68",
"9X c #8C8D73",
"0X c #888773",
"qX c #928E70",
"wX c #8C9372",
"eX c #8C9772",
"rX c #939374",
"tX c #9A9673",
"yX c #939A72",
"uX c #9B9C74",
"iX c #939379",
"pX c #96997B",
"aX c #9D9D7D",
"sX c #9A9778",
"dX c #A1986B",
"fX c #A39D78",
"gX c #9EA16B",
"hX c #9CA075",
"jX c #A2A36B",
"kX c #A5A377",
"lX c #AFB17B",
"zX c #9D9F81",
"xX c #A3A384",
/* pixels */
"z h h r a v ' v k f r k H c.8.3.#X' n.1XC.E & z 8.F.B.z.8.T j 8 W ~ w.E.d ! U k b v ` f w f f 1 @ *   + s S z 8 d 6 $ 6 j 6 l P ",
"8.8.R s r r k L L k Y k w R t 7.M.k 5.Z.E Y 8 s C S C F j j j j ^ ~ 4.w.x T N.M.M.I L 5.5.' 3.<.3.i.3.l % @ 8 z :.T P F O # T 3.",
"C.#X7.8 @ s 8.Z.0.E C.9.k w k f t f E v s s s r & & * 6 d F z P P E U U j L %X X%Xc.b ] ).2X1X;X&X}.M.6.j s e.V.:X>XV.! 8 4 *.k.",
"b.<.c.B @ C E <XuX4.#XZ.5.f * % % f ' Y E n.F.9.9.E Z W.*X7.C E { ' 0.U C j M.#X%X&Xb I !.yX;X-X-X}.M.6.S s Y.&X6X:X$XV.s 1 3.V.",
"zX_.<.k & 0.&X4.f.M.aX%XZ.{ *   % ' M.-Xn.;XrXn.Z.3.E iXwXk.&.i.M.c.i.E C h V.%X&XrX' L t.eX1X<X%X#XN.M.L z n.rXqX$XT.6.8 1 n.wX",
"_.-Xn.& h f.uX&X{ 6.xX5X Xn.w O f 9.Z.;X*XpX;X#X/.E v n.F.c.3.M.(.Z.f.E k S Z.%X2X1X` b I !.yX1X#XN.}.}.I h n.#XW.=XzXrXf r G.*X",
"j x n l l C.&Xy.kX/.M.5XZ.M.h * f ' 5.0.rXaXiXrXZ.S G 9.;Xc.8.-X*X(.C.0.h Y  X#X1X%Xv 1.) b /.yX&X%X<X X<.% <.<.R &.8.Y % 1 1 & ",
"4.q.4.l G (.M.h.yXuX6.s.h.h.5.O r E (.V.rXzXaX(.n.I f ' ' I B.9X9X9Xc.L j k 6./.2XN.H ).%X5.L /.5X5X5X/.9.3 p i 3 3 h E 0.W.0.3.",
"4.....& k 5.I 5.N./.3.{ y.3.I   w 9.Z.wX;XiXpX#X6.U f k 5.1X0X9XwX(.#XT 1 R ' L C.0.L p.M.yXc.L  X5X1X/.5.i X : h <.F.=X&XtX>X>X",
"~ m m , V I a 6.y.' k % w % % * * I ' %X(.#X#XM.5.M w v /.-X-XiX9X0.#X7.r u..Xy.v ` ` 5.M.Z.C.] 6.Z.#XZ.L y : V 3.#XuXY.m.0.Y.>X",
":.8 F o y h 1 G V $ 1 L d E E E v b g 5.h.6.C.Z.{ b % v 3.^.*XzXrXB.*XR t 1.%X/.3.k R ' E I L P E U 3.6.R u 3 0.}.=X5X0.y.Y.&X}.",
"8., 0 0 $ , , ; X 2 d L { N.{ 6.' L f v 0.5.' i.M.{ O f h./.-XC.#XV.(.<.t V Y u i 4 V k l d 6 6 s L % * ,   V 3.f.>X5X6.>XtX$Xe.",
"Y $ D ^ m j P Y , S } P } I.f.s.6.0.s f L z g f L f O v !.!. X}.0.M.h.t.t t s b *.G.E s ! 6.~ P & P z s j 2 > (.;XZ.m.n.>XY.>X&X",
"=X9 ^ L.L.m s.f., S f. .s.f.|.[.|.N.B * L I E k.v & % v _ u.5.t.' ' h.] e ) E I c.9XD.s e.g.g.4.a z 4.|.Y.%.# i.n.0.3.M.>XZ.0.V.",
"3.,.m K.w.^ f.N.8 T N.f.N.I.}.5X}.4.n <.(.V.k.Z.3.s % b M g k I H K K k k b.*XF.*X0XG.l e.I.P.} d P ! T.qXm.1 k 9.n.Y.$X&XrX&Xe.",
"M 8 Q L.m z.[.j.d 4.|.|.f.:X&X&X$XN.c c.9XF.*Xc.L f I { b H < : 1 3 + L i.Z.=X0X0XD.V.l 6.N.P.^ x ~ I.g.g.n.L E n.n.6.=X5X>X$X$X",
"T @ m Q U Y.N.s.d E q.|.}.&X:Xf.N.Y.E b M.#XiXB.E I n.;Xc.' k 1 J C s 0.{ ~ F.F.Q.W.#XL 6.I.P.W x q.$X6X,X=X4., Y V.z.R.V.m.0.3.",
"8 @ 6 I | N.}.}.j P e.q.$X$X}.s.|.Z.L f _ y.#XZ.Y V.9XiXwX5.G V l.<.j j d z x.W.G.D.n.l 6.T.d.W x q.T.Q.$X=X0.h 9 B B 8 0 , , j ",
"l $ a U { 3Xj.M.n { g.6.|.I.f.q.g.Z.n s y.h.f.E f F.zXpXyX).n j _.G.1 h S z ^ z.D.W.e.j f.d.w.W m e.P.x.e.3.L 1   X 2 8 h B B C ",
":.8 d U )  .| Q n 3.Y.q.f.j.q.6.6.y.L w ] 5.' k & V 7.b.l.J j 8.V.b.1 3 G C T ! :.:.P z e.! ~ d P q.4.^ l 6 * s E $ T z.Z.W.Z.B.",
":.$ j C g b n U 6 4.g.! q. .{ ' ` <.<.i <.t.5.I ` 3.J + A 2.S L *.k.k v.<.G Y C x g h j n d n g n n l v L 3.k.M.e.1 S N.Y.#X%X#X",
"P * 9 , + f g k l C P 6 U d & G u i p p <.!.' !.c.-X^.f 9.dXf.O 2.&.2.hXuX<.2.z.' h.5.f k 3.M.h.h.N./.V.(.(.#X/.f.1 T /.#X*X;X*X",
"E * # R l 1 $ h L 8 @ r a % B h 3 4 + u ` M.1.n.i.(.b.k 3.3XM., &.$.R aXyX4./..X5.%X|.L V 5.6.~.(./.Z.0.(.Z.n.M.M.k E $X;X-X&X#X",
"%.& s 0.i.U l 3.6.{ 1 @ s L :.l 3.8.A + y k v k G v G y G 5.{ 4 3 , k i.0.0.&X~.y.;X;X9.G 1.i.M.%XZ.C.<.c.5.9.v.h.S E #X-X$X&X#X",
"! & P 0.Y.{ e.z. .{ r y E 4.0.E f.V.=.+ S P P z n m x g m n g s 2 N 0.$X&X&X;Xp.M.rX#XJ L ' 5.M.#X/.C.I E i.C.p.p.C 3.#X#X-X#X#X",
"^ 8 3.n.N.6.V.N.q.! u G 6.m.n.~ V.m.*.< } o.K.o.o.o.L.K.U.K.L.Q V N E :XkXfXW.9.;XqXrXk.h 5.M.).#X/.n.3.C./.M.h.M.L 3.%X#X&X#X}.",
"P 8 :.Z.m.0.Q.Z.M.i.t I m.f.g.8.Q.N.Y 4  ...o.J.d.U.dX,XoXOXOXw.h D S } [.>XY.=XrXqX}.*.f y.~.#X#XC.i.0.(.M.h.Z.n.R E n.n.F.;XZ.",
"l n :.4.e.0.F.m.~ 3.k R g.f.m.8.Y.D.@.V z [ s.j.7XkX3XdX4XOXOX~ h B T V.|.q.Z.pXrX-XZ.&.w a.~.).%XM.5.h.;X1XwXxX9XZ B 8.*.>.B.k.",
"d P M.Y.n.{ 4.0.f.I b L q.g.N.e.8.>.u y U .X[.[..Xh.s.{ 3XI.K.~ 1 j Y S.xX&Xn.sXrX9Xn.G t M.c.C.M.] 5.n.Z./.k.=.Z , o 0 0 , 1 9 ",
"g L m.W.Y.4.z.{ ! { k L 4.e.V.k.k.8.y N [ [ 6.q.h.XX:Xw.[ 6. .Q , 8 D =.x.Z.k.x.z.E h 4 < 1 R Y E 5.4.G j 9 , # , 9 j 8 j S C F ",
"E P M.}.6.} 0.z.4.n L M e.N.e.0.#XV.N 4 P  .d.g.w.o. .{ l d E h o # D h s s 2 k R V s f % s h 1 1 r % 1 D Y 3.e.n.m.m.N.Q.|.$XN.",
":.^ Y.6.3.Z.V.C.F.*.< V 3.L { 0.m.m.y 3 I z P m P d g j I k 9 + 1 h Y E 4.*.Z E 8.5.y.y.5.6.y.E 0.%.l y.Z.W.$X}.I.g.Z.$X$X|.=X$X",
"j C T j T *.C j B A - 4 j { n.0.N.f.V 3 k v { x & $.Y f u.k R k &.D.n.c.f.5.E 3.6.h.h.s.N.M.M.N.Y.0.g U n.g.e.f.m.Y.T.Z.R.V.$X=X",
"j @ z :.:.3.P :.>.+.5 > 6.N.4.4.r.3.$.V i.m.h.j. .K J I !.) p.!.' %X(./.Z.y.Y 5.6.h.h.f.n.m.M.V.m.q.c d P } g.V.R.N.g.m.W.Y.z.8.",
"h = %.m.n.m.:.r.e.*.5 1 q.s.U U z.e.$.2 ! $X&X|.M.B # I O.~.O.2XM. X1X;XM.i.E 6.f.g.f.s.f.q.o.w.d.s.g & m q.m.N.m.f.d.m.R.N.e.P ",
"8 j F z.4.8.:.g.e.>.> f f.6.g 6.m.6.<.4 8.}.W.g.6.K % M a. X).t.y.h.a.i.h.<.R y.} 4.} .. .~ ..} 4.} 6 6  .X.e.N.V.P.e.z.R.n.N.E ",
"w.x.F x.T P ! 4.P B + r _ g L 1.{ L N 3 ,.m.|.}.6.L 1 ' !.<X^.( h.5.M.a.' <.R G h 8 l l g d 7 a a d f & m q.f.m.n.e.n.Y.W.n.Y.E ",
"^ ~ j %.,.z.z.8.! 1 X w d B &.$.h < X 4 7.Y.#Xw.{ V k b O.).1X!.yX%X/.%Xy.&.J h s s C T Q P n z U } 6.d z s.P.N.6.m.T.6.m.8.9.1 ",
"L 8 X D 8.e.z.e.4.y u y.y.c.b.'.).G.-.< k.R.Y.e.{ t & b a.%XyXp.2X%XM.h.a.Y V I ^ E n ~ }  .} | h.| y.M n q.q.w.e.d.o.} m S k h ",
"#X$.o T q.4.6.n.E < G 0.C./.i.M./.b.-.3 =.D.B.S.b.k % k i.M.5.p./.h.Z.y.5.=.C L } w.z q.w.q.f.[ j. .s.U g M 6.e.Q  .q.6.s I f./.",
"#X2.> T r.r.,.>.N u L y./.%Xp.9.%XC.-.u 1 , o o 4 C r ' _ t.u.p.M.n.M.y.{ D C U ..K.P w.@X|.:X} $XXXg.m c 6.g.[  .I.f.s L N.1X}.",
"V.&.> D F D C 4 < r 5.M.M.C.-X-XC.1.@.> k ,.~ ^ ' f g 5.a.!.a.a.p.C.B.f.E Z B | e.U.! g.4XoX7Xe.6X+X6._ w { ' n [ U s < 4.<X~.{ ",
"M.*.X 9 h 4 h 3 X f I y.u.5././.c.9.-.< m K.6Xf.5.n v u.a.t.u.1.5.9.` P I Z h X.H.XXw.U.oXOX.Xj.6XU.s._ * & w f g G y V 9.3X&X' ",
"I J - J 3.c.3.Y < l ] ] h.~.).#X;XwXl.u ! L.j.#X|.6.a.1.` H u.H K G r * 1 9 9 r.H.:XI.J.dXdXg.} I.U.o._ a f L I 5.3.A 2 &.Z.%Xn.",
"I 1 h R %X<X5.G < v ' !.~.M.wX-X'.iX_.: P oX5XN.,X{ K 1.` 1.p.) y V 3.R N > j q.q.$XI.w.fXI.q.tXfXOX[.U M v g N.N.0.D q f C E E ",
"8 % Y 5.#X!.' V 3 h I 5.' 9.C.M.i.k.=.. T T.P._ m.^ 1 $.2.8.p.6.3.*.>.V.<.4 l q.T.|..X} | s.f.5XdX{.j.M v 5.v ~.}.f.D D h $ 8 8 ",
"E E { #Xi.' _ k 3 O % * f r w v G h # . 4 T I k f 1 #.9XQ.Q.Y.6.m.m.d ^ 8.4 l w.{.U.>X}.U }.g.g.+X{.J.c L ~. .j.[.{ V , j z z v ",
"N.M.}.n.` 5.G f , G 1.9.5.' 5.9.<.v <.<.N + 1 H , . D 0.r.Z.T.8.z.N.4.d L Z l 4.$X|.XX>Xg.Y.q.{.K.@Xd.a v  X].].j.' r < 8.M.M.M.",
"N.s.0./.s.M.' % y <.M..X3X%X X1Xh.] yX(.^.1.b H f v E 6.q.n.N.0.m.Y.e.P j S l l 4.I.{.{.[.o.[.J.s.g...6 U N.[.].N.M S 9 i.n.N.N.",
"}.3.6./.Z.p.v + k ' !.XX8X8X4XjXu.h.8X~.5.H H c H ) U 6.e.e.4.^ ~ r.4.E h l n s s l P 6. .c M U 4.} P % P s.j.h.2X{ 9 9 i.n.Z./.",
"n.6.6.y.| ` G # h p.N.[.XXXX4X].j.kX.XM.a.) f b _ ( c [ e.Y.Y.V.4.E Z.%.j | e.e.4.! 3.G c M s 1 s d 8 % E | y.0.Z.n.C q 0.c.M.f.",
"4.0.' f.| G k y i ` y.J.].+X!.| lXgX8X/.' ) M ) c ( [ U ! m.Y.m.Z.3.8.Y L 4.j.P.I.g.XXh.N.} | 0.l @ h 9 D E U } [.N.q 5 <.9.i.f.",
"R L n G s s % y y <.~.XX+X4Xs.XXlX8X~.t.u.) ) ) c b _ | N.W.e.g.V.n.*.h L e.I.|.oX{.]..X[.|.g..XR.$ , , , 0 s { N.' 2 : i $.8.c.",
"s s 6 g g l G 1 1 ! }.XX+Xj.4X~.[.kX X).5.v I <.!.` G  .R.R.,.R.P.I.m.h P e.XX:X&X[.I.XXJ.&X| &XN.0 B B F S L H ' $.7.-.C 5 4 h ",
"z z x Q  .4.Q L 1 z j.XX.Xg.~.8Xy..X5X X>.1 l.Z.^.l.y 4.x.Q.r.A.T.T.P.Y l 4.|.>X&X.X.XI.&XM._ <Xe.0 >.V.e.N.N.u.u.).(.(.n.%.4 , ",
"! q.~ g.T.|.o.P 1 k U Q N.j.s.+X.XM.<X/.=.2 2.V.^.9.3 I T ,.,.,.r.P.~ 9 L { 6.q.6.I.3XoX$X' h.8X0.j >.N.}./.%X-Xu.(.).C./.n.*.9 ",
"W T.U.K.T.U.s.I.G i U w.m g.|.[.&Xa.~.c.%.; J b.l.5 - > 2 q +.+.#.,.j 0 T m.|.|.I.[ h.%X5.v %X$X0.h R ~.).).`.`.C.).`.).^.^.2.V ",
"W / ,X,XOXoX,XT.L f X.@XE.m r.|.|.M.v.l.%.> N @.p #.-.l.A.A.+.;.8.,.S 2 T m.|.|.}.[.5.u.U ~.|.&Xf.u V ^.M.^.^.v.b.1.c.^.`.).c.V ",
"7 r.lXkXI.6X:Xm.Y h q.@XK./ d r.8.*.Z B N - Z 7.8.B.W.*XW.G.D x.W.G.A.2 P m.|.,X[. Xy.u.~.7XoX5XN.1 $.u.M.`.`.`.u.eXeXeX%X)./.C ",
"^ ,XfX$X|.@XOXm.G 1 S Q W W 9 6 h 1 , 0 2 o q %.n.k.l.z.D.A.#.A.D.D.G.q L e.T.,X:Xh.u.5.N.<X<X5Xm.V V C.u.9.b.2.1.C.b.u.<.7.M.S ",
"/ R.H.T.6XI.d.N.I , B B P L S z ! e.R.R.,., q ,.8.V.V.x.B.A.#.k.V.S.D.9 z w.m.|..Xs.` ' | ' 5.9.{ 4 V <.I 2.v.1.u.c.<.4.c.R R d ",
"/ H.P.d.T.m.8.Q L y 2.V.T.M.M.Z.n.>XaXqXV.0 q #.$.0.n.B.n.S.Z z.Z.V.W.9 8 w.P.U.Y.5.E gXgX~.y.a.3.u + R ^.)._.u.1.).c.E 5./.S * ",
"4.e.^ j z L j r 6 f l.F.Z.F.=X;Xn.;XpXzXz.8 0 A l.C.0.B.V.D.T %.8.8.z.q d m 4.P.s.I 5.8X+X4X.X.X#XJ y (.M.c.^.' c.-XB.4.P 4.l 8 ",
"j 8 j h 1 l 5.5.3.s &.l.9.*XW.(.#XiX>X;XW.D , Z k.F.F.W.*XF.E j T ! q.r.m x a z g R U E 6.{ 4.e.0.J p _.#X Xh.E n.B.7.j x 8 0 6 "
};
