/* XPM */
static char *zelda_perso[] = {
/* columns rows colors chars-per-pixel */
"64 64 256 2 ",
"   c #010101",
".  c #08070B",
"X  c #0E1119",
"o  c #343130",
"O  c #121F31",
"+  c #533718",
"@  c #4F392E",
"#  c #70382E",
"$  c #691E13",
"%  c #694B06",
"&  c #6C5208",
"*  c #795A09",
"=  c #694A17",
"-  c #755114",
";  c #786017",
":  c #5B4733",
">  c #6F4F2E",
",  c #685421",
"<  c #0D3175",
"1  c #352F6E",
"2  c #262559",
"3  c #453C4F",
"4  c #77394F",
"5  c #571774",
"6  c #553271",
"7  c #682370",
"8  c #524B4F",
"9  c #6C574C",
"0  c #78654D",
"q  c #4F4971",
"w  c #73696F",
"e  c #605775",
"r  c #3B4273",
"t  c #B50B0F",
"y  c #991622",
"u  c #D12D38",
"i  c #8A5B16",
"p  c #896707",
"a  c #9A7717",
"s  c #916E10",
"d  c #A37B13",
"f  c #825238",
"g  c #91712E",
"h  c #A27836",
"j  c #BF433F",
"k  c #8C3474",
"l  c #993046",
"z  c #8A5947",
"x  c #896749",
"c  c #977544",
"v  c #987559",
"b  c #8E6E53",
"n  c #A67C59",
"m  c #A27347",
"M  c #944A73",
"N  c #997763",
"B  c #8D7274",
"V  c #A47C68",
"C  c #A97C78",
"Z  c #B37C72",
"A  c #A15774",
"S  c #DC6466",
"D  c #AE870C",
"F  c #B18E2A",
"G  c #9C8128",
"H  c #D5AB2D",
"J  c #E9BA30",
"K  c #DAA916",
"L  c #FFC716",
"P  c #9A8550",
"I  c #AA8855",
"U  c #98867B",
"Y  c #958470",
"T  c #AA8669",
"R  c #B5886A",
"E  c #A78978",
"W  c #B58974",
"Q  c #BB9576",
"!  c #B79270",
"~  c #C79355",
"^  c #C79878",
"/  c #CA946D",
"(  c #D3A37B",
")  c #D7AD42",
"_  c #3C3789",
"`  c #3C3EA9",
"'  c #71138F",
"]  c #4E3190",
"[  c #6D2F92",
"{  c #7230AE",
"}  c #5F2AA2",
"|  c #344493",
" . c #004BA4",
".. c #3747AB",
"X. c #195DA5",
"o. c #595786",
"O. c #5B5999",
"+. c #4D4A91",
"@. c #6D4F92",
"#. c #6F6B91",
"$. c #5757B6",
"%. c #5050AA",
"&. c #6858BB",
"*. c #6E53AC",
"=. c #5467B4",
"-. c #6668A8",
";. c #7676AA",
":. c #706CB3",
">. c #5F698F",
",. c #6759C6",
"<. c #6D53D3",
"1. c #7867D6",
"2. c #7370CD",
"3. c #5D68E4",
"4. c #706DE7",
"5. c #545EC9",
"6. c #5D56C7",
"7. c #831597",
"8. c #93338D",
"9. c #9511AC",
"0. c #A416BA",
"q. c #A517AC",
"w. c #922FAA",
"e. c #AB33B2",
"r. c #A42E9C",
"t. c #914F8D",
"y. c #A54E8F",
"u. c #8B728F",
"i. c #A77C84",
"p. c #8F50AB",
"a. c #B04FB5",
"s. c #8C74AC",
"d. c #AE70B7",
"f. c #AA18C4",
"g. c #B91CD5",
"h. c #B11CCA",
"j. c #BB35C9",
"k. c #B72ECA",
"l. c #C11DD9",
"z. c #C63BCE",
"x. c #C726D9",
"c. c #C93AD5",
"v. c #D53CD8",
"b. c #C422C7",
"n. c #DA38E6",
"m. c #CD27E3",
"M. c #E03AEB",
"N. c #8B4FCE",
"B. c #B34BD0",
"V. c #8875D9",
"C. c #8E70D4",
"Z. c #BB70CD",
"A. c #8875E7",
"S. c #8F78E8",
"D. c #BE70E9",
"F. c #CB46D5",
"G. c #D446DA",
"H. c #D252D5",
"J. c #CC6ED0",
"K. c #DB49E2",
"L. c #D854E5",
"P. c #C85BE8",
"I. c #E548E9",
"U. c #E554EA",
"Y. c #E754EB",
"T. c #EE52F5",
"R. c #F776FB",
"E. c #F069F3",
"W. c #D973ED",
"Q. c #CB48BA",
"!. c #7C85B2",
"~. c #5081A2",
"^. c #5887D3",
"/. c #6A93E9",
"(. c #988985",
"). c #918C96",
"_. c #A78585",
"`. c #A99687",
"'. c #B99986",
"]. c #A99A96",
"[. c #B69795",
"{. c #AFA399",
"}. c #8989B6",
"|. c #9697B7",
" X c #908BAD",
".X c #AA96B6",
"XX c #99A6B2",
"oX c #A9A8B8",
"OX c #B5B5B7",
"+X c #AEA8AB",
"@X c #C69B85",
"#X c #C7A487",
"$X c #D7A686",
"%X c #C6A996",
"&X c #D4AC94",
"*X c #D9B699",
"=X c #E7B697",
"-X c #F5BC99",
";X c #E4AF8C",
":X c #D9BAA7",
">X c #CAB8AC",
",X c #E9BDA6",
"<X c #FD8993",
"1X c #FAC59D",
"2X c #D8C4B5",
"3X c #FBCAAD",
"4X c #F6C8A8",
"5X c #E9C8B7",
"6X c #FACDB3",
"7X c #F4CDB5",
"8X c #FAD3BC",
"9X c #F8D2B8",
"0X c #EDC9AD",
"qX c #928CD0",
"wX c #A796CC",
"eX c #9AA3C9",
"rX c #A5A8C5",
"tX c #B9BAC6",
"yX c #B0B0CE",
"uX c #8986E5",
"iX c #9494EC",
"pX c #A78FE4",
"aX c #90AFEA",
"sX c #B4AEEE",
"dX c #C590D0",
"fX c #CAB3D0",
"gX c #F48BFB",
"hX c #CAB8F2",
"jX c #DAA3F5",
"kX c #BDC2CA",
"lX c #B6CEF4",
"zX c #C8C6C7",
"xX c #CAC9D6",
"cX c #D7D7D8",
"vX c #D3CED5",
"bX c #ECD3C2",
"nX c #F9DAC5",
"mX c #E5D9D2",
"MX c #FBE5D6",
"NX c #F8E1CE",
"BX c #C8C9EA",
"VX c #D7D7E6",
"CX c #D6C9F8",
"ZX c #CDD5FB",
"AX c #D5D8F7",
"SX c #CACDF0",
"DX c #E5D4F7",
"FX c #DAE3F9",
"GX c #D7E2EC",
"HX c #E9E8E8",
"JX c #FAF2EA",
"KX c #E7EAFB",
"LX c #EBF6FF",
"PX c #FFFFFF",
"IX c #F5F7F6",
"UX c #F7ECED",
/* pixels */
"PXPXPXPXPXPXPXPXPXPXPXPXPXPXPXPXPXKXvXfX.XdXwXd.r.d.dXfXvXIXPXIXPXPXIXPXPXPXPXPXPXPXPXPXPXPXPXPXPXPXPXPXPXPXPXPXPXPXPXPXPXPXPXPX",
"PXPXPXPXPXPXPXPXPXPXPXPXPXIXHXfXJ.J.G.G.z.F.K.x.M.I.F.F.e.p.dX>XVXPXPXIXPXPXPXPXPXPXPXPXPXPXPXPXPXPXPXPXPXPXPXPXPXPXPXPXPXPXPXPX",
"PXPXPXPXPXPXPXPXPXPXPXIXvXJ.G.I.T.T.T.K.Q.v.m.v.G.G.j.z.x.n.c.q.e.J.Z.dXfXHXPXPXPXPXPXPXPXPXPXPXPXPXPXPXPXPXPXPXPXPXPXPXPXPXPXPX",
"PXPXPXPXPXPXPXPXPXPXfXJ.a.c.F.J.y.M M M e.x.b.F.c.k.0.q.0.9.9.q.9.9.9.9.f.q..XPXPXPXPXPXPXPXPXPXPXPXPXPXPXPXPXPXPXPXPXPXPXPXPXPX",
"PXPXPXPXPXPXPXPXPXfX[ j.Y.y.> i s p s s h k k.q.7.' [ [ @.s.s. Xs..X.Xp.w.9.[ HXPXPXPXPXPXPXPXPXPXPXPXPXPXPXPXPXPXPXPXPXPXPXPXPX",
"PXPXPXPXPXPXPXPXPXi.yXu.4 p d F H i D D F g e s.eXkXGXKXLXIXLXPXLXLXLXLXGXtXu.].PXPXPXPXPXPXPXPXPXPXPXPXPXPXPXPXPXPXPXPXPXPXPXPX",
"PXPXPXPXPXPXPXPXxXcXPXU * D ; s i a d d F d y.L.J.dXfXBXKXKXFXAXDXGXKXGXKXKXLXfXoXHXPXPXPXPXPXPXPXPXPXPXPXPXPXPXPXPXPXPXPXPXPXPX",
"PXPXPXPXPXPXPXcXxXPXzXP s F J & a K p s d i Q.M.T.n.z.Q.a.wXlXCXSXCXCXSXSXAXCXKXvX+XHXPXPXPXPXPXPXPXPXPXPXPXPXPXPXPXPXPXPXPXPXPX",
"PXPXPXPXPXPXcXzXUXCX_.G % g D & = % i F % 4 I.T.I.I.I.I.n.f.w.s.pXsXdXsXsXsXSXhXVXcX].HXPXPXPXPXPXPXPXPXPXPXPXPXPXPXPXPXPXPXPXPX",
"PXPXPXPXPXPXzXCXwXp.8.F G * i p d d a & # H.T.T.T.I.M.n.K.n.m.0.*.C.S.S.V.qXsXhXsXjXfX.XPXPXPXPXPXPXPXPXPXPXPXPXPXPXPXPXPXPXPXPX",
"PXPXPXPXPXcXrXs.7.n.I.z p d a p p * = M T.E.T.I.I.I.n.n.n.m.l.x.0.[ C.C.C.*.qXpXpXqXsX.XzXPXPXPXPXPXPXPXPXPXPXPXPXPXPXPXPXPXPXPX",
"PXPXPXPXPXHX#.9.M.M.M.L.k # = = > A L.R.E.T.I.I.M.n.n.n.m.m.l.l.g.0.p.C.V.:.&.V.S.C.C.pX).IXPXPXPXPXPXPXPXPXPXPXPXPXPXPXPXPXPXPX",
"PXPXPXPXPXPXt.0.m.n.n.T.E.Y.L.H.L.U.I.K.K.n.T.M.I.n.n.m.m.l.l.g.g.g.0.} V.uX@.,.C.V.<.S.s.cXPXIXPXPXPXPXPXPXPXPXPXPXPXPXPXPXPXPX",
"PXPXPXPXPXPX.X9.x.M.T.K.z.r.y.k M M M A y.8.r.r.q.x.m.m.m.l.l.g.g.g.g.0.[ uX:.%.<.V.1.V.qXOXPXPXPXPXPXPXPXPXPXPXPXPXPXPXPXPXPXPX",
"PXPXPXPXPXPX.X9.n.n.q.k C @X=X0X0X9X6X7X4X,X=X@XZ M 8.r.0.g.l.m.g.h.h.g.q.*.uX] &.<.V.<.C.).PXPXPXPXPXPXPXPXPXPXPXPXPXPXPXPXPXPX",
"PXPXPXPXPXPXu.f.x.8.i.bXMXnXnX8X9X6X7X3X3X3X6X6X-X-X$XR N 4 8.q.g.h.h.f.h.7.&.O.` ,.1.1.V. XHXPXPXPXPXPXPXPXPXPXPXPXPXPXPXPXPXPX",
"PXPXPXPXPXPXt.f.M *XJXJXNX9X9X9X6X3X3X3X3X4X1X1X-X=X=X$X;XW - g k f.f.0.f.0.[ O.] 6.1.1.A.s.xXPXPXPXPXPXPXPXPXPXPXPXPXPXPXPXPXPX",
"PXPXPXPXPXIXa.7 *XJXJXNXnXnX8X9X9X6X6X3X3X4X-X-X=X=X;X$X^ $Xn d d # 9.f.0.f.9.' ] $.,.,.4.;.kXPXPXPXPXPXPXPXPXPXPXPXPXPXPXPXPXPX",
"PXPXPXPXPXUX7 g NXMXJXMXnXnX8X8X6X6X6X3X3X3X,X-X-X=X=X;X$X$X^ > p D = 9.f.0.f.9._ 6.&.,.V.).HXPXPXPXPXPXPXPXPXPXPXPXPXPXPXPXPXPX",
"PXPXPXPXPXPX).g NXJXMXNXnX8X8X8X6X6X6X6X4X6X6X3X;X( R m m n ^ / s D D # 7.f.9.9.] ,.2.2.o.vXIXHXPXPXPXPXPXPXPXPXPXPXPXPXPXPXPXPX",
"PXPXPXPXPXPXHXb NXNXNXMXNXNXnX9X8X8X6X6XnX*XT c g g g c c g > E v p D D = 7.9.7 ] ,.O.q #.>X*X`.HXPXPXPXPXPXPXPXPXPXPXPXPXPXPXPX",
"HXcXHXPXPXPXPXw 0 0 G P ! 0XNXNXnX8X8X7XE x n R / $X$X$X( ( Q v R ; p s p + 5 7 @.i._.[.'.Y '.`.PXPXPXPXPXPXPXPXPXPXPXPXPXPXPXPX",
"cX{.%XOXzXcXIX).{.4X;X! I P Q mXnXnXnX:XZ ( ( / I z : : @ : : 0 ! c % p p c @X&X&XQ T 0 0 `.B zXPXPXPXPXPXPXPXPXPXPXPXPXPXPXPXPX",
"PXvXW P E 2X2X`.Y `.{.Y Y I #XbXNX8X7X4X;X/ / b X     X o   . : Q V * % R nX_.> : z x 0 Q N 2XPXIXPXPXPXPXPXPXPXPXPXPXPXPXPXPXPX",
"PXPX2XQ b v T '.`.@   X . . , 9XMXnXbX2X$X#X_.o X .   OXcX. X P ^ T & 0 9Xv # + b W b ^ N +XPXPXPXPXPXPXPXPXPXPXPXPXPXPXPXPXPXPX",
"PXPXPXOXE R x > 0 8 o zXX w 8 {.JXMX9X=X&X:XE 8 #.O   8 8 X o I Q ! = ( =X+ > f T W #XB +.rXPXPXPXPXPXPXPXPXPXPXPXPXPXPXPXPXPXPX",
"PXPXPXPX+X'.E b > U 9 cXO w 8 8 MXMXbX2X:XbXw ].kX .O   < < 9 ! ! T > 0X[.> b v $XE e 2.2.rXPXPXPXPXPXPXPXPXPXPXPXPXPXPXPXPXPXPX",
"PXPXPXPXPX{.{.'.0 0 `.zX~.O O e >XJXbX:X,X,XU HXJXX. . . .~.U ! R I Y R > > v $Xw 6 +.lXiXOXPXPXPXPXPXPXPXPXPXPXPXPXPXPXPXPXPXPX",
"PXPXPXPXPXIX].5X5XY >XNXrX< < !.2XMXbX5X5X5XbXDXJXcX=.X.!.OXE ! T R ! x 0 #X%Xe _ ..>.ZXpXXXPXPXPXPXPXPXPXPXPXPXPXPXPXPXPXPXPXPX",
"PXPXPXPXPXPXUX{.5X:X%X2XmX~.< OXNXNX5X5X5XbXnX5XU ).{.).!.Y Y ! T R / @X=X&Xq +.2.2.-.AXsX|.PXPXPXPXPXPXPXPXPXPXPXPXPXPXPXPXPXPX",
"PXPXPXPXPXPXPXPXOX(.].{.9 OX).2X4X{.0X:X5XnXnXNXMX2X].`.! Q Q T R T W '.i.3 1 2.uX4.;.GXlX XPXPXPXPXPXPXPXPXPXPXPXPXPXPXPXPXPXPX",
"PXPXPXPXPXPXPXPXvXrX].HXOX`.'.4X%X2X=X$X7XnXnXNXMXJXJXNX*X( Q ! R V ; , 1 %.| 2.iX2.;.FXlX XPXPXPXPXPXPXPXPXPXPXPXPXPXPXPXPXPXPX",
"PXPXPXPXPXPXPXPXxXrX(.JXJXnX3X4X`.3X=X@X&XnXnXnXnXnX7X,X&X^ R R R v p : %.$._ /.iX2.!.AXZX}.HXPXPXPXPXPXPXPXPXPXPXPXPXPXPXPXPXPX",
"PXPXPXPXPXPXPXPXxXyXU MXnX9X0X9X%XV @XW V bXnX8X7X0X,X&X@X/ R Z C - = _ %.$.+.V.iXuX;.AXZX!.HXPXPXPXPXPXPXPXPXPXPXPXPXPXPXPXPXPX",
"PXPXPXPXPXPXPXPXkXGX).0XnX9X7X0X0X%X#X@X:XnXnX6X3X,X;X$X^ R V W b = q %.%.2.+.2.iXuX;.GXZX!.cXPXPXPXPXPXPXPXPXPXPXPXPXPXPXPXPXPX",
"PXPXPXPXPXPXPXPXkXFXyX`.8X9X7X3X3X0X,X5X3X7X6X6X,X;X$X^ R Z Z N + 8 $.%.$.5.+.qXpX/.;.SXZXqXzXPXPXPXPXPXPXPXPXPXPXPXPXPXPXPXPXPX",
"PXPXPXPXPXPXPXPXkXZXZX|.#X6X4X4X3X&XW W n T R 4X&X@X/ R Z R b 9 3 +.$.` =.2.$.uXsXuX;.SXZXeXtXPXPXPXPXPXPXPXPXPXPXPXPXPXPXPXPXPX",
"PXPXPXPXPXPXPXPXOXFXZXlX!._.=X-X=X-X9XNX4X;X$X$X$X/ / Z / b 9 B q %.%...5.5.=.iXsXiX:.SXZXeX|.PXPXPXPXPXPXPXPXPXPXPXPXPXPXPXPXPX",
"PXPXPXPXPXPXPXLXkXFXZXsXsXiXu.$X-X-Xv f / ( $X( / R Z R b 9 U (.r ..` } { { | /././.-.ZXAX^.#.PXPXPXPXPXPXPXPXPXPXPXPXPXPXPXPXPX",
"PXPXPXPXPXPXPXHXXXFXlXaXaX/.^.+.Z -X;XI / $X( / R / I z b _.(.U 6 } 9.{ w.*.' N.<.{ #.LX/.<.p.IXPXPXPXPXPXPXPXPXPXPXPXPXPXPXPXPX",
"PXPXPXPXPXPXPXHX-.4.1.,.,.N.D.B.1 B -X3X=X$X( ( / b z v E C (.(.e [ +.-.XX|.[ B.P.B.>./.1.D. XPXPXPXPXPXPXPXPXPXPXPXPXPXPXPXPXPX",
"PXPXPXPXPXPXPXVXZ.gXD.D.B.W.hXwX] } k ;X-X;X/ n x N Z Z C _.C (.9 fXHXPXPXIX}.eXyXqX*.P.gX|.tXPXPXPXPXPXPXPXPXPXPXPXPXPXPXPXPXPX",
"PXPXPXPXPXPXPXvXXXyXrXeXeXXXeXO.5 { &.e R ! ! ! Z W Z Z C i.u._.w zXPXPXPXPXPXHXIXcXZ.CXrXkXPXPXPXPXPXPXPXPXPXPXPXPXPXPXPXPXPXPX",
"PXPXPXPXPXPXPXUXHXHXIXUXPX).o.o.!.XXvXrXW 4X6X6X&XW Z T i.i.E i.C U VXHXIXPXPXPXPXHXyXxXcXPXPXPXPXPXPXPXPXPXPXPXPXPXPXPXPXPXPXPX",
"PXPXPXPXPXPXPXPXPXPXPXPXPXUXUXIXPXPXPX>X@X4X3X6X8X=XW Z C i.i.i._.w e :.;.s. X|.vXPXPXPXPXPXPXPXPXPXPXPXPXPXPXPXPXPXPXPXPXPXPXPX",
"PXPXPXPXPXPXPXPXPXPXPXPXPXIXVXVXkXoX;.e ;X1X4X6X6X,X^ C i.i.i.i.i._.w o.-.-.2.%.o.oXcXIXPXIXPXPXPXPXPXPXPXPXPXPXPXPXPXPXPXPXPXPX",
"PXPXPXPXPXPXPXPXPXPXPXPXIXtXBXrX-.O.q 9 1X1X1X4X3X@XW Z i.i.i.i.i.B u.C.2.-.O.-.!.2.O.).PXIXPXPXIXPXPXPXPXPXPXPXPXPXPXPXPXPXPXPX",
"PXPXPXPXPXPXPXPXPXPXPXPXvXOXKX#.+.9 = R 1X1X1X1X=XW ^ i.i.i.i.E B u.2.-.O.>.;.2.,.-.O.O. XxXUXPXPXPXPXPXPXPXPXPXPXPXPXPXPXPXPXPX",
"PXPXPXPXPXPXPXPXPXIXcXzX.X#.GX>.@ i / -X1X1X1X1X#XQ W i.i._.i.u.}.;.O.O.O.-.O.1 +.,.A.A.4.2.:.rXvXLXPXPXPXPXPXPXPXPXPXPXPXPXPXPX",
"PXPXPXPXPXPXIXHXvXxXhXDXwXoXrX#.$ ~ -X-X$X-X1X1X'.Q i.i.i.B u.qXO.-.;.O.O.o.3 &.S.S.A.A.A.S.4.1.&.!.qXOXPXPXPXPXPXPXPXPXPXPXPXPX",
"PXPXPXPXPXvXvXVXVXCXhXwX9 ).rXqX: ~ -X/ G I 7X2X&XZ i.i.B rX}.-.|.}.O.q q 2 *.A.S.S.A.A.A.A.4.4.3.3.< 2 IXPXPXPXPXPXPXPXPXPXPXPX",
"PXPXPXPXPX>XDXKXCXhXwXg g (.eXyX).G ~ g H D I ~ @Xi.u.).yX}.|.oX(.F : 1 q 1.A.A.A.A.A.A.4.4.4.3.3._ 2 _ IXPXPXPXPXPXPXPXPXPXPXPX",
"PXPXPXPXPXxXBXDXhXCX).s , U w yXoXg a ; - p F D b i.OXBXeXSXoXP F H : w.B.C.C.C.4.4.4.4.<.3.3.3.| _ ] 6 IXPXPXPXPXPXPXPXPXPXPXPX",
"PXPXPXPXPXHXtXDXCXDXwXB d.0 F c ).> = {.<Xj i > 0 OX+Xv {.B 8 f ) - M L.U.P.B.N.N.&.6.<.3.3.3.` 1 ] ,.&.xXPXPXPXPXPXPXPXPXPXPXPX",
"PXPXPXPXPXcX).DXjXhXdXW.J.G F H = F W DX<Xu g ) g ~ F J = w aX>.g 4 L.K.U.F.B.L.B.N.N.{ &.1.$.2 %.N.S.A.}.IXPXPXPXPXPXPXPXPXPXPX",
"PXPXPXPXPXOX XdXdXW.E.R.d.; H ; = ; S <XS y h p % H a H 9 sX}.@.k y.K.L.L.F.L.P.B.B.B.B.B.e.1 &.pXS.C.pX:.xXPXPXPXPXPXPXPXPXPXPX",
"PXPXPXPXUXkXoXJ.R.R.E.R.y.% a q w + j u t y - o #.I , > 9 O.@.H.K.G.G.Y.G.H.L.P.j.B.z.c.G.5 O.hXhXS.S.S.2.oXPXPXPXPXPXPXPXPXPXPX",
"PXPXPXPXvXVXfXJ.E.E.R.gXH.f + P P i t t y > G b Q w : 8 3 a.I.I.L.U.I.U.G.L.L.j.z.z.z.G.[ 6 ZXAXsXpXS.S.V.|.PXPXPXPXPXPXPXPXPXPX",
"PXPXPXPXtXGXVXp.G.E.gXE.L.e.G L K i $ y # g d J L 0 q @.B.M.U.U.U.U.I.U.G.F.F.z.z.z.K.B.1 sXKXFXhXS.V.A.V.>.IXPXPXPXPXPXPXPXPXPX",
"PXPXPXHX).LXFXp.F.gXR.L.K.y.K * @ : i $ ) d 9 > D G 6 G.I.G.Y.Y.Y.K.G.I.j.z.F.c.z.v.U.5 s.LXKXKXSXZ.A.A.iX+.XXPXPXPXPXPXPXPXPXPX",
"PXPXPXXXXXLXFX;.d.gXE.v.L.m s 5 3 F G , L p .XBX>.= > v.I.Y.Y.Y.K.G.K.F.k.j.G.F.G.I.w.q FXLXLXIXhX3.$.....| r HXPXPXPXPXPXPXPXPX",
"PXPXcXXXGXLXZX:.d.gXv.K.Q., r.0.w P s a p & oXBXd.e.# e.Y.Y.Y.Y.G.n.K.c.w.e.K.F.G.H.6 sXIXLXlXaX=._ ] ' ' ' 5 ).PXPXPXPXPXPXPXPX",
"PXIX}.^.lXLXSXC.J.R.v.K.H.a.v.q.@.SXP s >.xXVXp.v.M.G.K.Y.T.Y.v.c.I.K.k.w.w.G.c.K.w.!.FXaX^.-.C.' ' ' @.p.*.&.@.VXPXPXPXPXPXPXPX",
"PXkXd.D.=.^.^.=.dXY.v.K.E.Y.x.b.7 lX].9 AXIXi.v.I.v.I.Y.Y.Y.K.c.v.I.K.k.e.w.F.j.B.] ^.=.*.J.R.d.t.wXBXCXhXiXuXO.).PXPXPXPXPXPXPX"
};
