/* XPM */
static char *zelda_perso2[] = {
/* columns rows colors chars-per-pixel */
"64 64 256 2 ",
"   c #0C0C05",
".  c #12190A",
"X  c #141219",
"o  c #0E1110",
"O  c #311307",
"+  c #16240D",
"@  c #192A13",
"#  c #1E3A1D",
"$  c #1A3419",
"%  c #0C2B0D",
"&  c #233A1C",
"*  c #352F14",
"=  c #1A1629",
"-  c #14132D",
";  c #231E39",
":  c #1D3627",
">  c #2A332D",
",  c #451509",
"<  c #521710",
"1  c #6B1B13",
"2  c #781B16",
"3  c #70150B",
"4  c #4F2A12",
"5  c #732B15",
"6  c #5D3328",
"7  c #17451C",
"8  c #22431C",
"9  c #1B4623",
"0  c #1B552A",
"q  c #224523",
"w  c #224B25",
"e  c #234D2A",
"r  c #2B4B2B",
"t  c #24542B",
"y  c #245B2E",
"u  c #285729",
"i  c #275A31",
"p  c #355032",
"a  c #1C682D",
"s  c #28652D",
"d  c #266331",
"f  c #286A32",
"g  c #2A7835",
"h  c #357B34",
"j  c #33702F",
"k  c #1C7A1D",
"l  c #78481B",
"z  c #4B4C32",
"x  c #705231",
"c  c #4C7035",
"v  c #696A37",
"b  c #615019",
"n  c #282448",
"m  c #312D53",
"M  c #34326C",
"N  c #1E1D42",
"B  c #48375B",
"V  c #453C6B",
"C  c #35654D",
"Z  c #54534D",
"A  c #52704D",
"S  c #6E7153",
"D  c #524C6C",
"F  c #6E6E70",
"G  c #685F60",
"H  c #861D19",
"J  c #9E1D18",
"K  c #91281B",
"L  c #AE3418",
"P  c #8E2821",
"I  c #AA1E18",
"U  c #8B521B",
"Y  c #AA591B",
"T  c #B04D1A",
"R  c #97681A",
"E  c #B9681B",
"W  c #B8781A",
"Q  c #A86B19",
"!  c #90542B",
"~  c #AA5730",
"^  c #976A24",
"/  c #927031",
"(  c #A96827",
")  c #B87926",
"_  c #B16D31",
"`  c #C56916",
"'  c #C7791A",
"]  c #C97710",
"[  c #C27B24",
"{  c #C8703A",
"}  c #C04B17",
"|  c #925248",
" . c #8E6E4D",
".. c #AF714C",
"X. c #917A6A",
"o. c #A36D61",
"O. c #CC7848",
"+. c #E77F49",
"@. c #2C8436",
"#. c #2C8937",
"$. c #338C35",
"%. c #368735",
"&. c #389436",
"*. c #2B9432",
"=. c #36A536",
"-. c #458639",
";. c #479933",
":. c #4C952E",
">. c #58A92D",
",. c #56A733",
"<. c #4BA531",
"1. c #69B333",
"2. c #5B9930",
"3. c #2D9251",
"4. c #36AC5C",
"5. c #4C8F4F",
"6. c #70954F",
"7. c #4FAC4F",
"8. c #72B14C",
"9. c #718B6B",
"0. c #4EB26D",
"q. c #65B76B",
"w. c #5A9E76",
"e. c #B7841B",
"r. c #BA8627",
"t. c #B98735",
"y. c #B18D33",
"u. c #A2882C",
"i. c #CE8B1A",
"p. c #C88729",
"a. c #CB9429",
"s. c #D59729",
"d. c #CA8C34",
"f. c #C68A36",
"g. c #CD933C",
"h. c #CC9637",
"j. c #D39B3C",
"k. c #D49936",
"l. c #D28C26",
"z. c #D9A539",
"x. c #D2A42D",
"c. c #DEAC2B",
"v. c #B89647",
"b. c #B59756",
"n. c #AD8E4F",
"m. c #B8A754",
"M. c #919171",
"N. c #B19571",
"B. c #8FA870",
"V. c #B5A973",
"C. c #8D9354",
"Z. c #CC9846",
"A. c #D29B45",
"S. c #CC9B56",
"D. c #CF8B56",
"F. c #E38D58",
"G. c #CAA648",
"H. c #D4A44C",
"J. c #D9A847",
"K. c #CAA657",
"L. c #D5A958",
"P. c #D9B556",
"I. c #D4B551",
"U. c #E3B44F",
"Y. c #D1966C",
"T. c #EA9C6B",
"R. c #D5AC65",
"E. c #D9B46B",
"W. c #D8B466",
"Q. c #C7B478",
"!. c #D9B876",
"~. c #CCAB6D",
"^. c #E8AF72",
"/. c #95C375",
"(. c #83C050",
"). c #E9C357",
"_. c #DAC472",
"`. c #E8C865",
"'. c #E8C977",
"]. c #F6D777",
"[. c #EBD373",
"{. c #F3D870",
"}. c #2E358A",
"|. c #4A3D87",
" X c #255D91",
".X c #564B8B",
"XX c #675791",
"oX c #736E8D",
"OX c #5A62A2",
"+X c #8679AA",
"@X c #85798F",
"#X c #53B791",
"$X c #6EB98C",
"%X c #6EA5A3",
"&X c #77C4AA",
"*X c #55A8B9",
"=X c #98999B",
"-X c #898C8F",
";X c #AD9C8D",
":X c #95AE93",
">X c #B5AB8E",
",X c #9593AA",
"<X c #9BA8AC",
"1X c #A7A6A8",
"2X c #ABADB1",
"3X c #B6B6B9",
"4X c #B3B2AE",
"5X c #A29DA1",
"6X c #D1B38D",
"7X c #EBB488",
"8X c #C7BAAD",
"9X c #A9C79F",
"0X c #DBC687",
"qX c #D8C895",
"wX c #D2CF93",
"eX c #ECD18E",
"rX c #FBE38E",
"tX c #D1CEB2",
"yX c #F6D9B7",
"uX c #EED2AE",
"iX c #F9E8B9",
"pX c #F6EBAF",
"aX c #D8E5B4",
"sX c #BABCC4",
"dX c #B0B2CB",
"fX c #939CC8",
"gX c #C5B9D5",
"hX c #83C6CA",
"jX c #B9C4C7",
"kX c #B8C9D5",
"lX c #AAC8E1",
"zX c #C7C8C9",
"xX c #D9D8C9",
"cX c #D6D8D9",
"vX c #CCD0D2",
"bX c #F7DEC3",
"nX c #E5DED5",
"mX c #D7E8D3",
"MX c #FCE6C8",
"NX c #E6E7DA",
"BX c #FEEDD3",
"VX c #F4E8D5",
"CX c #FFF3DA",
"ZX c #FDF3D6",
"AX c #F6EFC7",
"SX c #D4D8E5",
"DX c #D8E5E9",
"FX c #DAEBF5",
"GX c #DDF1F2",
"HX c #E9EAE8",
"JX c #E4F3FC",
"KX c #EBF5FC",
"LX c #E9F6F9",
"PX c #FDFEFD",
"IX c #F6F9F8",
"UX c #EFEEED",
/* pixels */
"T E ' d.[ E E [ p.f.g.d.d.[ f.f.) ) Z.f.A.g.j.A.L.n.S z & & w w s j u r y g @.g g @.$.<.>.6.~.U.A.p.A.l.] ` l.) E ( ( E E ` L J ",
"T ' l.g.) E [ d.p.g.f.d.d.[ ) f.f.g.Z.f.f.g.g.R.S & @ + @ + & & t y g j u e y f g g &.:.1.8.6.~.^.J.d.` ` p.' ` [ E Y E E T } L ",
"T ' p.Z.f.[ d.g.f.Z.f.g.d.t.f.f.t.g.d.g.f.A.!.S % 8 # $ @ @ + & t f h ;.<.c & 0 f g &.<.>.1.(.1.Q.P.a.` T [ ' E E [ Y T T T L L ",
"Y [ p.j.l.j.j.g.A.A.Z.g.g.g.p.) f.Z.A.Z.R.~.A  .z $ * * / '.z 7 0 a %.;.:.>.2.u w s @.;.>.>.1.(.6.~.J.p.p.p.l.p.[ [ ' T ` ` J J ",
"E W [ l.h.j.k.d.k.d.f.Z.g.g.p.p.m.C.Q.Q.N.6 C.eXK.^ x.p.U.{.eX/ v v c h 2.;.<.,.h w g $.;.<.>.1.1.6.E.H.a.[ d.l.p.[ ' ' T } J I ",
"Y T Y l.k.J.h.p.[ p.p.p.p.[ [ b.m.m.V.Q./ u._.'.).J.U.t.).].rX].)._._.v.`.I.2.>.1.:.s @.$.;.<.<.>.>.9.E.g.f.) [ l.l.' ] } H J L ",
"T T ' s.s.j.A.h.p.f.p.p.p.r.S.n.y.m.V.m.v.Q.0XP.).`.G.G.P.rXrXrX].`.].rXI.).E.C.:.1.2.f @.&.&.;.&.<.$.b.H.p.E ` [ [ ` ` T P H I ",
"! E d.s.l.f.A.g.a.f.f.d.f.K.n.u.y.V.m.m.V._._.G.[.`.L.y.G.].].rX].[.].].{.{.`.[.C.:.,.:.%.#.*.$.$.$.*.-.K.s.' [ s.i.' ` T J J I ",
"Y ) p.A.d.d.g.k.d.p.f.p.f.V.u.u.C.V.m.6XV.aXn.G._.Q `.v.y.`.[.`.rXrX[.{.rX].].rXpXB.;.<.-.@.$.#.#.#.#.g C.z.i.W [ i.] T T L J J ",
"E [ [ g.H.J.A.g.p.p.) [ S./ R ^ m.m.Q._.I.eXy.[.~.U G.L.R G.rX`.rXpXaXpXpXAXiXiXpXAXB.g %.%.#.#.#.#.@.a -.h.i.W ` ` ` ` T T L L ",
"T [ p.g.J.H.J.J.k.p.p.d.m.b u./ m.v.~.K._.P.x.[.v.Q r.I.R t.].'.rXpXpXeXwXpXAXpXpXaXiXv y h @.@.#.#.@.g a C.x.e.' ` ] i.] T T T ",
"E ' ' p.j.J.H.Z.Z.Z.d.K.N.9.u.R v.y.I.v.I.I.G.P.r.E l.A.t._ U.'.rXpXpXeXrX[.pXpXpX[.AX_.8 u g #.@.#.#.*.@.6._.x.s.i.i.s.s.' ` T ",
"_ d.p.f.d.j.J.H.j.[ Z.Q.:XV.^ ^ y.y.G.y.G.m.n.G.Z.F.T.T.7XA.k.{.[.rX[.pX).eX0XpXpXpXeXiXv 0 s @.a *.*.*.*.*.>XI.x.z.z.z.s.] ` N.",
"W p.d.d.Z.A.k.I.L.g.S.M.tX>XR ^ u.) f.h.t._ ..f.F.^.7XuXyXL.r.W.`.eXU.rX[.`.wXeXpXpXwXpXV.0 y f g &.@.*.*.=.9X[.I.P.G.x.s.] N.vX",
"E p.p.p.H.J.g.H.L.Z.Q.;X8XB.^ R r.u.r.x._ ! _ D.T.eXuXyXbX^._ J.).`.I.`.rXz.[.wXrXpXiXpXwXs u t g g g =.7.0.$XaXwX_.I.z.l.n.vXJX",
"[ d.Z.A.g.a.k.H.A.A.Q.>X~ x u.x u.) e.a.) ( D.T.7XuXyXyXMXW.S.A.).J.G.c.`.).m.rXwXpXAXAXpXc 0 t f #.*.4.0.#X#XkXaXwXG.x.b.gXJXKX",
"{ g.Z.Z.S.j.k.H.L.S.Q.;XD.../ ! W W e.k.R ) Y.7X7XyXbXMXiX^.7XZ.U.h.t.x.P.`.`.m.iXaXVXZXiXB.9 9 s 3.3.4.#X*X#XkXmXwXP.b.jXGXJXJX",
"( g.A.H.A.S.R.E.K.S.!.6X6XY./ / e.e.r.x.E _ f.7X7XuXBXBXyXqXbXZ.i.k...Q I.x.rXV.wXmXHXCXnXV.p 9 f #.3.4.#X#X#XhXmXaX:X3XFXJXJXKX",
"Y h.A.f.Z.S.L.R.R.E.E.qX;X6X../ r.W W x.~ ~ _ S.uXyXBXBXbXaXBXS.e.z.L.Y x.x.wXaX9XmXHXNXAX9.v 9 d 3.4.4.0.4.0.%XmXjX9XFXJXGXJXJX",
"( f.Z.g.S.S.S.R.E.^.E.!.6XN.^.| e.) R f./  . ._ O.yXbXVXbXVXBX~.e.0XeXt.e.x.I.pXwXmXmXaXmXA r i y a #.3.4.=.=.w.jX2XDXJXJXJXJXJX",
"( Z.Z.Z.S.S.R.!.E.W.!.R.!.;XD._ Q i.U a._ ;XfX6 U D.uXBXZXBXBX6Xt.MXuX^._ r.m.wXaXaXUXaXtXA 7 7 7 0 0 k *.@.*.5.1XDXJXJXJXJXJXJX",
") Z.S.S.S.K.R.E.!.E.E.!.!.6X6X_ ~ W U ( { N.FXOXZ { T.CXbXuXBX>XQ.eXS.d.E u.y.W._.wXpXwX_. .p S S 9.9.5.3.g g :XDXKXJXJXJXJXJXJX",
") Z.S.S.K.R.W.E.R.!.!.!.!.!.tX>X..! E U _ ..2XlXkXO.F.MXuXY.D.../ ! U l L ) u.I.I._.eX_.S.uXnXuXyX8XY.uXtX0 -XDXLXKXJXKXJXJXJXvX",
"p.A.L.L.R.K.W.!.E.E.!.!.!.qXeXxXY._ ^ ^ ! D.6X6X7XF.7XBXVXuX^.D.;XfXn M -Xx ( j.y.y.P._.v.O.6XY.~.bX7XyXA F mXKXKXKXJXKXKXJXcXFX",
"Z.A.L.L.H.H.P.!.!.!.!.!.!.7XqXqXGXN.Y R { Y.xXuXT.T.nXCXBXCXVXMXPXDXfXhXsX_ _ E f.R s.U.{ Y.uXyXuXCXnXA F cXKXKXKXKXKXKXKXcXSX>X",
"g.H.H.L.L.I.W.R.!.!.!.~.!.0XwXtXtXn.Q Q _ Y.uXbX7X7XBXCXCXCXBXBXVXxXzXtXN.F._ p.( _ E P.S.D.7XbXMX>Xu A zXKXKXKXKXKXJXKXSXkX;X] ",
"j.L.W.R.W.W.E.K.E.!.Q.!.0XqXwXtXtXm.i.e.~ F.7XuX6XbXBXBXCXCXVXyXbXbXyX7X^.Y.W p.^ { ~ K.qXY.T.n.z % C jXGXGXGXJXJXGXJXDXjX;Xi.s.",
"A.L.W.W.R.W.W.R.E.!.!.qXqXwXtXmXDXx.i.i.( O.Y.Y.7XBXVXCXCXCXCXCXCXCXBXbX~.x.a.W ! ~ Y.Y.6XX.* % % A 3XDXFXFXGXJXJXKXDXkX=Xi.s.s.",
"g.L.L.L.W.E.E.R.W.!.7X0XwXtXaXmXxXb.x.x.u.O.T.T.O.7XbXbXVXVXCXCXBXVXxX6Xb.`.).e.Q F F A p Z & 8 i 3XSXHXHXLXLXLXIXUXSX4Xe.s.i.i.",
"t.H.S.L.K.R.E.W.E.!.Q.0XwXtXmXDXDXV.U.P.v.S F.T.F.O.7X7XVXVXBXBXBXBXBXqXK.].`.c.R  X Xg & @ r & 5XvXcXDXDXFXHXJXHXgXsXv.c.J.k.[ ",
"g.L.L.W.E.K.W.P.R.R.K.6XwXaXmXmXFXwX`.n.x +  .T.O.T.7XbXMXVXVXBXVXBXMX~.R.rX`.e.! .X X9 q & # %X2XjXjXkXvXSXDXSXsXdXZ.z.J.z.L.j.",
"H.L.W.E.W.L.E.K.K.~.~.qXxXmXNXLXDX>XS p > $ + D.+.O.uXuXbXbXbXVXbXMXyX>X0XrXG.^ N.A 7 + & & F 2X3X3XjXzXvXcXcXjX3XV.c.z.J.J.J.s.",
"A.J.P.W.E.!.0XW.E.R.0XqXF p z Z 9.j 9 e q # $ * +.+.7XuXbXuX7XMXBXVX;Xo.yX6X .X.>Xx X @ @ F 3X3X3X8XzXvXvXcXvXzX8X'.P.A.J.z.J.s.",
"k.L.W.W.!.E.E.!.E.eXM.q + @ 9 s j f d t t t q . 6 +.{ 7XbXMXBXCX8XN.T.7XuX;X;X>X8XA % & F 8X3X4X3XsXzXzXcXzX3XzXMXuX0XL.z.J.J.c.",
"H.L.W.E.W.W.!.R.7XM.$ 8 j h -.%.j d d d y e # + 4 ..7XbXbXyX6X..O.7XT.Y.8XcXHXnX3X% F 2XsX4X3XsXsXvX3XzX3X2XjXUXVXyXqX'.^.U.^.J.",
"Z.L.R.L.K.K.R.Q.9.% 8 c j 8 & @ @ @ 9 g y w @ Z ;XX.| O.| ~ L E 7X7X7XsXHXIXPXUXt Z 3X2X2X5XvXPXzX1X2XdX=X:XaXHXVXyX0X^.J.s.U.U.",
"f.H.S.K.L.L.!.B.9 9 q # $ # # # $ & @ g f # r nXxX;XX.5 2 ~ tXnXUXPXPXHXnXPXPXG C 5X<X<X<X,X3XDX2X<X<XhX2XQ.a._.NXyX'.k.i.i.J.z.",
"t.L.L.L.Z.W.V.0 # 9 9 w e w q e e e @ i i & # z 8XxX>X( K | PXPXHX8X8XnXPXIX4Xp =X,X=X=X=X-X=X=X=X1XdX<X<XwXv u._.uX^.s.i.c.z.c.",
"g.L.E.L.A.7X5.$ q 9 e t w q 9 e i f e 8 t # + z N.4XzX>XL ~ CX@X6 X.8XPXIXaXF -X1X:X=X=X5X5X5X1X2X2XjXkX:XaXC.l Q Q.W.l.i.s.U.J.",
"g.W.R.L.S.Q.r # q w e # 9 e e y f g g 9 w $ z 8XHXtX4X1X! | xXzX4X4XHXUXtX-Xp 1X1X5X5X2X1X1X1X2X3X3XvXM.F C.`.x U u.!.s.l.c.U.U.",
"f.S.L.A.W.M.+ 8 w i # + q t i f f @.g 9 e a :XDXPXHX8XvX>X8X8XHX8XnXPXUX3Xt 1X1X1X1X1X1X2X2X4X3X3XvX .5 x O u.y.U ^ v.P.a.c.J.z.",
"Z.H.L.Z.!.S + u y y $ @ t f f g g g c g f 3.hXjXcXxXnX8X8XxXxX8X8XIXPXNXt 1XvX1X5X5X1X1X1X2X2X3XvXX.5 1 1 5 < G./ ^ / V.J.z.z.x.",
"k.L.P.L.Q.Z $ y f e $ # f g g g g 2.;.#.g 3.*XSXXX,X1X8X8X8XzXHXPXPXcXp :XIXvX2X=X=X;X1X1X4XsXsX@XK K 5 < 4 O U I.l ^ n.!.U.c.l.",
"g.L.E.^.9X9 t y u 8 @ w g g @.@.g 5.;.#.f p OXgXV gXV dX,X8XzXVXHX4Xr :XPXKXDXdX=X5X1X1X3XSXX.6 4 1 < , , O O O y.n.U U V.W.J.s.",
"A.A.R.qX9.7 w t e & $ s @.@.$.#.$.%.%.#.f : oX+XD ,XB gXm tX4X8XF % -XPXPXIXSXdX=X=X1XjXLX:X* , , , , * O O O O l m. .3  .wXx.i.",
"j.L.!.V.# t t y e 9 q j %.%.$.&.&.&.h $.g # XX.XD .XD +XZ 8XM.p 7 9.PXPXPXIXFXdX1X1X3XIXhX0.c * u s j @.@.g u O , ^ n.x x >Xz.a.",
"g.U.V.p e e s d w y e %.%.$.;.;.;.&.&.%.#.9 XXV D m XXXX> A 9 7 5.cXGXKXJXSXdX,X@X1XPX=XC 4.5.@.$.*.&.=.7.#X0.C z U l o.M.V.J.s.",
"L.Q.i e t y d t s s u @.%.&.;.;.:.:.;.$.$.w .Xm M n D V $ g a c 4XdXdXlXdX<X%XoX=XPX;X& g a <.$.&.%.%.7.0.&X*X#Xj U ! / V.H.z.l.",
"~.p 0 e w t i y f y j %.%.$.;.:.,.;.;.=.%.q V n V m M M m ,X6.-X%XoX-X,X-XdX-X-XIX4X8 g g u c :.$.:.<.q.$XhXhXhX4.5.V.I.c.s.z.a.",
"A 7 e & e y d d f 9 c g %.%.;.<.<.:.:.;.%.q ; = ; = n n n |.@X@XG m.b.F F oX-XHXjXu #.$.*.$.@.-.:.<.>.q.$X&XhX&X&Xw.~.s.a.l.s.i.",
"t e & w i y i d y # c g g h ;.;.:.,.<.;.%.s = - X o o = n M +XgX .x./ D F oXvXzXs *.&.$.&.;.%.c ;.>.>.8.q.$X&X$X$Xq.N.J.J.s.i.s.",
"e q 8 y y e y d q $ c g f j %.&.;.;.:.;.&.g A G X X ; M +X+X+X+XOXZ Z G oX2XsX%.*.&.&.*.$.%.;.>.>.1.>.1.8.8.q.q.q.q.B.E.L.P.z.s.",
"w # u d t e d w @ @ & s f d h &.;.:.:.;.%.v D.N.X.- }.XXgXSXXX.X.XM D F +X8X5.*.*.&.&.&.h -.,.1.8.(.(.1.1.1.1.1.7.q.:X!.L.H.J.l.",
"# q s t 8 y w . @ . + 8 i y f $.$.-.$.h l F.^.uXZX4X|.OXfXfXXX|.M m N D @XfX5.=.&.&.*.j -.,.>.8././.(.1.1.>.>.>.7.q.B.!.J.Z.H.l.",
"& s i w # # . $ *   . & : e i @.%.$.j ! _ ( +.yXiXiX .B |.XX|.}.n n = n OXOX; k @.5.9.vXzXp <.(./.9X/.(.>.>.>.>.2.7.B.!.J.A.L.j.",
"& j y & @ . 9 q . .   + + # q g %.@.x 7XyXqX* | ZXo.3 H 2 }.}.}.; - X ; |.XXF -X4XsX5XD = M M.6.9X9X(.1.>.>.2.;.:.,.B.!.J.j.j.z.",
"u h d t # w e $ & .   . + . $ # d 0 x 7XbXMXyXZ x H H H J B  X}.; o     ; V F D B n m oX3XgXXX- 8./.1.>.<.;.;.%.%.<.6.R.k.j.k.s.",
"-.%.f d y t 8 # @     + +   + & 4 O O ..yXMXyX| < , H H H | +X Xn o     X N V oX+X,X,XoXm X - }.@X6.>.<.;.&.&.%.@.$.S U.l.k.z.s.",
":.:.f f d e w # @   . . @ @ . ! ..P o.6 ..iX| H P 2 < H H P | o.n X X     = ; n N - - N D ,XSXSXfXn -.<.;.&.$.@.%.a S J.j.l.s.J.",
"C.j a f 0 9 $ +     $ + & @ 6 ~ ~ ^.yXbX .( H H P P 1 1 H H H K > i m > X = n V XX,XdXdXdX+XOX X}.m ;.&.&.$.@.@.g e n.i.J.A.z.z.",
"UX;Xc C z 4 z z Z Z w @ @ 4 U K 2 6XMXbXo.6 < H P H P 2 2 H H 2 4 %.<.&.> = = m V B ; = - :  X*X$X7.<.*.g #.#.g 9  .U.k.j.J.k.k.",
"PXVXtX8XV. ./ v UXzXw + * H 2 ~ O.P uX| H P < < H H P J 2 2 1 1 5 b =.@.i @ @ X o + 7 s @.&.7.q.0.=.&.*.@.@.f 9 z R.j.j.A.J.z.k.",
"IXVXtXV.n./ x >XZXxX$ . 1 1 5 7XbX8XG 1 H H P < < H H P H H < b l  .g t : # & q t & q d d t f =.&.$.#.#.f e 9 p V.J.j.d.l.z.z.z.",
"UXnXtXN.y.C.6X'.0XuX> , < 1 3 Y.bXuX| < 2 2 H H < 1 2 2 2 1 5 l o.6Xq q $ @ @ d t $ & 9 9 # f #.*.#.#.f 0 t 0 S U.d.g.F.k.k.J.z."
};
