/* XPM */
static char *bloc_mario2[] = {
/* columns rows colors chars-per-pixel */
"64 64 71 1 ",
"  c #150E08",
". c #1A120B",
"X c #23150D",
"o c #23180F",
"O c #261C11",
"+ c #281D12",
"@ c #2E2114",
"# c #352416",
"$ c #392516",
"% c #382718",
"& c #3B2919",
"* c #452616",
"= c #492715",
"- c #4C2816",
"; c #4E2B18",
": c #512B17",
"> c #502B19",
", c #5B2F1A",
"< c #5C301B",
"1 c #443120",
"2 c #4C3722",
"3 c #4F3924",
"4 c #493F2B",
"5 c #533A25",
"6 c #6F3A21",
"7 c #713B21",
"8 c #4B412D",
"9 c #4F4430",
"0 c #864627",
"q c #874929",
"w c #8F4A2A",
"e c #914C2B",
"r c #94512E",
"t c #9E532E",
"y c #995430",
"u c #9B5B35",
"i c #A05F37",
"p c #AB5931",
"a c #B65F35",
"s c #B76035",
"d c #BB6136",
"f c #BC6238",
"g c #B86A3E",
"h c #C2673A",
"j c #C46B3D",
"k c #C96B3B",
"l c #DF753F",
"z c #E0753F",
"x c #B47B4F",
"c c #B47E52",
"v c #BB7F52",
"b c #C76F40",
"n c #C67041",
"m c #C97242",
"M c #DF7540",
"N c #E27641",
"B c #DD834D",
"V c #C48D5D",
"C c #D68855",
"Z c #D98A56",
"A c #DC8E59",
"S c #DD935D",
"D c #E0854E",
"F c #FF9557",
"G c #FF9658",
"H c #EC9F67",
"J c #ECA066",
"K c #EAA66B",
"L c #EBA96E",
"P c #FEB677",
"I c None",
/* pixels */
"InFFFFFFFFFFFFFFFNHFFFFFFGGGGPIIIInFFFFFFFFFFFGGGGGGFFFGGGFFFFPI",
",rjjbjhbbfbbxfhfjjmmjjgjjggbbNS915rbbxjhjbjjjjgbbjgbjbbggbbbbgvL",
";7ewweewwwewweeeeeeeeeeeeeeeefj$#>6eweeeeeeeeeeeeeeeeeeeeeeeeehN",
";7eeeeeeweeeeeeeeeeeeeeeeeeeefk$+*7reeeeeeeeeeeeeeeeeeerreererfN",
"-7eeteteeeeeeeeeeeeeeeeeeeeeefk$+>7eeeeeeeerreeeeeeeeeeeeeeerefN",
":7eeeeeeeeeteeeeeeeeeeeeeeeeefj$+>7eeeeeeeeeeeeeeeeereeeeereeefN",
"-7eeeeeeeeeeeeeeeeeeeeeeeeeeefj$+*7eeeeeeereeeeeeeeeeeeeeeeeeefN",
"-7eeeeeeeeeeeeeeteeeeeeeeeerefj$+>7eeeeeeeeeeereeeeeeeerereeeesN",
">7teeeeeeeeerereeeeeereeeeeeefk#+*7reeeeeeeeeeeeeeeyeeyeeeeeeefN",
">7eeeeeeeeeeeeeeereeeeteeeeeefk#+*7eeeeeeeeeeeeeeeeeeeeeeeeeeefN",
">7eeeeeeeeeeeeeeeeeeeeeeeeeeefk#+-7eeeeeeeeeeeeeeeeeeeeeeeeeeesN",
">7eeeeeeeereeeeeeeeeeeeeeeeeefk#+-7reeeeeteeeeeteeeeeeeeeyeeeesN",
"-7eeeeeeeeeeeteeteeeeeeeeeeeefh#+-7reeeeeeeeeeeeeeeyeeeeeeeeeesN",
">7eeeeeeeeeeeeeeeeeeeeeeeeeeefk#+*7eeeeeeeeeeeeeeeeeeeeeeeeeeesN",
":7eeeteeeeeeeeeeeeeeeeeeeeeeefk#+*7eeeeeeeeeeeeeeeeeeeeeeeeeeesN",
":7eeeeeeeeeteeeeeeeeeeeteeeeefk#+-7reeteeeteeeeeeeeeeeeeeeeeeesN",
">7eeeeeeeeeeeeeeeeeeeeereeeeefj#+>7eeeeeeeeeeeeeeeyeeeeeeeeeeefN",
":7eeeetreeeerreereeeeeereereefb%+*7erreeeereeeeeeeeeeeeeeererefN",
"*<766666666666666666666666666qw@+*<6666666666666667766666666660p",
"I*****************************@OO+$***&1*******1*******1******2I",
"I.O+X+++++++O+++@OOOO+++++++OOOOOOOOOOOO++++OO++++++++++++++O+%I",
"I+$&$&&&&&&&&#++OO@1%%&&&&&&&&&1%&&&11%%&&&&&1OO++@1&&%4&&&&%14I",
"IxNAANNANADDNV4+O@uNANNANAANvANNANNNNNSNSNNNNV8O+#iNNNNNANNAANLI",
"<embmbbbnnnnmSv@+1rmmnnmbmmbmMbbmmmvbmmmmmmvvNx@+>ybvmvmmmnmmmAL",
":7eeeeeeeeeewak$+*7reeeeeeeweeeereeeeeeeeeeeefh#+>7eeeeerweewwsN",
":7eeeeeeeeeeedk*+*6reeeeeeeeeeeeeeeeeeeeeeeeefh#+>7eeeeeeweeeesN",
":7eeeeeeeeeeedk$+*6eeeeteeeeeeeeeeereeeeeereefh#+*7reeeereeeewsN",
":7eeeeeeeeeeeak$+*7reeeeeeeeteeeeeeeeeeeeeeeefh#@*7eereeweereesN",
":7eeeeereeeeefk$+*7eeeeeeeeeeeeeeeeeeeeeeeeeefh#+-7eeeeeeeeeeesN",
":7eeeeeeeeeeefk$+-7eeeeeeeeeeeeeererereeeeeeefh#+-7eeereeeeeeesN",
"-7eeeeeeeeeeedk$+*6eeeeeeeeeeeeeereeeeeeeeeeefh#+>7eeeeeeeeeeesN",
":7eeeeeeeeteeak$+*7eeeereeeeeteeeeeeeeeeeeeeefh#+*7treeeeeeeeesN",
":7eeeeeweeeeedk#+=7eeeereeeeeeeeeeereeeeeeeeehh#+*7eeeeeeeeeeefN",
":7eewwweeweeedk&+-7eeeeeeeerreeeeeeeeeeeeeeeefh#+-7eeeereeeeeeaN",
":7eeewewweewedk$+=6eeeeeeeeeeeereeeeeeeeeeeyefh#+>7teeeeteeeeeaN",
":7eweewwewweedk#+*7teeeereeeeeeeeeeeyeeeeeeeefh#+*7ereeeeeeeeeaN",
"-7eweweewewewdh#O*7eeeeeeeeeeeeeeeeteeeeeeeeefj#+-7eeeeeeeeeeeaN",
"-7eeweewweeewdk#O=7eeeeeeeeereeeeeeeeeeeeeeeeff#+-7teeereeeeeeaM",
":7eweewewewewdh$o=7eeeeeeeeeeeeeeeeeeeeeeeeeeff#+*7eeeeeeeeeeeaM",
":7eeeeeeeeeeefk$O=7eeeeeeeeeeeeeeeeeeyeeeeeeefj#+-7ereeeeeeeeeaN",
"=,66666666676ww#O*,66666666666677777666666666qq@O*<767777777770p",
"I**==*********+Ooo$*=**=**=**********1*******1@OO+&******-****>I",
"I.OOOOOOOOOOOOXOoo++++OOOOOOO+++++++OOOO++@+OOOOOOOO++OO+++++@1I",
"I+#$$$$$$$$$$$$$$$$$##$#%%%@%@oOOX#$%%%1%%%%%%%&%%%%%&&&$$$$&&4I",
"IgBBMBBBBBBBBBBBBBBBDDBBZBBBBV<XO#iNNvNNNvNNSNNCBBBBNCBBCCZNNALI",
",ymbmmmmmkmmbmmkbmmmmmmkkkkBkSc+O>ymvNmbvMbbmmmmmmmmbbmmmmmmmmSL",
":7ewwwewwwwweewwwwwwwwewwwwwwdk#O*7ereeereewrrqewwwwweeeeewewwaM",
"-7eeweeeweeeweweeeeeweeeewwwwdh#O*7eeeeeeeeerqeeeewweeeeweeeewaM",
"-7eeeeweweewweewewweeweweewewdh$X-7eweeweeeweeweeeeeeweeweeeewaz",
"-7eeweeeewweewweweewweewwewewdk#+-7eeewewweeeweeeweweweeeeeeeeaz",
"-7eeweeeeewwweeeeweweeeeeeewwdh$+-7wweweeeweeeewweweeewewwewewaz",
":7eeeewwweweeewewweeewwewweewdh#X-7eeweewweeeewwewweweeeeeeewwaz",
"-7eeweeeeeeweeweeweweeewewewwhh$+=7wweeweweweweweweweweweeewewaz",
":7eeewwewweeweeeeeeeweweeeewwah#+-7wewweweewwewwweeweewewweewwaz",
":7eweeweewweewweewweeeeeeeeewah$+=7eeeweeewewweweeeewewwewwewwal",
":6ewwwewweeeweewweeeewweewwewhh$+=7eeweewweweweeewweeweeeeewwwal",
";7wwwweweweweeewwewwewewewweedh#+=7eweewweweeeweweewweweweewewaz",
";7rrwwwwweweewweeeeeeeweeeeewdh#X=7eewweeeeweeeeeweeewewwewewwaz",
"=7wwwwweweweewewewwewewwweewwdh#+=7wweeeewweeewwewweewweeewwwwaz",
":7wrwweeewwwwewewweweeeeweewwdh#+=7weeweweeweeeeeeeeweewweeewwaz",
"=7wwwweewwwweeewwewwewwweewewdh#X=7weeweweweeewweweweewewewewwaz",
":7rwwweeewwweeeeeweeeeeweeeeedh#X-7weeeeeweeeeeweeeeeeeeeeeeeeaz",
"=,777777777677777777777777776wtX =,6667777777777777777766766660p",
"I==============-============-:IIII*=----===========-=====-====:I"
};
