/* XPM */
static char *coin_mario[] = {
/* columns rows colors chars-per-pixel */
"64 64 245 2 ",
"   c #5E3B10",
".  c #733F07",
"X  c #794305",
"o  c #7C4C04",
"O  c #76420A",
"+  c #7C4B0B",
"@  c #764406",
"#  c #774B16",
"$  c #6E4813",
"%  c #734E23",
"&  c #844C06",
"*  c #834B09",
"=  c #864A08",
"-  c #87530A",
";  c #94580A",
":  c #875A15",
">  c #965E11",
",  c #9D640B",
"<  c #94600B",
"1  c #9D6614",
"2  c #9E791B",
"3  c #8C6210",
"4  c #A8690A",
"5  c #AD770C",
"6  c #BB7D03",
"7  c #BC7C0B",
"8  c #B4770B",
"9  c #A46C15",
"0  c #A46712",
"q  c #AB7616",
"w  c #B77C18",
"e  c #987029",
"r  c #A97D26",
"t  c #C27D04",
"y  c #C87D0A",
"u  c #BC8104",
"i  c #BC820C",
"p  c #BA870C",
"a  c #AE8117",
"s  c #B58315",
"d  c #BC8E1B",
"f  c #B98817",
"g  c #BE9319",
"h  c #B88926",
"j  c #B4912A",
"k  c #B6933A",
"l  c #AB892D",
"z  c #C58504",
"x  c #CA8504",
"c  c #C68A05",
"v  c #CC8B04",
"b  c #C3840A",
"n  c #CB8509",
"m  c #C58A0B",
"M  c #CC8B0A",
"N  c #D18604",
"B  c #D38D04",
"V  c #D98C03",
"C  c #D38C0A",
"Z  c #D88D09",
"A  c #D1830B",
"S  c #CD9106",
"D  c #CD920B",
"F  c #CC980A",
"G  c #D49205",
"H  c #DA9404",
"J  c #D59B06",
"K  c #DC9B05",
"L  c #D4930B",
"P  c #DA950A",
"I  c #D59A0C",
"U  c #DB9B0C",
"Y  c #C38B13",
"T  c #CB8C12",
"R  c #C78616",
"E  c #D38D12",
"W  c #D38915",
"Q  c #CD9D1A",
"!  c #CA9615",
"~  c #D49413",
"^  c #DA9514",
"/  c #D49A12",
"(  c #DB9C13",
")  c #D4941B",
"_  c #D49D1B",
"`  c #DA9D1A",
"'  c #DA961E",
"]  c #E19504",
"[  c #E29D05",
"{  c #E29E0B",
"}  c #E89808",
"|  c #E29E12",
" . c #E59D1A",
".. c #DEA105",
"X. c #D5A20D",
"o. c #DEA30C",
"O. c #DDAB0B",
"+. c #DEB00C",
"@. c #CEA11C",
"#. c #D4A114",
"$. c #DCA214",
"%. c #DDAA12",
"&. c #D4A41B",
"*. c #DCA41B",
"=. c #DDAB1C",
"-. c #D5AB19",
";. c #DDB315",
":. c #D8B41A",
">. c #E4A305",
",. c #E9A405",
"<. c #EAAA05",
"1. c #E4A30B",
"2. c #E9A40B",
"3. c #E4AB0C",
"4. c #E9AB0D",
"5. c #E7AA07",
"6. c #F1A40A",
"7. c #E5B20C",
"8. c #E3A514",
"9. c #EAA413",
"0. c #E4AB14",
"q. c #EAAB13",
"w. c #E3A51B",
"e. c #E4AB1B",
"r. c #E9AE1C",
"t. c #E9A41D",
"y. c #F0AA18",
"u. c #E3B115",
"i. c #E5B11C",
"p. c #E9B11D",
"a. c #E9B91B",
"s. c #E8B618",
"d. c #F1B01A",
"f. c #C68922",
"g. c #C29024",
"h. c #CA9926",
"j. c #D59827",
"k. c #C79A32",
"l. c #C38D3A",
"z. c #E09D21",
"x. c #CEA425",
"c. c #DCA323",
"v. c #D4AC23",
"b. c #DCAC24",
"n. c #D4A52B",
"m. c #DDA52B",
"M. c #D4AC2C",
"N. c #DCAC2B",
"B. c #D4A321",
"V. c #D9B429",
"C. c #C9A539",
"Z. c #D3AA34",
"A. c #D4A43D",
"S. c #D8A837",
"D. c #DCB334",
"F. c #D9B63A",
"G. c #CEB123",
"H. c #E3A623",
"J. c #E9A623",
"K. c #E4AC22",
"L. c #E9AE22",
"P. c #E4AD2A",
"I. c #EAAD2A",
"U. c #ECA62A",
"Y. c #E6B323",
"T. c #EAB323",
"R. c #E3BA24",
"E. c #EBB923",
"W. c #E5B52B",
"Q. c #EBB52A",
"!. c #E4B92C",
"~. c #ECBA2B",
"^. c #F1BC2C",
"/. c #F1B425",
"(. c #E2AD32",
"). c #E2A73C",
"_. c #E5B433",
"`. c #EBB433",
"'. c #E4B934",
"]. c #EDBC33",
"[. c #E4BC3C",
"{. c #EDB83A",
"}. c #F1BC32",
"|. c #F0AF2A",
" X c #E8C337",
".X c #F4C432",
"XX c #F3CB3C",
"oX c #F9CA3C",
"OX c #F5C63A",
"+X c #F4C02F",
"@X c #C8A746",
"#X c #D8A942",
"$X c #DCB947",
"%X c #D5AF59",
"&X c #E3BB42",
"*X c #E5BB48",
"=X c #E5B751",
"-X c #D3B769",
";X c #E3BC69",
":X c #DFC54D",
">X c #DFC454",
",X c #ECC344",
"<X c #E9C24C",
"1X c #E6C349",
"2X c #F3C543",
"3X c #FBCC44",
"4X c #F5CB47",
"5X c #F4D44C",
"6X c #FCD34B",
"7X c #FCD94B",
"8X c #F5D347",
"9X c #E8C759",
"0X c #F5CE52",
"qX c #F4D354",
"wX c #F9D95B",
"eX c #F8D857",
"rX c #E9D454",
"tX c #DAC26F",
"yX c #E5C667",
"uX c #F6D767",
"iX c #E9CA77",
"pX c #EBD578",
"aX c #F1D672",
"sX c #F6DA79",
"dX c #F2CE68",
"fX c #FAE26D",
"gX c #FBE379",
"hX c #E8D788",
"jX c #F5DC87",
"kX c #F5DD96",
"lX c #EBCE8C",
"zX c #FAE28C",
"xX c #F7E587",
"cX c #EFE296",
"vX c #F3E494",
"bX c #F6E499",
"nX c #EDDEBC",
"mX c #F8E6A9",
"MX c #F8EAB7",
"NX c #F7F2B7",
"BX c #F6EAC3",
"VX c #F9EEC4",
"CX c #F3EBCB",
"ZX c #F1EBD0",
"AX c None",
/* pixels */
"AXAXAXAXAXAXAXAXAXAXAXAXAXAXAXAXAXAXAXAXAXAXAXAXAXAXAXAXAXAXAXAXAXAXAXAXAXAXAXAXAXAXAXAXAXAXAXAXAXAXAXAXAXAXAXAXAXAXAXAXAXAXAXAX",
"AXAXAXAXAXAXAXAXAXAXAXAXAXAXAXAXAXAXAXAXAXAXAXAXAXAXAXyXyXyXyX;XiXiXiXyX%XAXAXAXAXAXAXAXAXAXAXAXAXAXAXAXAXAXAXAXAXAXAXAXAXAXAXAX",
"AXAXAXAXAXAXAXAXAXAXAXAXAXAXAXAXAXAXAXAXAXAX@Xk.C.n.@.Q _ _ j.` c.H.c.c.H.j.m.).A.#XAXAXAXAXAXAXAXAXAXAXAXAXAXAXAXAXAXAXAXAXAXAX",
"AXAXAXAXAXAXAXAXAXAXAXAXAXAXAXAXAXAXAXj h.@.&.*.$.8...J U { o.U L G v L U ( ( ( $.K.V.M.#XAXAXAXAXAXAXAXAXAXAXAXAXAXAXAXAXAXAXAX",
"AXAXAXAXAXAXAXAXAXAXAXAXAXAXAXAXAX2 g &.3.>.2.2.1.{ { [ { { { U J G G G G L S L D S O.s.V.F.$XAXAXAXAXAXAXAXAXAXAXAXAXAXAXAXAXAX",
"AXAXAXAXAXAXAXAXAXAXAXAXAXAXAXAXf &.O.5.,.{ 2.>.>.>.>.K K K K [ K H H H Z G B S D v x / ].,X4X8XrXAXAXAXAXAXAXAXAXAXAXAXAXAXAXAX",
"AXAXAXAXAXAXAXAXAXAXAXAXAXAXs _ o.5.<.,.9. .8.>...>...>.>...K [ [ ] ] H V V V G B M E R R *XuXuXsXhXhXAXAXAXAXAXAXAXAXAXAXAXAXAX",
"AXAXAXAXAXAXAXAXAXAXAXAXAX! *.0.4.,.,.2.w.w.8.2.1.2.{ U { K [ U K H H G G G B M C B V Z ~ b Z.sXzXbXcXcXAXAXAXAXAXAXAXAXAXAXAXAX",
"AXAXAXAXAXAXAXAXAXAXAXAX@.%.5.>.1.O.2.>.1.0.$.#.*.m.m.S.S.m.N.*./ / / D D S S C C B V B G c p A.kXMXmXMXNXAXAXAXAXAXAXAXAXAXAXAX",
"AXAXAXAXAXAXAXAXAXAXAX*.0.5.>.5.1.>.2.8.w.m.$XyXiXsXiXaX9X=X[.].}.Q.H./ L G v B M B B v v v M Y @XkXMXBXVXVXAXAXAXAXAXAXAXAXAXAX",
"AXAXAXAXAXAXAXAXAXAXv.O.1.8.q.,.2.2.8.(.9XjXkXlX;X%XA.n.=.X.X.U ( ( $.8.U B B M C G B B v B B x p %XmXnXCXZXZXAXAXAXAXAXAXAXAXAX",
"AXAXAXAXAXAXAXAXAXN.O.7.q.t.t.6.} H.yXcXvX;Xn.j.j.` X.J J ..J K J J H G V v z x x v B S G G v v v Y %XnXZXZXCXCXAXAXAXAXAXAXAXAX",
"AXAXAXAXAXAXAXAXj.w.0.O.4.4.6.t._.sXmXtXC.'  .2...>.K K P L ^ P U ] H H V G G n t z C C B B G B V M h -XMXCXVXVXCXAXAXAXAXAXAXAX",
"AXAXAXAXAXAXAX(.d.y.U.H.3.<.w.<XvXpXZ.F ( *. .| { { [ K P ^ U.` U { H H H H G M n t t M C v B B B B Y h yXMXMXBXBXVXAXAXAXAXAXAX",
"AXAXAXAXAXAXk.Y.2. .U.H.+.-.9XxX9Xx.[ 6.>.X.J { { [ [ [ B P Q.W./ | H H ] V G B L C t t C v x C W B V M g.iXmXMXMXMXAXAXAXAXAXAX",
"AXAXAXAXAXr m.=.3.6.q.H.&.:XbX9X` ] [ >.[ O.>.[ ,.[ >.G v U T.0Xx.#.U ] ] H H B v C M t b C M C E B V Z y l.lXbXcXbXMXAXAXAXAXAX",
"AXAXAXAXAXA.U.r.;.7.<.e.=XxX=Xx.w.| { 5.K >.[ { |  .j.m L ( T.wX$X! U ] ] H G V G B C n y z C E C B V V W q ;XxXxXvXmXAXAXAXAXAX",
"AXAXAXAXf.J.q.q.4.4.u.'.fX9X` U 9.9.{ 1.>.>.[ 1.( ' ^ x I 8.`.uXuX&.X.U ] H G G G Z C C y y A Z A B V Z V p h pXcXxXzXkXAXAXAXAX",
"AXAXAXAXj.9.y.4.0.0.b.4XqXh.K >.,.2.2.[ [ >.[ >.|  .M c J 0.].uXuX XQ { ] ] G J G G G C C A x A v N A Z V D a -XcXjXgXvXAXAXAXAX",
"AXAXAXk P.q.4.q.r.=.].6Xn.#.2.1.1.{ ,.2.2.1.[ >. .^ z C I 8.].eXgXaXk.^ ] ] H G G G G S L G c z v A Z Z H M s l gXgXgXgXxXAXAXAX",
"AXAXAXg K.q.7.0.0.P.2XY.J >.2.2.,.[ 2.{ 1.,.[ {  .b n I J *.].8XgXzX=Xh.K H K G G G G S G S v z v M C C V C Y q :XuXuXwXwXAXAXAX",
"AXAXr -.0.4.7.O.K.P.K.J >.,.2.2.2.{ ,.2.2.2.1.2.P 6 x U U w.].4XfXxXpXj.I J I G G V G B G Z G c c c L N x V E 7 h 1X<X2X8X9XAXAX",
"AXAXg.u.3.4.q.0.Y.b.w.U 5.,.,.1.2.2.2.2.2.2.2.2.G z G U 8.0.}.OXwXsXzX$XF F F S B Z G H G B N B c c C C N V C R 8 S.#XD..X*XAXAX",
"AXAXh.d.q.q.q.i.=.&./ U >.,.2.1.2.2.2.2.1.2.2.1.L B J J 1.0.}.3XeXuXuXuX X XD.&.I J S v B C P Z v z C C N V Z C 4 f.h.x.v.S.@XAX",
"AXl c.y.d.q.9.r.F F X.0.8.} 2.2.2.2.2.2.2.,.2.>.U { ....O.8.Q.3XeX5XrXeXeXeX7X5X8X X!.b.=.I C G N x A C Z V B Z 8 4 f h f.f.h AX",
"AXg.J.J.q.q.9.w.c c *.*.G C P { { 2.2.2.,.,.>.{ 1.( U 5.5.q./.OX7X7X7X7XeXeXeX5X5X7X7X7X3X}.K.I V x N V B B B G y 1 q w s s f AX",
"AXh.I.J.0.4.0.` 6 G 0.0.G z z G G U { >.[ >.{ P U =.~.$.1.q.d.~.XXXX8XXX6X3X3X3X3XoXoX.X^./.8.M N N N B V V V G y > q 7 8 a 8 4 ",
"AXx.K.J.3.3.0.L u ~ e.d.r.S z z x B H K K [ { | U L T.r.1.5.o./  X X X X X+X~.+XE.R.s.q.0.e.G x N v v v B B B B R : q y p s w w ",
"l x.e.J.3.3.8.m b $.r.q.T.w.L z z x v B G U ] | ( x Q.r.1.5.>.! ~.T.R.i.s.s.q.9.0.2.5...8.I m G G N N V B V B G M < q u p a u a ",
"k M.0.r.4.5.8.u i *.q.0.i.L.H.C z z x x N P P ( ( m ].0.( 1.{ _ }.w.q.d.4.4.4.1.,.2.2.w.K x v G P N v B B G B B M , q i g g f w ",
"k G.8.J.3.O.0.6 m *.e.0.q.K.K.$.c v v x x C C L I C ~.$.J 2.U ~ {.t.q.2.5.>.>.>.2.2.y.{ B v B B G Z N Z V B V B L , 9 i d j Y d ",
"@XG.0.H.0.O.=.u Y *.r.u.u.i.K.T.( c v z n T L P ~ m ~.w.U ..U ! Q.q.4.,.<.,.1.2.2.d.U N B V B B Z Z v B V B G B E , , q w a f s ",
"@Xv.q.J.0.0.=.u Y *.u.u.u.r.i.L.T.~ m n y n E L L m e.*.U U H ! Q.| 2.,.,.4.q.0.r.( x C N V V V H G B N V B V B E 1 - 4 1 2 5 q ",
"@XG.0.H.0.%.=.u m *.u.0.u.u.r.i.T.w.I c z b M G L M S U J >.{ ~ *.9.2.,.,.9.e.L.$.c M G C Z V V V Z v Z G V G B W 0 * > : 3 , 9 ",
"AX-.O.w.*.0.K.b m 8.r.r.s.r.p.r.r.s.8.c b 7 n Z L P J G H K >.$.8.2.1.>.2.r.L.K.u M G B V V V V V B B C E C B Z E , + * + - - # ",
"AX:.O.e.%.0.i.m c 8.r.r.p.L.I.L.r.r.r./ 6 6 m B G P H K K K U 2.1.>.>.5.r.^.OX_ c L G V V V V V B N B C Z C Z V E ; * * o & + % ",
"AXV.;.L.$.e.K./ S #.r.r.i.Y.L.p.p.r.T.K.6 6 c N B G H K K [ >.1.,.>.>.5.a.oX6X_.! P G V V V V V B v N G L P H G W - - + + o + $ ",
"AXZ.&.0.%.0.r.*.S &.e.e.r.r.r.K.r.p.L.w.6 8 c v G G K K K [ >.>.,.,.>.>.p.OX6X2X~ L V B V V V B G B B G G Z G G b = * + - : #   ",
"AXAXZ.e.0.r.w.b./ &.b.i.0.r.p.r.r.r.T.' 6 6 m B B G G K K K >.[ ,.,.,.5.p.OX0X4X/ I G V V V V B G B G G H G G G 7 * * o : # $ AX",
"AXAXM.=.0.e.w.K.N._.v.e.r.r.p.p.L.L.Q./ 6 b M G G B G J K K [ [ ,.,.5.1.0.3X6X6X#.I S G G G G v B G L J U G G ~ 4 X o o o # $ AX",
"AXAXA.;.%.w.r.P.[.5Xv.*.i.e.q.p.T.L.I.M 6 m M Z G G U U [ >.2.2.>.,.5.3.%..X6X3XK.I L J V G B B G J P P | W W ' ; X o o X # % AX",
"AXAXAXO.%.=.r.b.D.wX_.-.p.q.r.i.L.K.K.R u T M G P P { 1.2.8.0.q.9.1.>.5.o.i.3X6XI.F G H G V B G L L U U ^ ^ ' w = . o o X # % AX",
"AXAXAX-.0.0.e.*.=.XX0XZ.T.q.r.i.s.p.H.b m M G G U U { 8.U L I w.e.0.1.5...%.oX7XW.D G P H G G G I I I ^ P E j.q . X X + O # AXAX",
"AXAXAXM.;.0.e.r.u.:.uX=XH.0.u.u.u.p.K.m b M G I | ( ( I I / L D ` e.w.0.o.O.+X3X[.Q L Z H L B / I / ( ^ P P j.> X O O O $ % AXAX",
"AXAXAXAXv.r.e.J.r.:.<XsX#Xr.u.r.i.I.H.z z J U | ( I P $.e.K.T.w.I I *.q.0.o.8.OX X/ P H H L G *.X.( ^ ^ ^ ' f.. O O @ o # AXAXAX",
"AXAXAXAXZ.u.r.U.J.b.F.aXpXZ.-.;.K.T.j.z G U { I I w.L.L.0.r.T.r.r.w._ I $.%.3.Y..X#.L [ H G 8.( I I ^ ^ W j.> X @ O o o $ AXAXAX",
"AXAXAXAXAXb.e.U.I.Y.:.$XxXyXN.:.;.i.*.C L H I w.L.L.K.r.Y.T.r.Y.L.0.w.$.D / 0.#.E.$.J K K 8.8.J I I ~ ^ ' f.= = * * & + AXAXAXAX",
"AXAXAXAXAXD.r.r.p.a.V.V.9XzX;XM.;.7.O./ ' w.r.L.r.T.p.r.T.K.i.r.r.r.r.r.0.$.( #.=.J o.U 1.e.J L ( ( ( W j.> ; > 1 > 3 : AXAXAXAX",
"AXAXAXAXAXAXM.i.q.q.u.:.V.dXxX:X:.;.;.Y.I.Q.T.p.L.r.K.Y.i.K.i.i.r.r.e.0.0.*.w.$.U U o.8.0.L ~ / ^ ^ ( ' w ; 0 0 0 0 e AXAXAXAXAX",
"AXAXAXAXAXAXAXv.u.r.i.;.V.F.rXgXyXC.V.;.s.I.I.r.p.T.K.i.Y.Y.i.i.q.q.e.=.*.w.0.w.w.$.0.p.I I ` ~ ^ P I ) > 9 w q 5 9 e AXAXAXAXAX",
"AXAXAXAXAXAXAX-.i.|.I.T.R.V.G.>XkXlX$X;.O.Y.T.L.K.i.T.i.Y.i.i.i.i.q.e.e.e.e.w.K.w.T.8.I I / ` ~ E I ~ 4 9 r w i 8 2 AXAXAXAXAXAX",
"AXAXAXAXAXAXAXAXAX{.I.L.a.a.R.F.<XjXaX&Xv.:.Y.Y.p.i.r.T.p.p.p.p.i.i.r.e.r.w.w.0.L.r.#.U / / _ ` / Q p q g.k.h.h.j AXAXAXAXAXAXAX",
"AXAXAXAXAXAXAXAXAX_.Q.T.a.a.Y.W.V.D.9XdXdX,XW.u.i.i.p.p.p.r.r.K.i.r.e.=.0.r.T.i.*.#.#.( / / ~ ~ _ ! d n.M.M.A.A.AXAXAXAXAXAXAXAX",
"AXAXAXAXAXAXAXAXAXAXM.b.T.Q.I.T.R.E.W.*X0XdX4X.X+XT.i.T.L.p.r.p.Y.K.i.T.T.r.=.` ( ( $./ / / / ~ j.A.).(.:.V.C.AXAXAXAXAXAXAXAXAX",
"AXAXAXAXAXAXAXAXAXAXAXV.W.`.*XU.a.a.E.~.W.W.]..X+X^.^./.T./.T.^.E.~.T.T.e.*.*.$.$.` $.` _ ! ` P._.).).(.b.G.AXAXAXAXAXAXAXAXAXAX",
"AXAXAXAXAXAXAXAXAXAXAXAXAX{.U.L.a.a.E.R.i.a.R.R.R.R.E.^.^.T.E.I.K.K.w.K.e.=.*.*.H.*.` ` ~ ) `.].b.b.W.(.N.AXAXAXAXAXAXAXAXAXAXAX",
"AXAXAXAXAXAXAXAXAXAXAXAXAXAXR.s.a.a.~.Q.~.a.a.E.E.W.Y.E.T.T.Y.K.K.K.b.w.K.=.*.w.c._ ` Q c.{.,X_.:.!.D.#XAXAXAXAXAXAXAXAXAXAXAXAX",
"AXAXAXAXAXAXAXAXAXAXAXAXAXAXAX:.:.!._._.{.W.W.W.!.E.W.Q.W.Y.L.K.K.K.w.b.H.*.*.*.` _ c.W.,X4X[.[. X XAXAXAXAXAXAXAXAXAXAXAXAXAXAX",
"AXAXAXAXAXAXAXAXAXAXAXAXAXAXAXAXAXD.!.W.!.Q.W.W.W.W.W.Q.Q.Y.Y.I.K.H.b.w.K.c.c.*.B.(.2X4X<X1X1X1XAXAXAXAXAXAXAXAXAXAXAXAXAXAXAXAX",
"AXAXAXAXAXAXAXAXAXAXAXAXAXAXAXAXAXAXAXAXV.V.W.!.!.W.!.Q.Q.Y.K.P.I.K.K.c.c.c.P.'.2X2X,X*X*X*XAXAXAXAXAXAXAXAXAXAXAXAXAXAXAXAXAXAX",
"AXAXAXAXAXAXAXAXAXAXAXAXAXAXAXAXAXAXAXAXAXAXAX_._._._.W.W.Y.W._.N.N.W.N.D.&X0X<X1XD.F.AXAXAXAXAXAXAXAXAXAXAXAXAXAXAXAXAXAXAXAXAX",
"AXAXAXAXAXAXAXAXAXAXAXAXAXAXAXAXAXAXAXAXAXAXAXAXAXAXAXAXAXAXAX&X&X1X9XwXqX0XAXAXAXAXAXAXAXAXAXAXAXAXAXAXAXAXAXAXAXAXAXAXAXAXAXAX",
"AXAXAXAXAXAXAXAXAXAXAXAXAXAXAXAXAXAXAXAXAXAXAXAXAXAXAXAXAXAXAXAXAXAXAXAXAXAXAXAXAXAXAXAXAXAXAXAXAXAXAXAXAXAXAXAXAXAXAXAXAXAXAXAX",
"AXAXAXAXAXAXAXAXAXAXAXAXAXAXAXAXAXAXAXAXAXAXAXAXAXAXAXAXAXAXAXAXAXAXAXAXAXAXAXAXAXAXAXAXAXAXAXAXAXAXAXAXAXAXAXAXAXAXAXAXAXAXAXAX"
};
