/* XPM */
static char *bloc_mario1[] = {
/* columns rows colors chars-per-pixel */
"64 64 161 2 ",
"   c #4E3C02",
".  c #533D03",
"X  c #564202",
"o  c #594603",
"O  c #5E4A04",
"+  c #684902",
"@  c #604D05",
"#  c #6A5405",
"$  c #725A05",
"%  c #785F06",
"&  c #725C0A",
"*  c #765403",
"=  c #786004",
"-  c #76600B",
";  c #78610A",
":  c #7E671A",
">  c #7F6921",
",  c #73663E",
"<  c #76683B",
"1  c #7A6B3B",
"2  c #7A6B37",
"3  c #896F06",
"4  c #81690B",
"5  c #8F7006",
"6  c #987D07",
"7  c #9B7F08",
"8  c #937809",
"9  c #846C10",
"0  c #876D19",
"q  c #8E7312",
"w  c #907512",
"e  c #967C15",
"r  c #987C13",
"t  c #816B23",
"y  c #8B782D",
"u  c #867B5A",
"i  c #9A8103",
"p  c #9B8013",
"a  c #AF8B07",
"s  c #A6880A",
"d  c #AA8D09",
"f  c #A48707",
"g  c #B59507",
"h  c #BD9707",
"j  c #BD9A07",
"k  c #B3950B",
"l  c #BD9C09",
"z  c #A68B14",
"x  c #A68916",
"c  c #B89A11",
"v  c #B39616",
"b  c #AE922B",
"n  c #B89E37",
"m  c #BFA42C",
"M  c #C39D06",
"N  c #C7A607",
"B  c #CAA707",
"V  c #CFAD07",
"C  c #C5A50A",
"Z  c #CFAD09",
"A  c #C8A70B",
"S  c #D5AD07",
"D  c #D1AF09",
"F  c #C9B008",
"G  c #D8B107",
"H  c #D3B10D",
"J  c #DAB509",
"K  c #DDB90B",
"L  c #C1A613",
"P  c #C3A914",
"I  c #CEB515",
"U  c #DAB710",
"Y  c #D0B116",
"T  c #E3BC07",
"R  c #E2BD09",
"E  c #CBAD2C",
"W  c #CEB131",
"Q  c #CFB73B",
"!  c #D8BE3F",
"~  c #DDC113",
"^  c #EEC707",
"/  c #EFC806",
"(  c #E6C109",
")  c #EAC50A",
"_  c #EECA0C",
"`  c #E2CD0A",
"'  c #F1CB06",
"]  c #F2CB09",
"[  c #F2D409",
"{  c #F6DC0A",
"}  c #F8DE0A",
"|  c #EFCB11",
" . c #F1CD12",
".. c #F3E10A",
"X. c #FEF30C",
"o. c #F7E41C",
"O. c #DEC32C",
"+. c #E8C927",
"@. c #EBCC28",
"#. c #F2D12E",
"$. c #E1C732",
"%. c #E2C832",
"&. c #F6EC2C",
"*. c #FEF72F",
"=. c #AA9A5F",
"-. c #A7965B",
";. c #BFA846",
":. c #988D6B",
">. c #B0A060",
",. c #B7A669",
"<. c #B9AA69",
"1. c #AFA47E",
"2. c #C2AA4A",
"3. c #CDB74C",
"4. c #D5BE4B",
"5. c #CBB653",
"6. c #D2BD50",
"7. c #DBC553",
"8. c #F1D74B",
"9. c #F4DB5B",
"0. c #D8C668",
"q. c #DAC969",
"w. c #D4C677",
"e. c #D4C678",
"r. c #E0CC60",
"t. c #EAD773",
"y. c #EAD873",
"u. c #EAD97E",
"i. c #96958E",
"p. c #9A9790",
"a. c #A09F99",
"s. c #A6A59F",
"d. c #AFAFAD",
"f. c #B0AFAE",
"g. c #B4B4B3",
"h. c #E4D798",
"j. c #ECDF9B",
"k. c #EFE29D",
"l. c #C2C0B4",
"z. c #F6ECB6",
"x. c #CECCC5",
"c. c #C9C9CA",
"v. c #D3D0C7",
"b. c #D4D1C9",
"n. c #D9D8CC",
"m. c #D5D5D6",
"M. c #DBDBDB",
"N. c #D8D8D6",
"B. c #E0DED6",
"V. c #E0DFDF",
"C. c #E1E0DB",
"Z. c #F0EBD4",
"A. c #F7F2DE",
"S. c #E2E2E3",
"D. c #EDECE5",
"F. c #E7E7EA",
"G. c #E7E8EA",
"H. c #EBEBE9",
"J. c #F1F0E5",
"K. c #F2F2F2",
"L. c None",
/* pixels */
"L.` X.X.X.X.X.X.X.X.X.X.X.X.X.X.X.X.X.X.X.X.X.X.X.X.X.X.X.X.X.X.X.X.X.X.X.X.X.X.X.X.X.X.X.X.X.X.X.X.X.X.X.X.X.X.X.X.X.X.X.X.*.L.",
"f D } ..} } } { { { { { { { { { { } { { { { { { { { { { { { { { { { { [ { { { { { { { { { { { { { { { { { { { { { { } } { { o.&.",
"i N ] ] ( D J _ ' ' ' ] ' ] ] ] ' ] ' ' ] ] ] ] ] | ] ] ] ] ] ] ] ] ] ] ] ' ' ' ] ] ] ] ' ' ] ] ] | ' ] ] | ] ] ] J D ( ] ' [ ..",
"i N ] K 3 o o 7 ) ] ] ] ] ] ] ] ] ] ] ] ] ] ] ] ] ] ] ] ] ] ] ] ] ] ] ] ] ] ] ] ] ] ] ] ' ] ] ] ] ] ] ] ] ] ] ' h # X # A ' [ ..",
"i N _ f O @ o X M ] ] ] ] ] ] ] ] ] ] ] ] ] ] ] ] ] ] ] ] ] ] ] ] ] ] ] ] ] ] ] ] ] ] ] ] ] ] ] ] ] ] ] ] ] ] J ; O O X % ) [ ..",
"i N ) 7 9 w 9 # k ] ] ] ] ] ] ] ] ] ] ] ] ] ] ] ] ] ] ] ] ] ] ] ] ] ] ] ] ] ] ] ] ] ] ] ] ] ] ] ] ] ] ] ] ] ' Z 4 q q & % K [ ..",
"i N ' C r e e r Z ' ] ] ] ] ] ] ] ] ] ] ] ] ] ] ] ] ] ] ] ] ] ] ] ] ] ] ] ] ] ] ] ] ] ] ] ] ] ] ] ] ] ] ] ] ] T z e e e s ) [ ..",
"i N ] ) L z z A ) ] ] ] ] ] ] ] ] ] ' ' ' ' ' ' / ' ' ' / ' ' ' / ] ] ] ' ' ' ' ' ' ' ' ' ] ] ] ] ] ] ] ] ] ] ] K v x k J ' [ ..",
"i N ] ]  .| ) _ ] ] ] ] ] ] ] ' ] #.#.#.#.#.#.#.#.#.#.#.#.#.#.#.#.#.#.#.#.#.#.#.#.#.#.#.#.#.#.] _ ] ] ] ] ] ] ] _  .) ) ] ] [ ..",
"i N ] ] ] ' ' ] ] ] ] ] ] ] ' | r.Z.A.A.A.J.A.A.A.J.A.A.A.A.J.J.A.A.A.A.J.J.A.A.A.A.J.A.A.A.Z.u._ ] ] ] ] ] ] ] [ ' ] ] ] ] [ ..",
"i N ] ] ] ] ] ] ] ] ] ] ' ' | 0.C.K.K.K.K.K.K.K.K.K.K.K.K.K.K.K.K.K.K.K.K.K.K.K.K.K.K.K.K.K.K.J.u.| ] ] ] ] ] ] _ ] ] ] ] ] [ ..",
"i N ] ] ] ] ] ] ] ] ] ] ' _ 0.V.K.K.K.K.K.K.K.K.K.K.K.K.K.K.K.K.K.K.K.K.K.K.K.K.K.K.K.K.K.K.K.K.D.u.| ' ] ] ] ] ' ] ] ] ] ] [ ..",
"i N ] ] ] ] ] ] ] ] ' ' | 0.V.K.K.K.K.K.K.K.K.K.K.K.K.K.K.K.K.K.K.K.K.K.K.K.K.K.K.K.K.K.K.K.K.K.K.D.h.' ] ] ] ] ] ] ] ] ] ] [ ..",
"i N ] ] ] ] ] ] ] ] ' | 0.V.K.K.K.K.K.K.K.K.K.K.K.K.K.K.K.K.K.K.K.K.K.K.K.K.K.K.K.K.K.K.K.K.K.K.K.K.J.u.| ' ] ] ] ] ] ] ] ] [ ..",
"i N [ ' ] ] ] ] ] ] ' 4.N.K.K.K.K.K.K.K.K.K.K.K.K.K.K.K.K.K.K.K.K.K.K.K.K.K.K.K.K.K.K.K.K.K.K.K.K.K.K.D.r.' ] ] ] ] ] ] ' _ [ ..",
"i A ] ' ] ] ] ] ] ] ( <.S.K.K.K.K.K.K.K.K.K.K.K.K.K.K.K.K.K.K.K.K.K.K.K.K.K.K.K.K.K.K.K.K.K.K.K.K.K.K.F.w._ ] ] ] ] ] ] ] ] [ ..",
"i N ] ] ] ] ] ] ] ] R ,.S.K.K.K.K.K.K.K.K.K.K.K.M.g.g.g.g.g.g.g.g.g.g.g.g.g.g.M.K.K.K.K.K.H.K.K.K.K.K.F.w._ ' ] ] ] ] ] ] ] [ ..",
"i N ] ] ] ] ] ] ] ] ) ,.S.K.K.K.K.K.K.K.K.K.K.N.u t t t t t t t t t t t t t t :.M.K.K.K.K.K.K.K.K.K.K.F.w.' ] ] ] ] ] ] ] ] [ ..",
"i N ] ] ] ] ] ] ] ] R ,.S.K.K.K.K.K.K.K.K.K.K.x.m S S S S S S S S S S S S S B b x.K.K.K.K.K.K.K.K.K.K.F.w._ ] ] ] ] ] ] ] ] [ ..",
"i N ] ] ] ] ] ] ] ] ) ,.S.K.K.K.K.K.K.K.K.K.K.n.%.] ] ] ' ' ] ] ] ] ] ] ] ] ' E b.K.K.K.K.K.K.K.K.K.K.F.w.] ] ] ] ] ] ] ] ] [ ..",
"i N ] ] ] ] ] ] ] ] ) ,.S.K.K.K.K.K.K.K.K.K.K.n.$.' ' ] ] ] ] ] ] ] ] ] ] ] ' E v.K.K.K.K.K.K.K.K.K.K.F.w._ ] ] ] ] ] ] ] ] [ ..",
"i N ] ] ] ] ] ] ] ] ) ,.F.K.K.K.K.K.K.K.K.K.K.n.$.' ] ] ] ] ] ] ] ] ] ] ] ] ' W v.K.K.K.K.K.K.K.K.K.K.F.w.' ] ] ] ] ] ] ] ] [ ..",
"i B ] ] ] ] ] ] ] ] R ,.S.K.K.K.K.K.K.K.K.K.K.n.$.' ] ] ] ] ] ] ] ] ] ] ' ] ' E v.K.K.K.K.K.K.K.K.K.K.F.w._ ' ] ] ] ] ] ] ] [ ..",
"i N ] ] ] ] ] ] ] ] R ,.S.K.K.K.H.K.K.K.K.K.K.n.$.' ] ] ] ] ] ] ] ] ] ] ' ' ' E v.K.K.K.K.K.K.K.K.K.K.S.w./ ] ] ] ] ] ] ] ' [ ..",
"i N ] ] ] ] ] ] ] ] ) ,.F.K.K.K.K.K.K.K.K.K.K.N.$.' ' ] ] ] ] ] ] ] ] ] ] ] ' E v.K.K.K.K.K.K.H.K.K.K.G.w.' ] ] ] ] ] ] ] ] [ ..",
"i N ] ] ] ] ] ] ] ] ( >.c.m.m.m.m.m.N.N.m.m.m.l.$.' ' ] ] ] ] / ' ] ' [ ' ' ' W b.K.K.K.K.K.K.K.K.K.K.G.w._ ] ] ] ] ] ] ] ] [ ..",
"i N ] ] ] ] ] ] ] ] ) x < < < < < < < < < < < y R ] ] ] ' ] | 8.9.9.9.9.9.9.9.h.H.K.K.K.K.K.K.K.K.K.K.G.w._ ] ] ] ] ] ] ] ] [ ..",
"i N ] ] ] ] ] ] ] ' | S M M M M M M M M M M M G ' ] ] ] ' | t.J.K.K.K.K.K.J.K.K.K.K.K.K.K.K.K.K.K.K.K.G.w./ ] ] ] ] ] ] ] ] [ ..",
"i N ] ] ] ] ] ] ] ] ] ] ] | ] ] ] | ] ] ] ] ] ] ] ] ] / ] t.D.K.K.K.K.K.K.K.K.K.K.K.K.K.K.K.K.K.K.K.K.F.e._ ] ] ] ' ] ] ] ' [ ..",
"i N ] ] ] ] ] ] ] ] ] ] ] ] ] ] ] ' ] ] ] ] ] ] ] ] ]  .t.D.K.K.K.K.K.K.K.K.K.K.K.K.K.K.K.K.K.K.K.K.K.n.5._ ] ] ] ] ] ] ] ] [ ..",
"i N [ ' ] ] ] ] ] ] ] ] ] ] ] ] ] ] ] ] ] ] ] ] ] ' | t.D.K.K.K.K.K.K.K.K.K.K.K.H.K.K.K.K.K.K.K.K.K.m.=.U ] ] ] ] ] ] ] ] ] [ ..",
"i N ' ' ] ] ] ] ] ] ] ] ] ] ] ] ] ] ] ] ] ] ] ] ]  .t.D.K.K.K.K.K.K.K.K.K.K.K.K.K.K.K.K.K.K.K.K.K.m.=.H ] ] ' ] ] ] ] ] ] ] [ ..",
"7 B ] ] ] ] ] ] ] ] ] ] ] ] ] ] ] ] ] ] ] ] ] ] ' 4.B.K.K.K.H.K.K.K.K.K.K.K.K.K.K.K.K.K.K.K.K.K.m.=.H ] ] ] ] ] ] ] ] ] ] ] ] } ",
"7 M ] ] ] ] ] ] ] ] ] ] ] ] ] ] ] ] ] ] ] ] ] ] ' 2.M.K.K.K.K.K.K.K.K.K.K.K.K.K.K.K.K.K.K.K.K.m.=.H ] ] ] ] ] ] ] ] ] ] ] ] [ ..",
"f N ] ] ] ] ] ] ] ] ] ] ] ] ] ] ] ] ] ] ] ] ] ] T 2.M.K.K.K.K.K.K.K.K.K.K.K.B.a.i.i.i.p.i.i.p.-.H ] ] ] ] ] ] ] ] ] ] ] ] ] [ ..",
"6 N ] ] ] ] ] ] ] ] ] ] ] ] ] ] ] ] ] ] ] ] ] ] ' 2.N.K.K.K.K.K.K.K.J.K.K.A.a.w q q q q q q r S ] ] ] ] ] ] ] ] ] ] ] ] ] ] [ ..",
"i N ' ' ] ] ] ] ] ] ] ] ] ] ] ] ] ] ] ] ] ] ] ] / 2.N.K.K.K.K.K.K.K.K.K.K.V.3.T T T T R T T T ] ] ] ] ] ] ] ] ] ] ] ] ] ] ] [ ..",
"i N ] ] ] ] ] ] ] ] ] ] ] ] ] ] ] ] ] ] ] ] ] ] / 2.B.K.K.K.K.K.K.K.K.K.K.V.7.' ] ] ] ] ] ] ] ] ] ] ] ] ] ] ] ] ] ] ] ] ] ] [ ..",
"i N ] ] ] ] ] ] ] ] ] ] ] ] ] ] ] ] ] ] ] ] ] ] / 2.N.K.K.K.K.K.K.K.K.K.K.C.7.' ] ] ] ] ] ] ] ] ] ] ] ] ] / ] ] ] ] ] ] ] ] [ ..",
"i N ] ] ] ] ] ] ] ] ] ] ] ] ] ] ] ] ] ] ] ] ] ' T 2.M.K.K.K.K.K.K.K.K.K.K.V.7.' ] ] ] ] ] ] ] ] ] ] ] ] ] ] ] ] ] ] ] ] ] ' [ ..",
"i N ] ] ] ] ] ] ] ] ] ] ] ] ] ] ] ] ] ] ] ] ] ] / 2.V.K.K.K.K.K.K.K.K.K.K.V.7./ ] ] ] ] ] ] ] ] ] ] ] ] ] ] ] ] ] ] ] ] ] ] [ { ",
"i N ] ] ] ] ] ] ] ] ] ] ] ] ] ] ] ] ] ] ] ] ] ] ) 2.V.K.K.K.K.K.K.K.K.K.K.V.7.] ] ] ] ] ] ] ] ] ] ] ] ] ] ] ] ] ] ] ] ] ] ] [ ..",
"i N ] ] ] ] ] ] ] ] ] ] ] ] ] ] ] ] ] ] ] ] ] ] ] n s.f.f.d.d.d.d.d.g.f.f.d.Q ] ] ] ] ] ] ] ] ] ] ] ] ] ] ] ] ] ] ] ] ] ] ] [ ..",
"i N ] ] ] ] ] ] ] ] ] ] ] ] ] ] ] ] ] ] ] ] ] ] R M 0 0 0 t : : : : 0 0 : q R ] ] ] ] ] ] ] ] ] ] ] ] ] ] ] ] ] ] ] ] ] ] ] [ ..",
"i B ] ] ] ] ] ] ] ] ] ] ] ] ] ] ] ] ] ] ] ] ] ] ] R G G G G G S S G H G G R ] ] ] ] ] ] ] ] ] ] ] ] ] ] ] ] ] ] ] ] ] ] ] ] [ ..",
"i B ] ] ] ] ] ] ] ] ] ] ] ] ] ] ] ] ] ] ] ] ] ] ] ]  . . . . .]  . . . . . .] ] ] ] ] ] ] ] ] ] ] ] ] ] ] ] ] ] ] ] ] ] ] ] [ ..",
"i N ] ] ] ] ] ] ] ] ] ] ] ] ] ] ] ] ] ] ] ] ] ] ] +.k.z.z.z.Z.z.z.z.z.z.z.k.@.] ] ] ] ] ] ] ] ] ] ] ] ] ] ] ] ] ] ] ] ] ] ] [ ..",
"i N ] ] ] ] ] ] ] ] ] ] ] ] ] ] ] ] ] ] ] ] ] ] / 3.S.K.K.K.K.K.K.K.K.K.K.S.7.] ] ] ] ] ] ] ] ] ] ] ] ] ] ] ] ] ] ] ] ] ] ' [ ..",
"i N ' ] ] ] ] ] ] ] ] ] ] ] ] ] ] ] ] ] ] ] ] ] ] 2.V.K.K.K.K.K.K.K.K.K.K.V.7.' ] ] ] ] ] ] ] ] ] ] ] ] ] ] | ] ] ] ] ] ] ] [ { ",
"i N ] ] ] ] ] ] ] ] ] ] ] ] ] ] ] ] ] ] ] ] ] ] ] 2.S.K.K.K.K.K.K.K.K.K.K.S.4.' ] ] ] ] ] ] ] ] ] ] ] ] ] ] / ] ] ] ] ] ] ] [ ..",
"i B ] ] ] ] ] ] ] ] ] ] ] ] ] ] ] ] ] ] ] ] ] ] ' 2.V.K.K.K.K.K.K.K.K.K.K.S.7.' ] ] ] ] ] ] ] ] ] ] ] ] ] ] ] ] ] ] ] ] ] ' [ ..",
"i N ] ] ] ] ] ] ] ] ] ] ] ] ] ] ] ] ] ] ] ] ] ] / 2.V.K.K.K.K.K.K.K.K.K.K.V.7.] ] ] ] ] ] ] ] ] ] ] ] ] ] ] ] ] ] ] ] ] ] ' [ ..",
"i N ' ' ' ] ] ] ] ] ] ] ] ] ] ] ] ] ] ] ] ] ] ] / 2.V.K.K.K.K.K.K.K.K.K.K.V.7.] ] ] ] ] ] ] ] ] ] ] ] ] ] | ] ] ] ] ] ] ] ] [ ..",
"i N [ ] ] ] ] ] ] ] ] ] ] ] ] ] ] ] ] ] ] ] ] ] / 2.c.M.M.M.m.M.N.N.M.M.N.c.4.] ] ] ] ] ] ] ] ] ] ] ] ] ] ] ] ] ] ] ] ] ] ] [ ..",
"i N ' ' ] ] ] ] ] ] ] ] ] ] ] ] ] ] ] ] ] ] ] ] / v y , , , , , , , , , , 2 Y ] ] ] ] ] ] ] ] ] ] ] ] ] ] ] ] ' ] ] ] ] ] ] [ ..",
"i N ] _ A i s K ] ] ] ] ] ] ] ] ] ] ] ] ] ] ] ] ] G k h k M h h h h h M M B ] ] ] ] ] ] ] ] ] ] ] ] ] ] ] ] ] ' R k 7 l ) ' [ ..",
"7 N ' C # .   $ K ] ] ] ] ] ] ] ] ] ] ] ] ] ] ] ] ] ] ] ] ] ] ] ) ) ] ] ] ] ] ] ] ] ] ] ] ] ] ] ] ] ] ] ] ] ' ) 8 X   X f _ [ ..",
"i N / 6 # & # o k ] ] ] ] ] ] ] ] ] ] ] ] ] ] ] ] ] ] ] ] ] ] ] ] ] ] ] ] ] ] ] ] ] ] ] ] ] ] ] ] ] ] ] ] ] ] D $ & & O $ K [ ..",
"6 N ^ s q e w % M ] ] ] ] ] ] ] ] ] ] ] ] ] ] ] ] ] ] ] ] ] ] ] ] ] ] ] ] ] ] ] ] ] ] ] ] ] ] ] ] ] ] ] ] ] ] H w r r 9 5 T { ..",
"i N _ Y x e r z J ] ] ] ] ] ] ] ] ] ] ] ] ] ] ] ] ] ] ] ] ] ] ] ] ] ] ] ] ] ] ] ] ] ] ] ] ] ] ] ] ] ] ] ] ] ] ) c r e p l _ [ ..",
"i N ' ] | P L R ] ] ] ] ] ] ] ] ] ] ] ] ] ] ] ] ] ] ] ] ] ] ] ] ] ] ] ] ] ] ] ] ] ] ] ] ] ] ] ] ] ] ] ] ] ] ] ] _ I L H ( ] [ ..",
"i B [ ] ] [ ] ] ] ] ] [ ] ] ] ] ] ] ] ] ] ] ] ] ] ] ] ] ] ] ] ] ] ] ] ] ] ] ] ] ] ] [ ] ] ] ] ] ] ] [ ] ] ] ] ] ] [ ] ] ] ] { ..",
"* 5 a a a a a a a a a a a a a a a a a a k a a a a a a a a a a a a a a a a a a a a a a a a a a a a a a a a a a a a a a a a a g F ",
"L.. + + + + + + + + + + + + + + + + + + + + + + + + + + + + + + + + + + + + + + + + + + + + + + + + + + + + + + + + + + + + * L."
};
