/* XPM */
static char *video_game_387311[] = {
/* columns rows colors chars-per-pixel */
"64 64 186 2 ",
"   c #D14D7B",
".  c #D24D7B",
"X  c #D24D7C",
"o  c #D34D7C",
"O  c #D44E7D",
"+  c #D64F7D",
"@  c #D54F7E",
"#  c #D6507E",
"$  c #D4557C",
"%  c #D4577C",
"&  c #D9517F",
"*  c #D75D7B",
"=  c #D85B7D",
"-  c #DB617F",
";  c #D8657C",
":  c #DC767B",
">  c #E0727F",
",  c #60A333",
"<  c #62A434",
"1  c #62A534",
"2  c #65A734",
"3  c #66A834",
"4  c #6DAD33",
"5  c #69AB39",
"6  c #6AAB3B",
"7  c #69AC39",
"8  c #6BAD39",
"9  c #6CAD38",
"0  c #6DAE39",
"q  c #71B133",
"w  c #75B434",
"e  c #76B434",
"r  c #7DBB34",
"t  c #7EBC35",
"y  c #71B23A",
"u  c #7EBB3E",
"i  c #77B643",
"p  c #7CBB49",
"a  c #81BF39",
"s  c #83BF3B",
"d  c #EB9617",
"f  c #EB9718",
"g  c #EC9A1A",
"h  c #EC9A1B",
"j  c #EC9C1C",
"k  c #EC9D1D",
"l  c #EC9E1D",
"z  c #ED9E1E",
"x  c #ED9F1E",
"c  c #ED9F1F",
"v  c #EEA423",
"b  c #F0AD2A",
"n  c #F0AE2B",
"m  c #F0AF2C",
"M  c #F1B12D",
"N  c #F1B530",
"B  c #F3BE38",
"V  c #F3BF39",
"C  c #F4C03A",
"Z  c #F4C23C",
"A  c #F5C33C",
"S  c #F5C33D",
"D  c #F6C63F",
"F  c #B2885F",
"G  c #AE9259",
"H  c #88C441",
"J  c #8AC644",
"K  c #8AC744",
"L  c #8CC744",
"P  c #8BC844",
"I  c #8EC848",
"U  c #92CD4C",
"Y  c #92CC55",
"T  c #94CE57",
"R  c #9FD85B",
"E  c #A1D95C",
"W  c #A4DC61",
"Q  c #A7DD63",
"!  c #A6DE64",
"~  c #F6C640",
"^  c #F6C740",
"/  c #F6CA42",
"(  c #F7CD45",
")  c #F7CF47",
"_  c #F7D047",
"`  c #F8D148",
"'  c #F8D44B",
"]  c #F8D54C",
"[  c #F9D74C",
"{  c #F8D74E",
"}  c #F9D74E",
"|  c #F9D84D",
" . c #F8D84E",
".. c #F9D84E",
"X. c #F9D94E",
"o. c #F9D84F",
"O. c #F9D94F",
"+. c #FAD94E",
"@. c #FAD953",
"#. c #FADA56",
"$. c #FADB57",
"%. c #FADB5D",
"&. c #FBDC5E",
"*. c #FBDD5F",
"=. c #FBDD60",
"-. c #FCE06B",
";. c #FCE06D",
":. c #FCE170",
">. c #FDE272",
",. c #FEE57B",
"<. c #FEE57D",
"1. c #D95080",
"2. c #DA5080",
"3. c #DA5180",
"4. c #DB5180",
"5. c #DA5081",
"6. c #DA5181",
"7. c #DC5182",
"8. c #DE5183",
"9. c #DD5282",
"0. c #DF5283",
"q. c #DF5383",
"w. c #DC5581",
"e. c #DF5284",
"r. c #DF5484",
"t. c #E05284",
"y. c #E05384",
"u. c #E15384",
"i. c #E05385",
"p. c #E15385",
"a. c #E25385",
"s. c #E35385",
"d. c #E15485",
"f. c #E25486",
"g. c #E35486",
"h. c #E35487",
"j. c #E45586",
"k. c #E55587",
"l. c #E35C85",
"z. c #E55588",
"x. c #E95789",
"c. c #EA568A",
"v. c #EA598C",
"b. c #EF598C",
"n. c #F0588E",
"m. c #F25A8E",
"M. c #F45A8F",
"N. c #F45A90",
"B. c #F45B91",
"V. c #F65B90",
"C. c #F65B91",
"Z. c #F75B91",
"A. c #F75C91",
"S. c #F75C92",
"D. c #FD5D94",
"F. c #FE5D94",
"G. c #FD5E95",
"H. c #FD5E96",
"J. c #DD6C81",
"K. c #E16E81",
"L. c #E16C83",
"P. c #E86D86",
"I. c #E37081",
"U. c #E57284",
"Y. c #EB778A",
"T. c #EB778B",
"R. c #FEE682",
"E. c #FFE786",
"W. c #FFE78A",
"Q. c #FFE88A",
"!. c #FFE98A",
"~. c #FFE98B",
"^. c #FFEC9B",
"/. c #FFEB9D",
"(. c #FFEC9E",
"). c #FFEDA5",
"_. c #FFEEA4",
"`. c #FFEDA7",
"'. c #FFEEA6",
"]. c #FEEEA9",
"[. c #FFEFAA",
"{. c #FEEFAC",
"}. c #FFEFAD",
"|. c #FFEFAE",
" X c #FFF1B5",
".X c None",
/* pixels */
".X.X.X.X.X.X.X.X.X.X.X.X.X.X.X.X.X.X.X.X.X.X.X.X.X.X.X....$.>.Q.Q.Q.Q.Q.Q..X.X.X.X.X.X.X.X.X.X.X.X.X.X.X.X.X.X.X.X.X.X.X.X.X.X.X",
".X.X.X.X.X.X.X.X.X.X.X.X.X.X.X.X.X.X.X.X.X.X.X.X.X.X@.........;.Q.Q.Q.Q.Q.Q..X.X.X.X.X.X.X.X.X.X.X.X.X.X.X.X.X.X.X.X.X.X.X.X.X.X",
".X.X.X.X.X.X.X.X.X.X.X.X.X.X.X.X.X.X.X.X.X.X.X.X.X[ ............<.Q.Q.Q.Q.Q.Q..X.X.X.X.X.X.X.X.X.X.X.X.X.X.X.X.X.X.X.X.X.X.X.X.X",
".X.X.X.X.X.X.X.X.X.X.X.X.X.X.X.X.X.X.X.X.X.X.X.X.X..............*.Q.Q.Q.Q.Q.Q..X.X.X.X.X.X.X.X.X.X.X.X.X.X.X.X.X.X.X.X.X.X.X.X.X",
".X.X.X.X.X.X.X.X.X.X.X.X.X.X.X.X.X.X.X.X.X.X.X.X......] b C ......R.Q.Q.Q.Q.Q.Q..X.X.X.X.X.X.X.X.X.X.X.X.X.X.X.X.X.X.X.X.X.X.X.X",
".X.X.X.X.X.X.X.X.X.X.X.X.X.X.X.X.X.X.X.X.X.X.X.X......^ f l ......>.Q.Q.Q.Q.Q.Q..X.X.X.X.X.X.X.X.X.X.X.X.X.X.X.X.X.X.X.X.X.X.X.X",
".X.X.X.X.X.X.X.X.X.X.X.X.X.X.X.X.X.X.X.X.X.X.X.X....] m d h S ....=.Q.Q.Q.Q.Q.Q..X.X.X.X.X.X.X.X.X.X.X.X.X.X.X.X.X.X.X.X.X.X.X.X",
".X.X.X.X.X.X.X.X.X.X.X.X.X.X.X.X.X.X.X.X.X.X.X.X....S d d d l ..] $.Q.Q.Q.Q.Q.Q..X.X.X.X.X.X.X.X.X.X.X.X.X.X.X.X.X.X.X.X.X.X.X.X",
".X.X.X.X.X.X.X.X.X.X.X.X.X.X.X.X.X.X.X.X.X.X.X.X....C d l M D ....@.^.(.(.(.(.(.^..X.X.X.X.X.X.X.X.X.X.X.X.X.X.X.X.X.X.X.X.X.X.X",
".X.X.X.X.X.X.X.X.X.X.X.X.X.X.X.X.X.X.X.X.X.X.X.X....D d l B ( ......}. X X X X X)..X.X.X.X.X.X.X.X.X.X.X.X.X.X.X.X.X.X.X.X.X.X.X",
".X.X.X.X.X.X.X.X.X.X.X.X.X.X.X.X.X.X.X.X.X.X.X......A d d d l ......]. X X X X X)..X.X.X.X.X.X.X.X.X.X.X.X.X.X.X.X.X.X.X.X.X.X.X",
".X.X.X.X.X.X.X.X.X.X.X.X.X.X.X.X.X.X.X.X.X.X.X.X....' b v d h ......}. X X X X X]..X.X.X.X.X.X.X.X.X.X.X.X.X.X.X.X.X.X.X.X.X.X.X",
".X.X.X.X.X.X.X.X.X.X.X.X.X.X.X.X.X.X.X.X.X.X.X.X......) C d h ......].}.}.}.}.}._..X.X.X.X.X.X.X.X.X.X.X.X.X.X.X.X.X.X.X.X.X.X.X",
".X.X.X.X.X.X.X.X.X.X.X.X.X.X.X.X.X.X.X.X.X.X.X.X..../ d d d h ....@.Q.Q.Q.Q.Q.Q..X.X.X.X.X.X.X.X.X.X.X.X.X.X.X.X.X.X.X.X.X.X.X.X",
".X.X.X.X.X.X.X.X.X.X.X.X.X.X.X.X.X.X.X.X.X.X.X.X...._ l d f M ....%.Q.Q.Q.Q.Q.Q..X.X.X.X.X.X.X.X.X.X.X.X.X.X.X.X.X.X.X.X.X.X.X.X",
".X.X.X.X.X.X.X.X.X.X.X.X.X.X.X.X.X.X.X.X.X.X.X.X......D d x ......-.Q.Q.Q.Q.Q.Q..X.X.X.X.X.X.X.X.X.X.X.X.X.X.X.X.X.X.X.X.X.X.X.X",
".X.X.X.X.X.X.X.X.X.X.X.X.X.X.X.X.X.X.X.X.X.X.X.X......` h b ......<.Q.Q.Q.Q.Q.Q..X.X.X.X.X.X.X.X.X.X.X.X.X.X.X.X.X.X.X.X.X.X.X.X",
".X.X.X.X.X.X.X.X.X.X.X.X.X.X.X.X.X.X.X.X.X.X.X.X.X..............$.Q.Q.Q.Q.Q.Q..X.X.X.X.X.X.X.X.X.X.X.X.X.X.X.X.X.X.X.X.X.X.X.X.X",
".X.X.X.X.X.X.X.X.X.X.X.X.X.X.X.X.X.X.X.X.X.X.X.X.X..............>.Q.Q.Q.Q.Q.Q..X.X.X.X.X.X.X.X.X.X.X.X.X.X.X.X.X.X.X.X.X.X.X.X.X",
".X.X.X.X.X.X.X.X.X.X.X.X.X.X.X.X.X.X.X.X.X.X.X.X.X.X..........&.Q.Q.Q.Q.Q.Q..X.X.X.X.X.X.X.X.X.X.X.X.X.X.X.X.X.X.X.X.X.X.X.X.X.X",
".X.X.X.X.X.X.X.X.X.X.X.X.X.X.X.X.X.X.X.X.X.X.X.X.X.X.X......*.E.Q.Q.Q.Q.Q..X.X.X.X.X.X.X.X.X.X.X.X.X.X.X.X.X.X.X.X.X.X.X.X.X.X.X",
".X.X.X.X.X.X.X.X.X.X.X.X.X.X.X.X.X.X.X.X.X.X.X.X.X.X.X.X.X.X.X.X.X.X.X.X.X.X.X.X.X.X.X.X.X.X.X.X.X.X.X.X.X.X.X.X.X.X.X.X.X.X.X.X",
".X.X.X.X.X.X.X.X.X.X.X.X.X.X.X.X.X.X.X.X.X.X.X.X.X.X.X.X.X.X.X.X.X.X.X.X.X.X.X.X.X.X.X.X.X.X.X.X.X.X.X.X.X.X.X.X.X.X.X.X.X.X.X.X",
".X.X.X.X.X.X.X.X.X.X.X.X.X.X.X.Xp i P J J J J J J J J J J J J J J J E Q Q U L L L L L L L L L I .X.X.X.X.X.X.X.X.X.X.X.X.X.X.X.X",
".X.X.X.X.X.X.X.X.X.X.X.X.X.X.X.X1 , a r r r r r r r r r r r r r r r R ! ! J r r r r r r r r r r .X.X.X.X.X.X.X.X.X.X.X.X.X.X.X.X",
".X.X.X.X.X.X.X.X.X.X.X.X.X.X.X.X, , a r r r r r r r r r r r r r r r R ! ! P r r r r r r r r r r .X.X.X.X.X.X.X.X.X.X.X.X.X.X.X.X",
".X.X.X.X.X.X.X.X.X.X.X.X.X.X.X.X, , a r r r r r r r r r r r r r r r R ! ! J r r r r r r r r r r .X.X.X.X.X.X.X.X.X.X.X.X.X.X.X.X",
".X.X.X.X.X.X.X.X.X.X.X.X.X.X.X.X, , a r r r r r r r r r r r r r r r R ! ! P r r r r r r r r r r .X.X.X.X.X.X.X.X.X.X.X.X.X.X.X.X",
".X.X.X.X.X.X.X.X.X.X.X.X.X.X.X.X, , a r r r r r r r r r r r r r r r R ! ! J r r r r r r r r r r .X.X.X.X.X.X.X.X.X.X.X.X.X.X.X.X",
".X.X.X.X.X.X.X.X.X.X.X.X.X.X.X.X, , a r r r r r r r r r r r r r r r R ! ! P r r r r r r r r r r .X.X.X.X.X.X.X.X.X.X.X.X.X.X.X.X",
".X.X.X.X.X.X.X.X.X.X.X.X.X.X.X.X, , a r r r r r r r r r r r r r r r R ! ! J r r r r r r r r r r .X.X.X.X.X.X.X.X.X.X.X.X.X.X.X.X",
".X.X.X.X.X.X.X.X.X.X.X.X.X.X.X.X, , a r r r r r r r r r r r r r r r R ! ! P r r r r r r r r r r .X.X.X.X.X.X.X.X.X.X.X.X.X.X.X.X",
".X.X.X.X.X.X.X.X.X.X.X.X.X.X.X.X, , a r r r r r r r r r r r r r r r R ! ! K r r r r r r r r r r .X.X.X.X.X.X.X.X.X.X.X.X.X.X.X.X",
".X.X.X.X.X.X.X.X.X.X.X.X.X.X.X.X6 , a r r r r r r r r r r r r r r r R Q ! K r r r r r r r r r s .X.X.X.X.X.X.X.X.X.X.X.X.X.X.X.X",
".X.X.X.X.X.X.X.X.X.X.X.X.X.X.X.X.X.X.X.X9 9 9 9 9 9 9 9 6 6 4 4 8 8 8 5 7 8 8 8 9 9 8 y .X.X.X.X.X.X.X.X.X.X.X.X.X.X.X.X.X.X.X.X",
".X.X.X.X.X.X.X.X.X.X.X.X.X.X.X.X.X.X.X.X< , , , , , , , , , , , , , , , , , , , , , , 3 .X.X.X.X.X.X.X.X.X.X.X.X.X.X.X.X.X.X.X.X",
".X.X.X.X.X.X.X.X.X.X.X.X.X.X.X.X.X.X.X.X3 , 4 e e e e e e e e e w Y T T u w w w e e e e .X.X.X.X.X.X.X.X.X.X.X.X.X.X.X.X.X.X.X.X",
".X.X.X.X.X.X.X.X.X.X.X.X.X.X.X.X.X.X.X.X3 , q r r r r r r r r r r ! ! ! H r r r r r r r .X.X.X.X.X.X.X.X.X.X.X.X.X.X.X.X.X.X.X.X",
".X.X.X.X.X.X.X.X.X.X.X.X.X.X.X.X.X.X.X.X3 , q r r r r r r r r r r E Q ! H r r r r r r r .X.X.X.X.X.X.X.X.X.X.X.X.X.X.X.X.X.X.X.X",
".X.X.X.X.X.X.X.X.X.X.X.X.X.X.X.X.X.X.X.X3 , q r r r r r r r r r r ! Q Q H r r r r r r r .X.X.X.X.X.X.X.X.X.X.X.X.X.X.X.X.X.X.X.X",
".X.X.X.X.X.X.X.X.X.X.X.X.X.X.X.X.X.X.X.X3 , q r r r r r r r r r r E ! ! H r r r r r r r .X.X.X.X.X.X.X.X.X.X.X.X.X.X.X.X.X.X.X.X",
".X.X.X.X.X.X.X.X.X.X.X.X.X.X.X.X.X.X.X.X3 , q r r r r r r r r r r ! ! ! H r r r r r r r .X.X.X.X.X.X.X.X.X.X.X.X.X.X.X.X.X.X.X.X",
".X.X.X.X.X.X.X.X.X.X.X.X.X.X.X.X.X.X.X.X3 , q r r r r r r r r r r ! ! ! H r r r r r r r .X.X.X.X.X.X.X.X.X.X.X.X.X.X.X.X.X.X.X.X",
".X.X.X.X.X.X.X.X.X.X.X.X.X.X.X.X.X.X.X.X3 , q r r r r r r r r r r ! ! ! H r r r r r r r .X.X.X.X.X.X.X.X.X.X.X.X.X.X.X.X.X.X.X.X",
".X.X.X.X.X.X.X.X.X.X.X.X.X.X.X.X.X.X.X.X3 , q r r r r r r r r r r E ! ! H r r r r r r r .X.X.X.X.X.X.X.X.X.X.X.X.X.X.X.X.X.X.X.X",
".X.X.X.X.X.X.X.X.X.X.X.X.X.X.X.X.X.X.X.X3 , q r r r r r r r r r r ! ! ! H r r r r r r r .X.X.X.X.X.X.X.X.X.X.X.X.X.X.X.X.X.X.X.X",
".X.X.X.X.X.X.X.X.X.X.X.X.X.X.X.X.X.X.X.X3 , q r r r r r r r r r r ! Q ! H r r r r r r r .X.X.X.X.X.X.X.X.X.X.X.X.X.X.X.X.X.X.X.X",
".X.X.X.X.X.X.X.X.X.X.X.X.X.X.X.X.X.X.X.X3 , q r r r r r r r r r r E ! ! H r r r r r r r .X.X.X.X.X.X.X.X.X.X.X.X.X.X.X.X.X.X.X.X",
".X.X.X.X.X.X.X.X.X.X.X.X.X.X.X.X.X.X.X.X3 , q r r r r r r r r r r E ! ! H r r r r r r r .X.X.X.X.X.X.X.X.X.X.X.X.X.X.X.X.X.X.X.X",
".X.X.X.X.X.X.X.X.X.X.X.X.X.X.X.X.X.X.X.X3 , q r r r r r r r r r r ! ! ! H r r r r r r r .X.X.X.X.X.X.X.X.X.X.X.X.X.X.X.X.X.X.X.X",
".X.X.X.X.X.X.X.X.X.X.X.X.X.X.X.X.X.X.X.X3 1 q r r r r r a r r r r ! Q ! H r r r r r r r .X.X.X.X.X.X.X.X.X.X.X.X.X.X.X.X.X.X.X.X",
".X.X.X.X.X.X.X.X.X.X.X.X.X3.9.F.H.H.H.G.K.J.K.I.K.G % = K.> U.> I.Y.Y.Y.U.: F % - I.I.P.H.H.G.G.H.F.F..X.X.X.X.X.X.X.X.X.X.X.X.X",
".X.X.X.X.X.X.X.X.X.X.X.X.X  O F.G.G.G.G.G.G.G.G.G.;   3.F.H.G.G.H.H.H.H.H.H.*   k.H.H.G.H.H.H.G.H.H.H..X.X.X.X.X.X.X.X.X.X.X.X.X",
".X.X.X.X.X.X.X.X.X.X.X.X.X  X F.G.H.G.G.G.G.G.H.G.l.  9.H.H.H.H.A.H.G.G.H.H.& # k.H.G.G.H.H.G.G.G.H.H..X.X.X.X.X.X.X.X.X.X.X.X.X",
".X.X.X.X.X.X.X.X.X.X.X.X.X  # F.H.H.H.H.G.G.H.H.G.v.  3.H.H.H.H.H.H.G.G.F.H.q.  k.H.G.G.H.H.G.F.G.H.H..X.X.X.X.X.X.X.X.X.X.X.X.X",
".X.X.X.X.X.X.X.X.X.X.X.X.XX X z.z.k.k.k.k.k.z.z.s.j.  # k.z.k.k.k.k.k.k.z.z.9.  3.k.k.k.z.z.h.h.k.k.k..X.X.X.X.X.X.X.X.X.X.X.X.X",
".X.X.X.X.X.X.X.X.X.X.X.X.XX X               X     s.      #                 r.                        .X.X.X.X.X.X.X.X.X.X.X.X.X",
".X.X.X.X.X.X.Xq.v..X.X.X.Xs.r.s.s.s.s.r.r.r.s.k.s.B.s.s.r.s.s.s.s.u.s.s.s.z.B.s.s.s.r.h.h.r.q.s.9.r.s..X.X.X.X.X.X.X.X.X.X.X.X.X",
".X.X.X.X.X.Xq.  z.H.H.H.G.G.G.G.G.G.F.9.X b.H.A.G.G.G.G.G.G.G.G.#   S.F.G.G.G.G.G.G.G.G.S.  X H.F.H.G.G.F.H.H.H.H.H..X.X.X.X.X.X",
".X.X.X.X.X.X8.  z.F.H.H.G.G.G.G.G.H.H.9.X b.H.H.G.G.G.G.G.G.G.H.    M.F.G.G.G.G.G.G.G.F.B.  # H.H.H.G.H.H.H.H.H.H.D..X.X.X.X.X.X",
".X.X.X.X.X.Xq.  z.F.F.F.G.H.H.A.F.H.H.&   n.A.H.G.G.G.G.F.H.H.H.    S.F.G.G.G.G.F.F.F.F.M.  # H.H.D.F.H.F.F.F.F.H.F..X.X.X.X.X.X",
".X.X.X.X.X.Xq.  s.S.S.A.S.S.A.A.S.S.M.&   c.A.S.S.S.S.S.S.S.M.A.    n.M.S.S.S.S.Z.Z.S.S.n.    A.S.S.M.S.Z.A.S.S.S.S..X.X.X.X.X.X",
".X.X.X.X.X.X9.  X           X         &                       X                         9.                        9..X.X.X.X.X.X",
".X.X.X.X.X.Xs.                      # u.                      3.3.                      u.#                       s..X.X.X.X.X.X"
};
