/* XPM */
static char *mario_pow[] = {
/* columns rows colors chars-per-pixel */
"64 64 231 2 ",
"   c #0D0C04",
".  c #0F0E09",
"X  c #050601",
"o  c #150E0C",
"O  c #14140C",
"+  c #1A150E",
"@  c #1D1A0D",
"#  c #17180A",
"$  c #150E13",
"%  c #161511",
"&  c #191612",
"*  c #1C1913",
"=  c #1C1B18",
"-  c #0F0F0D",
";  c #21190C",
":  c #211509",
">  c #211D14",
",  c #241F19",
"<  c #1E2117",
"1  c #232115",
"2  c #25211A",
"3  c #282219",
"4  c #282216",
"5  c #33261F",
"6  c #0F102D",
"7  c #2B2923",
"8  c #282721",
"9  c #322E2A",
"0  c #342C25",
"q  c #36322C",
"w  c #38332B",
"e  c #36382E",
"r  c #2B383D",
"t  c #28353A",
"y  c #3C3A34",
"u  c #3D3B39",
"i  c #383734",
"p  c #302C31",
"a  c #1F2D35",
"s  c #443D3A",
"d  c #3F4036",
"f  c #42423B",
"g  c #40503E",
"h  c #0E1149",
"j  c #0E1146",
"k  c #10144E",
"l  c #293B46",
"z  c #353B4B",
"x  c #353652",
"c  c #383952",
"v  c #383A55",
"b  c #22274E",
"n  c #050F70",
"m  c #2A3C74",
"M  c #142568",
"N  c #403F4B",
"B  c #35414E",
"V  c #3A414A",
"C  c #314959",
"Z  c #2E4F54",
"A  c #36416C",
"S  c #314D68",
"D  c #365C65",
"F  c #365B6D",
"G  c #385C6C",
"H  c #34576A",
"J  c #344F70",
"K  c #386374",
"L  c #4D4D4A",
"P  c #484845",
"I  c #4F504D",
"U  c #53524E",
"Y  c #555553",
"T  c #5B5A56",
"R  c #5C5C5A",
"E  c #555757",
"W  c #504C4B",
"Q  c #625E59",
"!  c #61615E",
"~  c #4B5070",
"^  c #526973",
"/  c #6E6E6A",
"(  c #686764",
")  c #73716E",
"_  c #757474",
"`  c #7B7A75",
"'  c #7C7B7A",
"]  c #787776",
"[  c #716F70",
"{  c #827E7D",
"}  c #82817D",
"|  c #131A85",
" . c #142593",
".. c #1A2B98",
"X. c #112892",
"o. c #162EAF",
"O. c #1C2EAC",
"+. c #1423A8",
"@. c #1D34AD",
"#. c #1736A7",
"$. c #1B2EB2",
"%. c #1D35B2",
"&. c #1F37BC",
"*. c #0422A6",
"=. c #252DAC",
"-. c #232BA7",
";. c #2135AD",
":. c #2339AB",
">. c #2335B4",
",. c #2239B6",
"<. c #2334B9",
"1. c #2438B8",
"2. c #2B38B6",
"3. c #262DB0",
"4. c #253686",
"5. c #3F5486",
"6. c #3C4CBC",
"7. c #3347BB",
"8. c #374CB5",
"9. c #3F6582",
"0. c #4A5598",
"q. c #4E738C",
"w. c #6C7991",
"e. c #5064B4",
"r. c #6C78AE",
"t. c #4255BB",
"y. c #2938C3",
"u. c #3649C3",
"i. c #3749C3",
"p. c #3D55C6",
"a. c #546FC8",
"s. c #6478C4",
"d. c #5771E5",
"f. c #5A73E7",
"g. c #5D76E8",
"h. c #657CE7",
"j. c #4557C1",
"k. c #548597",
"l. c #6F858D",
"z. c #578BAD",
"x. c #6F90B1",
"c. c #76ACB6",
"v. c #768DD3",
"b. c #7789CD",
"n. c #78B1CD",
"m. c #6D82E6",
"M. c #7788E8",
"N. c #7EC3DE",
"B. c #7CCAE4",
"V. c #7FD2EA",
"C. c #848483",
"Z. c #8A8987",
"A. c #9A9A98",
"S. c #8F9492",
"D. c #9DA09E",
"F. c #A3A19D",
"G. c #859DA7",
"H. c #8DA7B5",
"J. c #A8A8A5",
"K. c #B8B6B5",
"L. c #B0B3B2",
"P. c #8599CC",
"I. c #8A9ED0",
"U. c #8DA2CC",
"Y. c #92A5CB",
"T. c #98ABCA",
"R. c #8BB7D0",
"E. c #A8BAC8",
"W. c #B3BFCD",
"Q. c #94A0EC",
"!. c #85C3D9",
"~. c #82D0DD",
"^. c #B8CAD0",
"/. c #89C2E4",
"(. c #8BCEEC",
"). c #85C9E5",
"_. c #93CEE5",
"`. c #82D1E7",
"'. c #8DD1E4",
"]. c #84D2EB",
"[. c #8ED3EB",
"{. c #8AD9ED",
"}. c #91D4EB",
"|. c #98DAE7",
" X c #8DD3F1",
".X c #8CDAF6",
"XX c #91D3F4",
"oX c #96DBF8",
"OX c #85CFF7",
"+X c #A2D6E6",
"@X c #99E6FB",
"#X c #A5E8F5",
"$X c #BDEFF6",
"%X c #B7ECF6",
"&X c #BDF2F4",
"*X c #B8F1F9",
"=X c #AEE8F3",
"-X c #CAC9C7",
";X c #DEDEDC",
":X c #D6D6D5",
">X c #D1D0CC",
",X c #E1DFDD",
"<X c #DFE0DD",
"1X c #E1E1DE",
"2X c #D4DBE2",
"3X c #E0DFE4",
"4X c #C5EEF6",
"5X c #C6EEFA",
"6X c #C1F2F4",
"7X c #C2F2F9",
"8X c #CDF4F9",
"9X c #CBF5F6",
"0X c #D7F6FB",
"qX c #D4E9EB",
"wX c #E4E4E3",
"eX c #E9E6E5",
"rX c #E7E8E6",
"tX c #EAE9E6",
"yX c #E6E6EA",
"uX c #ECECEC",
"iX c #E6E8EA",
"pX c #F1EEEE",
"aX c #EDF1EE",
"sX c #F2F2EF",
"dX c #EEEDF1",
"fX c #F1EFF3",
"gX c #EEF1F1",
"hX c #EAF8FC",
"jX c #F2F2F2",
"kX c #FDFDFD",
"lX c #F7F8F9",
/* pixels */
"kXkXkXhX^._.|.#X=X*X*X*X*X*X$X4X$X7X$X$X7X$X$X$X7X$X7X$X$X$X$X$X%X*X&X$X&X*X&X&X&X&X&X6X6X&X7X$X7X7X7X7X6X4X4X6X7X7X9XiXlXkXkXkX",
"kXkXkXT.n.(.OXOXOX`.'.'.`.'.(.[.}.[.(._._.(.}. X(.XX X(.(.(.(.(.[.(.(. X[.[.[.'.[.[.'.[._.'.'.'.'.'.'._.'.'._.'.'._.|.%X0XkXkXkX",
"lXkXE.z..X(.(. X[. XXX XXXXXXX XXX X X X XXX XXX}.}.}.}.}.}.}.}.[.}.[.[.'.}.[.}.[.}.[.[.[.[.[.[.[.}.[.[.[.[.[.[.XXoX).`.=XhXkXkX",
"kX2Xk.~.OX).n.q.K G D D D D D D D D D F D D D F F F F H F F F F F F G G F H F F F F F F F F F F F F G G G H F D Z ^ _.].'.6XhXkX",
"jXk.n..XB.[.z.a.s.s.b.v.v.v.P.P.P.P.P.P.I.I.I.U.U.U.I.Y.Y.Y.Y.Y.Y.Y.Y.Y.Y.T.Y.Y.Y.T.T.T.T.T.T.T.T.E.E.W.^.^.-X^.>X! H @XB.{.9XlX",
"D.z.oXB.#XR.@.7.,.7.7.7.i.6.u.7.u.u.u.u.u.i.i.i.i.u.u.7.u.7.i.i.u.i.i.i.u.u.i.i.u.u.i.i.u.6.8.7.i.p.t.6.6.6.t.8.r.hXV ^ @XB.#X9X",
"^ n..X|.4X4.O.%.#.O.3.$.O.$.$.$.$.3.$.O.O.O.O.O.O.O.O.O.O.O.$.O.O.O.O.$.O.O.$.O.@.$.$.$.$.$.O.%.O.o.o.O.O.O.o.%.*.8.2Xb n.{.{.#X",
"K `.V.8Xr.n y.%.>.>.;.;.;.>.>.>.>.>.<.<.<.<.<.>.,.>.>.>.>.;.>.;.>.>.;.;.>.>.;.>.>.%.%.,.%.%.%.%.%.%.>.>.3.2.3.:.#.#.v.w.H @XV.#X",
"D ~.].8X5. .&.%.;.>.>.>.;.>.;.>.;.=.>.;.>.;.;.;.;.;.@.=.;.>.;.>.;.>.>.;.>.>.>.;.>.=.;.;.;.;.;.;.>.:.:.@.;.;.>.&.%.%.p.r.J oX(.#X",
"Z N.`.7X5.X.1.<.;.>.%.,.>.%.O.;.:.:.@.;.;.@.%.;.;.;.@.>.>.>.3.>.>.;.>.%.%.3.=.>.>.@.;.>.>.>.>.;.@.%.%.%.@.@.@.@.;.@.p.e.D oX].#X",
"D /.}.0X5.X.2.,.>.>.:.>.:.,.>.>.,.,.1.>.<.,.,.,.,.,.,.,.,.>.1.1.,.,.,.,.,.,.,.,.,.,.,.<.,.,.,.>.,.,.,.,.&.&.&.@.:.#.p.a.K |..X#X",
"t C B G.A 6 k h h h h h h j j j h h h j h h h h h h h h h h h h h j h j h h h h h h h h h h h h h h h j j j h h j j b 0.l D Z H.",
"-X-X9 X = $ $ $ $ $ $ $ % $ o o o o + o o o o o o o o o $ O o O o $ o o $ o % $ o o o $ o o $ O O o $ O o $ o % $ $ - =   * L.>X",
"kXkXP O < 1 1 = 1 4 > > 1 1 1 > > , > , , , , , , , , , > > 1 = , > , , , , 1 = 1 , < 1 2 , 2 = , > 1 > < , 1 < < < < < @ p lXkX",
"kXkXu . 1 * > * > > * > > > > > 3 , , 3 , , , , 2 , , 2 , > > > > ; > , 4 1 , 2 , 1 1 2 , , , 2 1 1 1 1 , * = 8 8 = 1 4 , 0 tXkX",
"kXkXI 2 q 9 9 9 9 0 9 9 0 9 9 0 & , , , , , , , , , , * 7 9 9 9 9 9 9 7 + , 2 1 1 , 1 = 3 p 9 , = > 1 > 8 9 p , = 2 4 > 4 s tXkX",
"L.wXtX1XtXsX1XsXrXtXtXtXtXtXtXrXA.O 2 , 2 , , , , , ; Q >XeXeXtXtXtXrXrXA.+ 2 3 2 , , = Z.tXaXK.= 2 2 * Z.tXpXK.> , 2 * S.eXpXuX",
"_ ;X1X1X1X1X1X1X<X<X<X<X<X<X<X<XkXJ.O 1 2 , , , , : Q -XeX,XeX,X1X<X1X<XkXJ.O 1 2 , 2 = { 1XrXtX7 2 8 * } eXeXeX7 , 2 = { tX<XuX",
"C.,X,X,X1X1X1X1XwXrXiXrXtXtXaXrX:XkXJ.% , , 2 2 : Q -X,X,X,X,X,X1XrXtXtX;XkXJ.; = 2 2 & ) wX<X1X7 > 2 + ' eX<XwX7 > 2 * } rX<XtX",
"l.,X,X,X1X1X1X1X-X} ! ! ! ! ! F.wX;XkXF.& 2 2 * U >X,X,X,X,X,X,XJ.! Q Z.1X:XkXF.+ 3 1 + ] rX<XrX7 > 3 + ' wX<XwX7 = 2 * } rX<XtX",
"C.1X<X<X<X1X1X<XC.%   o o . . = A.tX;XsXq > 2 * ! ,X1X1X1X;XwX-XU   . . C.tX,XtX0 > 2 + _ 1X1XrX7 > , : { wXwXiX7 > , = C.rX<XtX",
"} wX1X1X1X1X1XtXY o 2 1 , = & $ I 1X<XtXy * 3 + Q 1X1X,X1X<X1X1Xe @ > # Q wX,XeXw > 2 % _ rX1XtX7 > , * { eXwXwX7 > , = } rX<XuX",
"C.1X1XwX1X1X1XsXs @ 2 , , 2 2 & ( wX<XaXy @ 3 + T ,X1X;X1X;X1XuXy > 3 + ) wX1XtXq > 2 & ` 1X1XtX7 > , * ` 1X1XwX7 < 2 * } rX;XuX",
"C.wX1XwX1X1X1XaXf * , , , , , * / rX<XuXy @ 4 # R 3XwX1X1X1X1XsXy + 3 & _ eX1XtXw > 2 & ` tX1X1X7 > , : ` 1XeXrX7 > 2 = ' rX<XtX",
"} wXwXwX1XwX3XuXf @ 2 , , , 3 * / rX<XaXe @ 4 # R 3XwX1XwX1X1XuXs # 2 = [ eX3XeXe * 2 & _ rX1X1X7 > 3 + ` rXwXwX8 = 3 * } iX<XtX",
"C.wXwXwXwXwXwXdXd & 2 , , , 3 ; / rX1XuXy @ 4 # R wXrX<X1XwXwXuXs + 2 & _ eXwXtXw > 3 & ] rXrX1X0 > , + ` rX<XwX7 1 1 * ' tXwXtX",
"C.wXwXwXwXwXwXjXu * 2 , , , , * / rX1XaXy @ 3 # R 3XrX<X1X1X1XuXy @ 2 = [ eX,XtXw > 3 & ) rXwX1X7 , 4 + ` 1XwXrX7 = 2 & ' tXwXtX",
"C.iXwXwXwXwXyXjXf * 3 , , , , * / rX1XuXe < 3 # R iXrX<XwX1XwXsXy * 3 & [ eXeXpXe * 3 % ] rXrXrX0 > 4 # ` tXwXwX7 = 2 = ' tXwXtX",
"C.tXeXiXwXeXiXpXd @ , , , , 3 * / tX1XsXe ; 3 # R iXwXwXwXwXwXuXu * , & ) eXyXuXw ; 3 & ] iXtXtX7 > 4 + ] tX1XwX8 > > = ' uXwXtX",
"C.uXiXiXtXwXiXgXd + 3 , , , , * / rX1XaXy * 3 * R iXtXwXwXwXwXuXu * 4 * ) eXyXyXe ; 3 % ] tXtX1X7 > 4 + ] rXrXrX7 > , = ' tXwXuX",
"Z.uXiXiXtXiXyXjXd @ 2 , , , 3 * / tXrXaXy * 3 # R iXtXwXwXwXwXpXu + 3 * _ eXeXeXw ; 3 % ] uXtXwX0 > 4 + ] tXwXiX8 * 2 = ' tXwXtX",
"C.uXtXuXtXtXuXdXd & 2 , , , 3 * / tX1XaXy * 3 # R iXuXrXrXwXwXaXu + , & [ eXyXyXw > 3 % ] iXeXwX7 , 4 + _ rXrXiX3 1 , = ] rXiXuX",
"C.uXtXuXuXtXtXsXf * 2 , , , 4 + / 1XrXaXy * 4 % R yXuXiXiXiXtXuXi ; 1 * ) tXyXtXq ; , & ] pXtXtX7 > 4 + _ yXtXyX8 * , = _ uXwXdX",
"C.uXuXuXuXuXtXsXu * 3 , 1 2 3 * / tXrXaXe * 3 % R uXuXtXtXuXtXdXi * , * _ eXyXuXw ; 3 * ] uXtXtX7 > 3 + [ dXtXyX8 > , = _ uXwXuX",
"Z.dXuXuXuXiXtXkXU   > * * * * > } tXrXtXy * 3 # E dXuXtXuXtXtXgXu * 3 & ) uXyXuXq > , & ] sXtX1X7 > 3 + _ dXiXtX8 * 3 & ] uXiXuX",
"C.uXuXuXuXuXuXsX:XY u u u y s _ K.aXrXaXq = 3 % E yXuXuXuXuXuXdXu * 2 & _ tXyXuXq > , & ] aXuXrX7 > , + _ dXtXiX7 < 2 = ' dXtXuX",
"C.gXdXdXaXuXpXuXsXkXjXjXfXjXdX:XaXuX1X} = , 2 # E uXdXtXuXuXjXjXs * 8 & _ fXuXeXw ; , & ` pXpXeX7 > 2 * _ aXuXtX7 = 2 & ] gXuXuX",
"C.gXuXdXuXuXuXuXuXtXuXdXdXtXtXdXaX:X( + , , 2 # Y dXuXuXuXuXuXjXu * , & _ fXpXeXw > 8 & ` sXtXwX7 , 3 % / aXuXeX7 2 2 % _ dXuXuX",
"C.gXgXuXpXuXpXtXdXjXjXjXgXaXsXuX-X! + 2 , , 2 O Y uXpXuXdXuXuXjXy + 3 & _ jXtXtXw > 3 & ` jXfXeX, & & 2 S.jXuXwX, = & , A.jXtXdX",
"C.jXuXjXpXpXsX,Xw.R R Y Y U U Y y + 2 , 2 1 2 + Y dXjXuXuXuXjXjXy + 3 & _ jXpXtX9 > 2 & ` jXfXjXQ s i R ;XaXuXfXR i i ( :XdXuXdX",
"C.jXpXgXuXuXjXjXP X . o - . . . % 2 , , , , 2 + Y aXaXaXuXaXpXjXs @ 2 & ] lXpXeXq > , * ] jXdXjXlXjXtX>XtXuXuXfXlXlXtX:XuXyXpXpX",
"C.jXuXjXsXuXjXjXe + , > , > , , 2 1 , , 2 , 1 % Y iXaXaXaXpXjXjXy > 3 + ) fXpXpXq ; 2 + ' lXdXuXpXaXgXjXdXuXuXdXuXdXdXpXuXuXdXdX",
"C.jXuXuXsXaXfXjXf @ 3 2 1 2 2 2 2 , , , , , 2 = Y uXgXgXpXgXuXjXw o > o ] jXfXuXw > 3 + ' jXuXuXpXuXdXuXdXdXjXdXuXuXuXuXuXuXuXuX",
"Z.dXdXgXuXuXfXlXf * , , , , , , 2 , , , , , , = u <XlXuXaXpXuXkXL.y y T K.lXfXeX0 ; 2 & ' lXuXdXsXuXuXuXkXA.C.lXtXdXdXuXdXuXsXdX",
"C.uXuXpXsXuXjXjXu & 2 , , , , , , , 3 , , , , * O E uXjXuXgXuXdXlXlXuX<XaXaX:X_ @ 1 1 & ] lXuXgXuXuXgXuXlX( , iXaXaXuXuXuXuXdXuX",
"Z.jXsXuXuXpXjXjXs ; 2 2 , , , , , , , , , , , > = O E iXlXiXgXdXtXsXgXgXjX-XY % 3 1 , = _ lXdXdXdXuXpXjXtXP X D.kXiXaXaXgXuXjXgX",
"( 3XsXsXpXpXpXjXP + 3 , , 3 , , , , , , , , 2 2 = & - E <XgXdXgXaXgXaXuXL.L + 2 > 1 2 * U ;XfXpXfXpXpXpXK., O d rXaXaXaXuXjX<X^.",
"_ R T L W W Q } 0 > , , , , , , , , , , , , , 1 3 = & % i I L I L L L P e & , > , 1 1 * 8 s W L L W P Y P = < * f I L L L U ( F.",
"kXlXu X o . o + < 1 , , , , , , , , , , , , , 4 4 2 * & O . . . . .   O = 2 > 1 1 1 4 * + o . o o o o o = 1 > % O   .     * wXkX",
"lXkXf O 1 , , 2 2 1 2 1 2 , 2 2 , , , 8 , , , 1 1 1 1 1 = , , , , , , , 2 1 1 1 1 1 4 2 , , , 2 , , , 2 2 1 1 1 2 1 1 1 4 9 uXkX",
"kXkXy   > ; : # & * ; @ : : ; ; ; ; ; ; ; ; ; : : @ ; ; > ; ; > @ ; @ @ # + @ @ @ @ ; @ @ @ @ @ @ * & & & + @ ; * > * > : 7 eXkX",
"hXhX^ d u x c z x x c x x x x x c c c c c x x c z c c v c c c z z z B z B z V V B V B B B B V z B z z P P c P V B V V i P E iXhX",
"w.=X%XhXq.j.h.d.d.d.d.d.d.d.d.d.f.f.f.f.g.g.f.g.g.g.g.g.g.m.g.h.h.h.h.h.h.m.h.m.m.m.m.m.m.m.M.m.M.M.m.m.M.M.M.M.h.Q.Q.T.G.7X%XqX",
"Z R.).hX0.| 2.=.=.3.3.3.=.3.3.3.3.3.=.;.;.-.=.=.=.=.=.=.-.O.-.=.#.@.O.;.@.=.;.O.#.#.O.O.O.O.O.O.o.O.#.#.#.#.#.o...+.e.T.J [._.0X",
"C !.`.0X~ | <.#.&.<.,.%.,.,.<.&.<.%.,.%.;.>.%.,.>.%.%.,.%.%.<.,.<.>.>.>.<.<.<.<.<.<.>.<.<.<.<.,.,.<.<.<.,.<.<.>.>.$.p.r.9. X_.4X",
"C !.`.0X~ | y.#.,.%.@.>.@.%.;.@.%.:.@.%.:.@.>.@.@.:.>.@.@.:.%.@.;.;.;.>.;.;.>.;.;.;.>.;.;.;.;.;.;.;.;.>.;.;.;.;.<.<.u.5.9. X(.%X",
"Z N.B.0Xw.n y.%.#.;.;.;.;.;.;.;.;.;.@.;.;.;.%.>.;.;.;.;.;.;.-.:.;.;.;.;.;.;.;.;.:.;.;.;.;.;.;.;.;.;.;.;.;.;.;.<.<.3.O.m k.].OX#X",
"B R.'.+XiXb ..y.,.>.1.2.>.1.2.>.2.2.1.1.2.>.2.2.1.2.>.2.>.1.2.2.2.>.>.2.1.>.>.2.2.2.>.>.1.2.1.1.,.1.1.1.>.>.1.:.2...M z.B.].).+X",
"/ K oXN.%XW.j n  . . . . . . . ... . . . ... . . . . . . . . . . . . . .X. . . . . . . . .X. . . . . . . . . ... .n z.)..X.XR.+X",
"aXB x.oX!.8XH.v A A A A A A A m v A A m m v A A A A A A A A A m m A A A A A A A A A A m A A A A A A A A A A A m m x._./. Xn.G.lX",
"lX>Xa !.].).7X0X9X8X8X8X0X9X8X8X8X8X8X8X8X8X8X8X9X8X8X8X8X8X8X8X8X8X8X8X9X8X8X8X8X8X8X8X8X8X8X8X9X9X8X8X8X8X8X9X9X#X).{.).q.2XkX",
"hXkXS.B @X.XB.OX].].`.].`.`.`.`.`.`.`.`.`.`.`.`.`.`.`.`.`.`.`.`.`.`.`.`.`.`.`.`.`.`.`.`.`.`.`.`.`.`.`.`.`.`.`.`.`.]. X.Xq.E.kXkX",
"kXkXlX! l c.!.!.R./././././.!././././././././././././././././././././././././././././././././././././././././.)./.R.R.D l.kXkXkX",
"kXkXkXhX[ p l l r l r r r r r r r r r r r r r r r r r r r r r r r r r r r r r r r r r r r r r r r r r r r r l e r l z l.lXlXkXkX"
};
