/* XPM */
static char *mushroom_528111[] = {
/* columns rows colors chars-per-pixel */
"64 64 184 2 ",
"   c #4A3C3F",
".  c #583A3F",
"X  c #79373A",
"o  c #7C383B",
"O  c #6C393C",
"+  c #2F3C43",
"@  c #323E44",
"#  c #3C3E44",
"$  c #493F44",
"%  c #6D3E41",
"&  c #354146",
"*  c #364248",
"=  c #3A454B",
"-  c #3E494F",
";  c #3A4246",
":  c #3F4B50",
">  c #434A4F",
",  c #4B484D",
"<  c #48444A",
"1  c #5F474B",
"2  c #56464A",
"3  c #424D53",
"4  c #4C4E53",
"5  c #554D53",
"6  c #465156",
"7  c #485257",
"8  c #4B555A",
"9  c #4E585D",
"0  c #525156",
"q  c #525559",
"w  c #505A5F",
"e  c #5A5A5E",
"r  c #595156",
"t  c #61474C",
"y  c #7B474A",
"u  c #794549",
"i  c #664E53",
"p  c #7B4E51",
"a  c #63545A",
"s  c #6D565B",
"d  c #645B5F",
"f  c #6F595D",
"g  c #695356",
"h  c #7A565A",
"j  c #535D62",
"k  c #5C5D61",
"l  c #655E63",
"z  c #566065",
"x  c #596266",
"c  c #5C666B",
"v  c #5F686D",
"b  c #626365",
"n  c #63696B",
"m  c #6A6D6D",
"M  c #616769",
"N  c #6E706E",
"B  c #656E72",
"V  c #697276",
"C  c #6D757A",
"Z  c #677074",
"A  c #727473",
"S  c #72797E",
"D  c #7D7C7A",
"F  c #903739",
"G  c #9B3537",
"H  c #8D393A",
"J  c #BF2E2E",
"K  c #A33D3E",
"L  c #A6383A",
"P  c #BF3131",
"I  c #B33B3C",
"U  c #BC3D3E",
"Y  c #B33333",
"T  c #C02D2D",
"R  c #C03333",
"E  c #CB3737",
"W  c #C23B3B",
"Q  c #CC3C3C",
"!  c #D63C3C",
"~  c #883F42",
"^  c #963E40",
"/  c #B83F40",
"(  c #CC3F40",
")  c #884749",
"_  c #9A4B4D",
"`  c #964749",
"'  c #854E52",
"]  c #974F51",
"[  c #8E5659",
"{  c #84595C",
"}  c #8A575B",
"|  c #995557",
" . c #AB4344",
".. c #A9484A",
"X. c #BC4545",
"o. c #B34C4D",
"O. c #BA4748",
"+. c #A85557",
"@. c #B25355",
"#. c #BD5354",
"$. c #B35859",
"%. c #B85959",
"&. c #827F7C",
"*. c #C44444",
"=. c #CB4343",
"-. c #C54949",
";. c #CB4A4A",
":. c #C44748",
">. c #D64242",
",. c #D84646",
"<. c #D44B4B",
"1. c #D94C4C",
"2. c #CC5354",
"3. c #C65657",
"4. c #D45454",
"5. c #DA5252",
"6. c #84827E",
"7. c #757D81",
"8. c #7E8589",
"9. c #7A8285",
"0. c #868482",
"q. c #8A8682",
"w. c #848B8E",
"e. c #8E8983",
"r. c #908D87",
"t. c #948F8A",
"y. c #97918C",
"u. c #9D968F",
"i. c #888E92",
"p. c #8C9295",
"a. c #8F9598",
"s. c #909799",
"d. c #949A9D",
"f. c #9D9892",
"g. c #A39C95",
"h. c #A99F98",
"j. c #ADA39A",
"k. c #B0A59C",
"l. c #9A9FA2",
"z. c #9CA2A4",
"x. c #A2A7A9",
"c. c #A1A7A9",
"v. c #B6ABA2",
"b. c #BBAFA3",
"n. c #BDB1A7",
"m. c #ADB1B3",
"M. c #B1B6B7",
"N. c #B5B9BB",
"B. c #BABDBE",
"V. c #B4B7BA",
"C. c #C2B5A9",
"Z. c #C6B9AD",
"A. c #CABBAF",
"S. c #C0B2A6",
"D. c #CCBDB1",
"F. c #D0BFB2",
"G. c #DDCBBB",
"H. c #D5C4B6",
"J. c #E2CEBE",
"K. c #BCC0C2",
"L. c #C1C4C5",
"P. c #C6C9CA",
"I. c #CACCCD",
"U. c #C4C7C9",
"Y. c #CED0D1",
"T. c #D3D4D5",
"R. c #DADADA",
"E. c #D7D9DA",
"W. c #E2CFC0",
"Q. c #E6D2C2",
"!. c #EBD6C5",
"~. c #EED8C7",
"^. c #EED9C8",
"/. c #F3DCCA",
"(. c #F7E0CD",
"). c #F9E1CE",
"_. c #FDE5D3",
"`. c #DFE1E2",
"'. c #E3E4E4",
"]. c #ECECEC",
"[. c #E6E7E8",
"{. c #EFF0F0",
"}. c #F4F4F4",
"|. c None",
/* pixels */
"|.|.|.|.|.|.|.|.|.|.|.|.|.|.|.|.|.|.|.|.|.|.|.|.|.|.9 9 9 9 9 9 9 8 8 8 8 7 |.|.|.|.|.|.|.|.|.|.|.|.|.|.|.|.|.|.|.|.|.|.|.|.|.|.",
"|.|.|.|.|.|.|.|.|.|.|.|.|.|.|.|.|.|.|.|.|.|.w w j w w w 9 9 9 9 8 9 8 8 8 8 7 8 8 6 |.|.|.|.|.|.|.|.|.|.|.|.|.|.|.|.|.|.|.|.|.|.",
"|.|.|.|.|.|.|.|.|.|.|.|.|.|.|.|.|.|.|.|.j j j j w j w w e a 9 9 9 8 a q 7 9 8 7 8 6 8 3 |.|.|.|.|.|.|.|.|.|.|.|.|.|.|.|.|.|.|.|.",
"|.|.|.|.|.|.|.|.|.|.|.|.|.|.|.|.|.j j j j j j l | @.@.[ a 9 9 9 9 8 8 g ' ..o.] 5 8 3 6 6 3 6 |.|.|.|.|.|.|.|.|.|.|.|.|.|.|.|.|.",
"|.|.|.|.|.|.|.|.|.|.|.|.|.|.|.|.j j j j j | 2.1.#.s w 9 9 9 w 9 9 9 9 7 8 8 i O.,.:.` 4 3 6 3 3 |.|.|.|.|.|.|.|.|.|.|.|.|.|.|.|.",
"|.|.|.|.|.|.|.|.|.|.|.|.|.|.z j j j l $.5.5.<.{ j 9 w w Z s.x.B.V.z.a.B 8 7 7 8 p <.,.,...5 3 3 3 3 |.|.|.|.|.|.|.|.|.|.|.|.|.|.",
"|.|.|.|.|.|.|.|.|.|.|.|.|.z z j j $.5.5.5.2.e j 9 j z.R.}.}.}.}.}.}.}.}.E.d.9 7 7 4 =.,.,.,. .4 3 : : |.|.|.|.|.|.|.|.|.|.|.|.|.",
"|.|.|.|.|.|.|.|.|.|.|.z z z z { 4.5.5.5.3.k w w i.`.}.}.}.}.}.}.}.}.}.}.}.}.`.8.7 7 4 *.>.( >.>.u 3 3 : : |.|.|.|.|.|.|.|.|.|.|.",
"|.|.|.|.|.|.|.|.|.|.j x x x %.5.5.5.5.2.j w j x.}.}.}.}.}.}.}.}.}.}.}.}.}.}.}.}.z.7 7 3 =.>.>.>.>. .3 3 = 3 |.|.|.|.|.|.|.|.|.|.",
"|.|.|.|.|.|.|.|.|.j x x k 3.5.5.5.5.5.l w j B.}.}.}.}.}.}.}.}.}.}.}.}.}.}.}.}.}.}.N.3 7 5 >.>.( >.! ( 2 3 = : |.|.|.|.|.|.|.|.|.",
"|.|.|.|.|.|.|.|.z z z l 4.5.5.5.5.5.[ j w c.}.}.}.}.}.}.}.}.}.}.}.}.}.}.}.{.}.}.}.}.l.: 3 ) >.>.( ! ( ( , > = - |.|.|.|.|.|.|.|.",
"|.|.|.|.|.|.|.z x x b 4.5.5.5.5.5.4.j j 7.}.}.}.}.}.}.}.}.}.}.}.}.}.}.}.}.}.}.}.}.}.}.V 4 4 >.( ! >.! ( Q 2 - - = |.|.|.|.|.|.|.",
"|.|.|.|.|.|.|.z Z 9.4.5.5.5.5.5.5.[ j j E.}.}.}.}.}.}.}.}.}.}.}.}.}.}.}.}.}.}.}.}.{.}.P.3 3 ) ( >.>.>.! ! ! , = = |.|.|.|.|.|.|.",
"|.|.|.|.|.|.c z c 4.5.5.5.5.5.5.5.j w 9.}.}.}.}.}.}.}.}.}.}.}.}.}.}.}.}.}.}.}.}.}.}.}.}.S 3 3 ! ! ( >.! ! ! W > = = |.|.|.|.|.|.",
"|.|.|.|.|.c c c $.4.5.5.5.5.5.5.3.j j B.}.}.}.}.}.}.}.}.}.}.}.}.}.}.}.}.}.}.}.}.}.}.}.}.m.: : / ! ! ! ! ! ! ! ^ = = = |.|.|.|.|.",
"|.|.|.|.|.z z v %.4.5.4.5.5.5.5.| j j ].}.}.}.}.}.}.}.}.}.}.}.}.}.}.}.}.}.}.}.}.}.}.{.}.'.3 3 ` >.! ! ! ! ! ! / = = = |.|.|.|.|.",
"|.|.|.|.c c j x M 4.5.5.5.5.5.5.{ j B }.}.}.}.}.}.}.}.}.}.}.}.}.}.}.}.}.}.}.}.}.}.{.}.}.}.z : u ! ! ! ! ! ! ! < < = = ; |.|.|.|.",
"|.|.|.j z x 7.z x 3.5.5.5.5.5.5.f j 7.}.}.}.}.}.}.}.}.}.}.}.}.}.}.}.}.}.{.}.}.{.}.}.}.}.}.Z : 1 ! >.! ! ! ! Y = = V = * |.|.|.|.",
"|.|.|.c c v `.c z } 5.5.5.5.5.5.k j w.}.}.}.}.}.}.}.}.}.}.}.}.}.}.}.{.}.}.}.}.}.}.}.}.}.}.7.: , >.! ! ! ! ! u = 8 {.8 * * |.|.|.",
"|.|.|.x z z.}.i.x c 5.5.5.5.5.5.j j 7.}.}.}.}.}.}.}.}.}.}.}.}.}.}.}.}.}.}.}.}.}.}.}.}.}.}.C 3 , ! ! ! ! ! ! - = z.}.B.= = |.|.|.",
"|.|.x z v [.}.V.j z 4.5.5.5.5.5.f w V }.}.}.}.}.}.}.}.}.}.}.}.}.}.}.}.}.}.}.}.}.}.}.}.}.}.x : t ! >.! ! ! ! = = T.}.}.3 * * |.|.",
"|.|.x c a.}.}.T.z j %.5.5.1.5.5.[ j j {.}.}.}.}.}.}.}.}.}.}.}.}.{.}.}.}.}.}.}.{.{.}.}.}.].3 = ) >.! ! ! ! P - = ].}.}.z.* * |.|.",
"|.j c j L.}.}.[.z j @.5.5.5.5.1.@.j j U.}.}.}.}.}.}.}.}.}.}.}.}.{.}.{.}.}.{.}.}.}.}.}.{.K.3 3  .! ! ! ! ! K = ; {.}.{.T.* * * |.",
"|.c x v {.}.}.{.j j +.5.5.5.1.5.<.9 j l.}.}.}.}.}.}.}.}.}.}.}.}.}.}.}.}.}.}.}.{.}.}.}.}.w.- > Q ! ! ! ! ! G = ; }.}.'.E.8 & * |.",
"|.x x a.}.}.}.{.j j +.4.5.1.5.5.5.s 9 j '.}.}.}.}.}.}.}.}.}.}.}.}.}.}.}.}.{.}.}.}.}.}.`.3 3 t ! ! ! ! ! ! ^ = = }.'.R.R.d.; & |.",
"|.x z m.}.}.}.].z j $.5.5.5.5.1.5.#.8 9 a.}.}.}.}.}.}.}.}.}.}.}.}.}.}.{.}.}.}.}.{.}.}.w.- > / ! ! ! ! ! ! ^ = * [.R.R.R.L.; & |.",
"j c z Y.}.}.}.Y.j j %.5.5.1.5.1.1.1.s 9 9 I.}.}.}.}.}.}.}.}.}.}.}.}.}.}.}.}.}.}.}.}.L.3 - 2 ! ! ! ! E ! ! I = * R.R.R.R.T.* & |.",
"j j z {.}.}.}.M.j j 2.5.1.5.5.1.5.5.;.9 9 j `.}.}.}.}.}.{.}.}.}.{.}.}.}.}.}.}.{.}.E.8 : > ( ! ! ! E ! ! ! E = ; P.R.R.R.R.; @ & ",
"z c B }.}.}.}.i.j k 1.5.5.1.1.5.1.1.1.@.8 8 v T.}.}.}.}.}.}.{.}.}.}.}.}.}.}.}.}.T.j : 3 Y ! ! ! ! ! ! E E E ; * z.R.R.R.R.j & @ ",
"x j 7.}.}.}.].c j { 5.5.1.5.5.1.1.1.1.1.] 8 8 j K.}.}.}.}.}.}.}.}.{.}.}.{.}.}.V.7 : : ) ! ! ! ! ! ! ! E R R % ; 7 R.R.R.R.C & @ ",
"x x 8.}.}.}.V.j j #.5.5.5.1.5.1.1.1.1.1.1.] 8 8 9 7.I.}.}.}.}.}.}.}.}.}.{.I.A 3 : :  .! ! ! ! ! ! ! T T R P L & & P.R.R.E.8.@ @ ",
"z z w.}.}.{.B j k 5.5.1.5.1.1.1.1.1.1.1.1.1.O.q 8 8 7 B l.U.E.].].T.L.l.v 3 3 > : / ! ! ! ! ! ! E T E T R P R < * M R.R.R.s.@ @ ",
"z z p.}.}.x.z w @.5.1.5.1.5.1.1.1.1.1.1.1.1.,.<.' 7 8 3 6 6 6 6 6 3 4 3 3 : : y >.! >.! ! ! Q R P P R R R R R G & & B.E.R.a.@ @ ",
"z z 8.{.T.x w d 5.5.5.5.5.1.1.1.1.1.1.,.,.,.1.,.>.;._ 0 6 6 6 6 6 3 3 4 4 ` ( ( ! ! ! Q E R P P W P R P P T P P < & > E.R.0.@ @ ",
"z z S Y.Z z z 2.5.1.5.1.1.5.1.1.1.1.1.1.1.,.,.1.<.,.,.,.-.O..._ ` ..X.( ( ( ( ! ! W R W R R R W R R R R R R P P Y & @ c R.C @ @ ",
"z j x V z j | -.;.<.1.5.1.1.1.1.1.1.1.1.,.1.,.,.,.,.,.>.,.,.>.>.,.( ( >.>.Q ! E W R W R R R R R P R R P T R P P T F & @ C 8 @ @ ",
"w j j x z [ -.-.-.-.-.-.;.;.<.<.,.1.1.,.1.,.,.,.,.,.>.,.,.,.>.>.! Q W W E W W R W W P R R R R R R R R P T P T P J T X @ @ @ @ + ",
"|.z j j [ -.-.-.-.-.-.-.*.*.*.*.*.*.*.=.=.=.=.=.=.=.( *.W W W W W W W W E W R W R W R W R R R R P R R R R P P J J J T X @ + @ |.",
"|.j j { -.-.-.-.-.*.-.*.*.*.*.-.*.*.*.*.*.U W *.*.U W ( ( / U / X.U U W W P W W R R R W R R R R W R R P P P P J J J J J X @ @ |.",
"|.j j k -.-.-.-.-.-.-.*.:.*.*.*.*.=.U *.*.W *.X. .' 1 6 6 3 3 3 3 3 3 : 3 1 ) L U W R R R R R R P P R T P P P P J J J J O @ @ |.",
"|.j j j o.-.-.-.-.-.*.*.-.*.*.*.*.*.*.*.X.) 0 8 7 6 3 3 6 3 3 3 3 3 3 : - > - - - < ~ I R R R R R P R P T P J J J J T J + + + |.",
"|.|.j j f -.-.-.-.*.*.*.*.*.*.*.*.*...r 7 7 7 6 7 8 m 0.y.g.j.v.k.j.g.t.&.M 3 - = - = = < K R R R R T T P P P J J J T G + + |.|.",
"|.|.j j w +.-.-.-.*.*.:.*.*.*.*...0 8 8 7 6 A g.D.Q.!.!.!.!.^.~.~.~.~.~.~./.~.D.g.M - = = = ; K R P P P P P J J J J T   @ @ |.|.",
"|.|.|.j w j -.*.-.*.*.*.*.*.O.g 8 8 8 x f.G.!.!.!.!.!.!.^.^.^.~.~.~.~././.~.~.~././.W.u.q = = ; 2 P P P P J J J J J G + @ |.|.|.",
"|.|.|.|.w j s *.*.*.*.:.:.o.8 8 8 x j.Q.!.!.!.!.^.!.!.!.!.~.~.^.~.~./.~./.~./././././././.k.q ; & ; L P J J J J T J @ @ @ |.|.|.",
"|.|.|.|.j w 9 h -.*.*.*.] 8 8 8 t.J.!.!.!.!.!.D.0.k.^.~.^.~.~.^.~./.~.~.~./.j.&.F./.)././././.6.* & & H J J T J T   + @ |.|.|.|.",
"|.|.|.|.|.9 j 9 h -.-._ 8 8 j n.!.!.!.!.!.!.!.m 3 6 G.^.~.~.^.^.^.~./././.G.- - M /./././.)././.b.> & & F T T T . @ @ @ |.|.|.|.",
"|.|.|.|.|.|.9 9 q e o.8 8 x D.Q.!.Q.Q.~.!.!.G.6 6 3 h.~.^.~.^././.~.~././.h.- ; > Q././.)./.).).(.H.6 & @ J J . @ @ @ |.|.|.|.|.",
"|.|.|.|.|.|.|.9 9 9 9 8 8 y.!.!.!.!.^.!.!.!.H.: : 6 y.^.^./.^.^./.^./.^./.r.= - < F.)./.(.(.).).).).6.; & G # @ @ @ |.|.|.|.|.|.",
"|.|.|.|.|.|.|.|.8 9 9 8 9 0._.!.Q.!.Q.^.!.^.n.6 6 : 0.^.^.^.^./.^./.^././.6.- = ; Z./.).(.(.(.).).).A * & & @ @ @ |.|.|.|.|.|.|.",
"|.|.|.|.|.|.|.|.|.|.9 8 9 C _._.^.!.^.!.!.^.m.6 6 : &.^./.^.^././././././.D = = = b.)./.).(.).).).).b & @ @ @ |.|.|.|.|.|.|.|.|.",
"|.|.|.|.|.|.|.|.|.|.|.8 8 c _._._.^.!.^.^.!.b.: : 6 0.^.^.^./.^./././././.6.= - = C./.).(.).).).).).4 & @ & |.|.|.|.|.|.|.|.|.|.",
"|.|.|.|.|.|.|.|.|.|.|.8 8 8 ^._._._.(.^.^.~.C.6 6 6 y.^.^././././././././.6.> ; = H.(.(.).).)._.).J.& @ & |.|.|.|.|.|.|.|.|.|.|.",
"|.|.|.|.|.|.|.|.|.|.|.|.8 8 Z._._._._./.~.^.H.6 6 : f.^.^./././././././.(.u.- - = J.(.(._.).).)._.S.& & |.|.|.|.|.|.|.|.|.|.|.|.",
"|.|.|.|.|.|.|.|.|.|.|.|.8 8 f._._._._._.^.^.^.z : : H.^./.^././././././.(.A.= = q (.(.(.).).).)._.6.; @ |.|.|.|.|.|.|.|.|.|.|.|.",
"|.|.|.|.|.|.|.|.|.|.|.|.8 8 v _._._._._.).(.^.j.9 D !.^././././.)././.).(.(.A 7 k.(.).(.).)._._.).7 ; ; |.|.|.|.|.|.|.|.|.|.|.|.",
"|.|.|.|.|.|.|.|.|.|.|.|.7 7 7 n._._._._._._.(.^.^./././././././././.)./.).(.).)./._.)._._.)._.).k.@ & @ |.|.|.|.|.|.|.|.|.|.|.|.",
"|.|.|.|.|.|.|.|.|.|.|.|.|.8 8 j !._._._._._._.(./.^././././.(././.)./.(.).(.).)._./._./.).).).J.3 @ @ |.|.|.|.|.|.|.|.|.|.|.|.|.",
"|.|.|.|.|.|.|.|.|.|.|.|.|.7 6 7 v Q._._._.}._._./././.(.(././.).)./.).(.(.).).(./._._.)._.).J.q & @ |.|.|.|.|.|.|.|.|.|.|.|.|.|.",
"|.|.|.|.|.|.|.|.|.|.|.|.|.|.7 7 6 9 g.^._._._._._././././.(./.(.).).).).(.).).)._.).)._.~.y.= # @ @ |.|.|.|.|.|.|.|.|.|.|.|.|.|.",
"|.|.|.|.|.|.|.|.|.|.|.|.|.|.|.7 7 3 7 7 A g.D.W.(._././.(./.(.(.(.).(.(.).).).(.G.Z.u.m = & & & @ |.|.|.|.|.|.|.|.|.|.|.|.|.|.|.",
"|.|.|.|.|.|.|.|.|.|.|.|.|.|.|.|.|.7 3 3 3 3 3 3 : 9 b n A N A D D V N N b k 6 ; * * * * & & & |.|.|.|.|.|.|.|.|.|.|.|.|.|.|.|.|.",
"|.|.|.|.|.|.|.|.|.|.|.|.|.|.|.|.|.|.|.6 6 3 3 3 3 : : : - - - - - ; = = = * ; * ; * & * & |.|.|.|.|.|.|.|.|.|.|.|.|.|.|.|.|.|.|.",
"|.|.|.|.|.|.|.|.|.|.|.|.|.|.|.|.|.|.|.|.|.|.|.: : : : : - - = = - = = = = = = ; * |.|.|.|.|.|.|.|.|.|.|.|.|.|.|.|.|.|.|.|.|.|.|."
};
