/* XPM */
static char * tileset_dungeon_PNG_xpm[] = {
"64 64 465 2",
"  	c #848484",
". 	c #878787",
"+ 	c #8B8B8B",
"@ 	c #8C8C8C",
"# 	c #868686",
"$ 	c #898989",
"% 	c #A1A1A1",
"& 	c #B5B5B5",
"* 	c #C2C2C2",
"= 	c #C9C9C9",
"- 	c #CCCCCC",
"; 	c #CACACA",
"> 	c #CCCBCB",
", 	c #CBCBCB",
"' 	c #C8C8C8",
") 	c #BFBFBF",
"! 	c #B1B1B1",
"~ 	c #9A9999",
"{ 	c #858585",
"] 	c #909090",
"^ 	c #BEBDBD",
"/ 	c #C3C2C2",
"( 	c #C5C4C4",
"_ 	c #BDBCBC",
": 	c #ABABAB",
"< 	c #ADADAD",
"[ 	c #C3C3C3",
"} 	c #C0BFBF",
"| 	c #CAC9C9",
"1 	c #C7C6C6",
"2 	c #C6C6C6",
"3 	c #A3A3A3",
"4 	c #919191",
"5 	c #C1C1C1",
"6 	c #C7C7C7",
"7 	c #BEBEBE",
"8 	c #AFAFAF",
"9 	c #BABABA",
"0 	c #B7B7B7",
"a 	c #979797",
"b 	c #C5C5C5",
"c 	c #BDBDBD",
"d 	c #BCBCBC",
"e 	c #B4B4B4",
"f 	c #BBBBBB",
"g 	c #B3B3B3",
"h 	c #C4C4C4",
"i 	c #C8C7C7",
"j 	c #C0C0C0",
"k 	c #959595",
"l 	c #C4C3C3",
"m 	c #A8A8A8",
"n 	c #BAB9B9",
"o 	c #B5B3B1",
"p 	c #ABA6A3",
"q 	c #A69F9A",
"r 	c #A39E9B",
"s 	c #ACA7A4",
"t 	c #A9A6A3",
"u 	c #B0B0B0",
"v 	c #8A8A8A",
"w 	c #A9A8A7",
"x 	c #A8A09C",
"y 	c #928075",
"z 	c #7E5E48",
"A 	c #7B5C48",
"B 	c #754D2D",
"C 	c #774F2E",
"D 	c #634125",
"E 	c #764E2E",
"F 	c #7F6351",
"G 	c #8A7365",
"H 	c #9E938C",
"I 	c #B4B1AF",
"J 	c #B8B8B8",
"K 	c #A9A9A9",
"L 	c #BAB9B8",
"M 	c #A0948E",
"N 	c #7F604C",
"O 	c #86746A",
"P 	c #764E2F",
"Q 	c #84654D",
"R 	c #AAA39F",
"S 	c #8B6139",
"T 	c #8A6038",
"U 	c #73502D",
"V 	c #896038",
"W 	c #8B6441",
"X 	c #ACA7A3",
"Y 	c #7E5737",
"Z 	c #78543B",
"` 	c #857369",
" .	c #8E7A6F",
"..	c #AFABA8",
"+.	c #AEAEAE",
"@.	c #AAAAAA",
"#.	c #A0A0A0",
"$.	c #A2A2A2",
"%.	c #ACA6A3",
"&.	c #836856",
"*.	c #7C5738",
"=.	c #AA9D94",
"-.	c #775031",
";.	c #8C6239",
">.	c #73502E",
",.	c #8B6138",
"'.	c #8A6138",
").	c #875D36",
"!.	c #7B5941",
"~.	c #A7998F",
"{.	c #79512F",
"].	c #764F31",
"^.	c #95857C",
"/.	c #B8B6B5",
"(.	c #ACACAC",
"_.	c #8F8F8F",
":.	c #9D918A",
"<.	c #775033",
"[.	c #A9A5A3",
"}.	c #886447",
"|.	c #937B6A",
"1.	c #9E9692",
"2.	c #80624E",
"3.	c #B0ABA9",
"4.	c #9F9F9F",
"5.	c #B9B9B9",
"6.	c #BBBBBA",
"7.	c #845F40",
"8.	c #7D5532",
"9.	c #855C36",
"0.	c #8C633B",
"a.	c #7F5A3C",
"b.	c #764E2D",
"c.	c #79553B",
"d.	c #ABA5A2",
"e.	c #B6B6B6",
"f.	c #A7A7A7",
"g.	c #97887F",
"h.	c #8E817B",
"i.	c #9C897D",
"j.	c #845B35",
"k.	c #815833",
"l.	c #865C36",
"m.	c #815835",
"n.	c #7C5331",
"o.	c #875E37",
"p.	c #A2958D",
"q.	c #87766C",
"r.	c #ADA7A4",
"s.	c #CBCACA",
"t.	c #A49A95",
"u.	c #826047",
"v.	c #8F6947",
"w.	c #7C5431",
"x.	c #845B36",
"y.	c #7F5632",
"z.	c #906D4F",
"A.	c #7C583C",
"B.	c #7C5B44",
"C.	c #B4B2B0",
"D.	c #9B9B9B",
"E.	c #C6C5C5",
"F.	c #B4B0AE",
"G.	c #7A583F",
"H.	c #855B35",
"I.	c #895F37",
"J.	c #835A35",
"K.	c #6D4A2A",
"L.	c #835A34",
"M.	c #8B7467",
"N.	c #888888",
"O.	c #8F7B6F",
"P.	c #A9A6A4",
"Q.	c #885F37",
"R.	c #714E2D",
"S.	c #8F7A6C",
"T.	c #9A9490",
"U.	c #A49B96",
"V.	c #969696",
"W.	c #B2B2B2",
"X.	c #754E2E",
"Y.	c #845F42",
"Z.	c #7A5130",
"`.	c #865D36",
" +	c #6E4C2B",
".+	c #7F5734",
"++	c #7F5A3E",
"@+	c #928076",
"#+	c #79563C",
"$+	c #7A5230",
"%+	c #805733",
"&+	c #885E37",
"*+	c #79573F",
"=+	c #A69E99",
"-+	c #A5A5A5",
";+	c #867368",
">+	c #AA9F97",
",+	c #724F2D",
"'+	c #8C6138",
")+	c #ABA5A1",
"!+	c #928279",
"~+	c #A9A19D",
"{+	c #754D2E",
"]+	c #885F38",
"^+	c #7B5230",
"/+	c #8B6239",
"(+	c #6D4B2B",
"_+	c #875E36",
":+	c #845C37",
"<+	c #B8B7B6",
"[+	c #9A8B84",
"}+	c #78502F",
"|+	c #855C35",
"1+	c #825934",
"2+	c #8E7B6F",
"3+	c #98887F",
"4+	c #845A35",
"5+	c #7D5431",
"6+	c #92837B",
"7+	c #A0958F",
"8+	c #866D5F",
"9+	c #9C8C83",
"0+	c #7E5532",
"a+	c #7F5732",
"b+	c #916B4A",
"c+	c #96877E",
"d+	c #988980",
"e+	c #B3B3B2",
"f+	c #7E5E47",
"g+	c #835B36",
"h+	c #8A6139",
"i+	c #896039",
"j+	c #7E5633",
"k+	c #8A613A",
"l+	c #855C37",
"m+	c #875F38",
"n+	c #6D4C2C",
"o+	c #855D37",
"p+	c #785130",
"q+	c #8A623A",
"r+	c #7E5733",
"s+	c #7F5733",
"t+	c #938278",
"u+	c #595857",
"v+	c #504E4C",
"w+	c #4F4D4C",
"x+	c #795A41",
"y+	c #6D4C2B",
"z+	c #6E5744",
"A+	c #504D4C",
"B+	c #7C7B7B",
"C+	c #575757",
"D+	c #4D4D4D",
"E+	c #676767",
"F+	c #7C7C7C",
"G+	c #4E4E4E",
"H+	c #5B5B5B",
"I+	c #808080",
"J+	c #565656",
"K+	c #505050",
"L+	c #7E7E7E",
"M+	c #636363",
"N+	c #705844",
"O+	c #655448",
"P+	c #6D6D6D",
"Q+	c #777777",
"R+	c #606060",
"S+	c #7F7F7F",
"T+	c #525252",
"U+	c #545454",
"V+	c #5D5D5D",
"W+	c #7B7B7B",
"X+	c #585858",
"Y+	c #F8F8F8",
"Z+	c #999999",
"`+	c #F0F0F0",
" @	c #E5E5E5",
".@	c #DFDFDF",
"+@	c #666666",
"@@	c #EFEFEF",
"#@	c #DBDBDB",
"$@	c #828282",
"%@	c #D9D9D9",
"&@	c #E8E8E8",
"*@	c #F3F3F3",
"=@	c #595959",
"-@	c #D0D0D0",
";@	c #CFCFCF",
">@	c #9A9A9A",
",@	c #CDCDCD",
"'@	c #CECECE",
")@	c #4B4B4B",
"!@	c #696969",
"~@	c #4F4F4F",
"{@	c #5C5C5C",
"]@	c #515151",
"^@	c #818181",
"/@	c #646464",
"(@	c #6F6F6F",
"_@	c #7A7A7A",
":@	c #616161",
"<@	c #555555",
"[@	c #5F5F5F",
"}@	c #4A4A4A",
"|@	c #5D5551",
"1@	c #4F453F",
"2@	c #514741",
"3@	c #514742",
"4@	c #534841",
"5@	c #7D593A",
"6@	c #74553B",
"7@	c #524842",
"8@	c #504741",
"9@	c #4F443E",
"0@	c #7F7B79",
"a@	c #7E5D46",
"b@	c #886343",
"c@	c #895F38",
"d@	c #856143",
"e@	c #938177",
"f@	c #867063",
"g@	c #ADA59F",
"h@	c #78502E",
"i@	c #8D653F",
"j@	c #ACA8A6",
"k@	c #805F46",
"l@	c #8C623A",
"m@	c #684829",
"n@	c #866D5C",
"o@	c #A5968B",
"p@	c #8D643E",
"q@	c #A49991",
"r@	c #94847B",
"s@	c #856752",
"t@	c #967D6A",
"u@	c #96806F",
"v@	c #948378",
"w@	c #846247",
"x@	c #948277",
"y@	c #84634B",
"z@	c #8E6C4F",
"A@	c #8E6E53",
"B@	c #877062",
"C@	c #AAA099",
"D@	c #8E6540",
"E@	c #AAA4A0",
"F@	c #856E5F",
"G@	c #A99D95",
"H@	c #825936",
"I@	c #8D653E",
"J@	c #A7A09A",
"K@	c #A4A4A4",
"L@	c #7F614C",
"M@	c #8E705A",
"N@	c #815834",
"O@	c #8D633E",
"P@	c #8D633C",
"Q@	c #8B715D",
"R@	c #625953",
"S@	c #5C5048",
"T@	c #5D5249",
"U@	c #5A4F48",
"V@	c #5E524A",
"W@	c #5B5049",
"X@	c #574D48",
"Y@	c #5D5149",
"Z@	c #5E5249",
"`@	c #7F5D3F",
" #	c #775A42",
".#	c #5C5149",
"+#	c #584E48",
"@#	c #5A4F49",
"##	c #5B5048",
"$#	c #837F7C",
"%#	c #535353",
"&#	c #5E5E5E",
"*#	c #626262",
"=#	c #EAEAEA",
"-#	c #8D8D8D",
";#	c #E1E1E1",
">#	c #E2E2E2",
",#	c #D6D6D6",
"'#	c #767676",
")#	c #E3E3E3",
"!#	c #939393",
"~#	c #ECECEC",
"{#	c #D5D5D5",
"]#	c #D1D1D1",
"^#	c #D2D2D2",
"/#	c #6D5644",
"(#	c #694829",
"_#	c #645347",
":#	c #D8D8D8",
"<#	c #4C4C4C",
"[#	c #949494",
"}#	c #737373",
"|#	c #7D7D7D",
"1#	c #555453",
"2#	c #454443",
"3#	c #494746",
"4#	c #494847",
"5#	c #4B4846",
"6#	c #79583C",
"7#	c #6E533F",
"8#	c #4A4847",
"9#	c #454342",
"0#	c #7E7D7D",
"a#	c #856348",
"b#	c #825935",
"c#	c #845C36",
"d#	c #634326",
"e#	c #825A35",
"f#	c #815934",
"g#	c #77502F",
"h#	c #958378",
"i#	c #8B7464",
"j#	c #ADA49E",
"k#	c #8C633C",
"l#	c #ADA8A5",
"m#	c #98877D",
"n#	c #84644B",
"o#	c #8E6A4B",
"p#	c #7C5434",
"q#	c #7A5234",
"r#	c #885F3C",
"s#	c #6B4A2A",
"t#	c #865D39",
"u#	c #8D6B4E",
"v#	c #826754",
"w#	c #A69386",
"x#	c #8B623C",
"y#	c #865E3A",
"z#	c #865E39",
"A#	c #8B613A",
"B#	c #8C633A",
"C#	c #A49489",
"D#	c #938279",
"E#	c #846B5A",
"F#	c #8A7A70",
"G#	c #89603B",
"H#	c #885F3B",
"I#	c #815936",
"J#	c #8C7F79",
"K#	c #94847A",
"L#	c #BBBABA",
"M#	c #836D60",
"N#	c #796050",
"O#	c #7A6050",
"P#	c #7B6151",
"Q#	c #68554B",
"R#	c #7A6151",
"S#	c #93867F",
"T#	c #989898",
"U#	c #9E9E9E",
"V#	c #8E8E8E",
"W#	c #838383",
"X#	c #787878",
"Y#	c #929292",
"Z#	c #A3A2A2",
"`#	c #B2B1B1",
" $	c #A7A6A6",
".$	c #AAA9A9",
"+$	c #B3B2B2",
"@$	c #A5A4A4",
"#$	c #9C9C9C",
"                                                                                                                                ",
"                                                                                                                                ",
"                                                                                                                                ",
"                                                                                                                                ",
"                                                                                                                                ",
"                                                                                                                                ",
"                                                . + @ @ @ @ @ @ @ @ @ @ @ @ @ + #                                               ",
"                                        $ % & * = - ; - - - - > - - - , - - - , ' ) ! ~ {                                       ",
"                                    ] ! ^ - - - - - * - - - - ' - - - / = - - - ; - - ( _ : $                                   ",
"                                . < ; - ^ , ' [ - , } ' - | | > 1 1 ; - - - | } / - - ( ; - 2 3                                 ",
"                              4 5 - - - 5 , } 6 - - , 2 7 8 ) ) 7 ) 9 [ 2 ; ; ' - - - ; - - - - 0 $                             ",
"                            a 6 - - - - b , ; - = * c d e 8 e f d 0 < g d d ) h ; - ; i b [ / ; - j @                           ",
"                          k ' - h l i , = , = j < m d f n o p q r s t n d 9 & u f [ , - - , = ( 6 - 5 v                         ",
"                        @ b - 6 = - - - , [ d d e w x y z A B C D E B F G H I J & d c 2 - - - - - , - f {                       ",
"                        9 - ; - - - - ; J K J L M N O P Q R S T U V W X Y Z `  ...d d +.e ; - - , ; - - @.                      ",
"                      #.- - 6 - - - = ! $.J %.&.B *.=.-.T T ;.S >.,.;.'.).!.~.{.].^./.d (.m ' - - 1 = - ; _.                    ",
"                    { [ - - ( - - ; ! K n :.<.[.}.;.S E T ;.;.;.>.;.;.;.).{.;.S |.1.2.3.d g m = - - ( - - &                     ",
"                    4.= - - 6 - , 5.@.6.^.B E 7.;.;.S E T ).V ;.>.;.;.8.9.{.;.;.0.a.b.c.d.d e.8 - - - ; - = +                   ",
"                    9 b - - ; - * f.9 g.h.i.j.k.;.;.S E T k.l.;.>.;.;.C m.{.;.;.;.n.o.p.q.r.d +.7 - - - - s.3                   ",
"                  $ = b - - - ' e.e t.B u.v.T k.;.;.S E T '.S ;.>.;.;.w.x.{.;.;.;.y.;.z.A.B.C.f u , - - - , 0                   ",
"                  D., E.- - - j f F.G.B o.;.;.H.I.J.S E T ;.;.;.K.j.V ;.).{.;.;.;.j.;.;.L.B M.6.f [ - - - - l N.                ",
"                  K , 2 - , 6 f d O.P.!.Q.;.;.T ;.;.S E T ;.S I.R.;.;.;.).{.V 9.;.V ;.;.j.S.T.U.0 u E., - - b V.                ",
"                  ! , 1 = 1 J W.p X.Y.Z.V ;.;.;.;.;.S E T ;.V `. +S ;.;.).{.S T ;.;.;.;.9..+++N n f b , - - E.#.                ",
"                  e.; i - - 5.K @+#+,.$+T ;.;.;.;.'.o.b.`.T ;.'.R.;.;.).%+{.;.;.;.;.;.;.`.y.&+*+=+e g , , , 2 -+                ",
"                  e.; ' - = f /.;+>+;.$+S ;.;.;.;.T `.b.l.T ;.;.,+S ;.;.`.C j.T S V T ;.o.y.'+)+!+d f = 2 ' 1 -+                ",
"                  e.; = - 2 5.~+{+]+&+^+;.;.;.;.,.;.S E T ;./+).(+I.;.;.).{.;.S ).J.%+&+Q.y._+:+<.<+d = l - 6 -+                ",
"                  e.; = E.* < [+}+V j.n.;.T ;.;.|+;.S E T ;.;.;.>.;.;.;.).{.;.;.`.;.I.V I.y.1+T B )+d 6 b ; 6 -+                ",
"                  e.= ; = f u 2+3+Q.4+5+;.j.;.;.V ;.S E T ;.;.;.>.;.;.;.).{.;.;._+S |+S T y.%+v.6+7+d 2 , 6 i -+                ",
"                  e.= , = d e 8+9+S `.0+S '.;.,.;.;.S E T ;.;.Q.>.Q.;.;.).{.;.;.;.,.;.S S a+|+b+c+d+d 2 - = ' -+                ",
"                  e.= , 2 c e+f+g+h+i+j+k+k+h+l+k+k+h+X.i+k+m+).n+j.h+k+o+p+q+k+k+l+q+k+h+r+i+q+s+t+d 2 - - ' -+                ",
"                  e.= ; ( 7 ! u+v+v+v+w+v+v+v+v+v+v+v+w+v+v+v+x+y+z+v+v+v+w+v+v+v+v+v+v+v+w+v+v+A+B+d 2 - - = -+                ",
"                  e.= ; 2 ) ! C+D+E+F+G+D+D+H+I+J+D+D+K+L+M+D+N+y+O+D+P+Q+D+D+D+R+S+T+D+D+U+I+V+D+W+d 2 - - = -+                ",
"                  e.| , ' 7 W.X+C+6 Y+Z+D+D+g `+) D+D+Z+ @.@K+N+y+O++@@@#@$@D+D+%@&@4.D+D+0 *@J D+W+d 2 s.- = -+                ",
"                  e.; - ; 7 W.=@X+2 -@4 D+D+e ;@< D+D+>@,@b K+N+y+O++@'@- $@D+D+5 ,@#.D+D+m ;@5.D+W+J 2 ' - ; -+                ",
"                  e.; - - c ! U+)@!@L+~@D+D+{@$@X+D+D+]@^@/@D+N+y+O+D+(@_@D+D+D+:@$@T+D+D+<@$@[@}@_@5.2 2 - ; -+                ",
"                  e., - = c & |@1@2@3@3@3@3@3@3@3@3@3@3@3@3@4@5@y+6@7@3@3@3@3@3@3@3@3@3@3@3@3@8@9@0@d 2 h - s.-+                ",
"                  e., - 6 d e.a@b@T T |+T T T `.T T c@E Q.T T ;.y+;.T T |+{.T T T `.T T T l.T T d@e@d 2 / - , -+                ",
"                  e., - - d 0 f@g@;.;.&+;.;.;.;.;.S `.b.T ;.;.;.y+;.;.;.).h@&+;.;.;.;.;.;.Q.;.i@j@^.d 2 ' ; , -+                ",
"                  e.- - - f 5.k@l@;.;.I.;.;.;.;.;.;.S E T ;.;.I.m@T ;.;.).{.;.;.;.;.;.;.;.V ;.;.h+e@d 2 - , - -+                ",
"                  e.- - - 5 d n@o@;.;.T ,.1+;.;.;.;.S E T ;.;.;.(+;.;.;.).{.;.;.;.;.;.;.;.'.;.p@q@r@f b - - - -+                ",
"                  e.- - - * f s@t@;.;.;.;.I.;.;.;.;.S E T I.;.;.y+;.;.;.).{.;.;.,.;.;.;.,.;.;.0.u@v@d ) - - - -+                ",
"                  e., ' 1 f 9 w@;.S `.;.;.;.;.;.;.`.a+b.T 9.;.;.y+;.;.;.).C 1+&+S l.1+1+,.;.;.;.;.x@f c , - - -+                ",
"                  e.- - , * d y@z@T I.'.`.`.|+T ;.S T E T 1+V ;.y+;.;.;.).{.;.;.;.;.;.%+;.;.;.;.A@x@< b = , - -+                ",
"                  e.- - - * d B@C@;.;.;.;.&+;.;.;.;.S E T ;.&+S y+;.;.;.).{.;.;.;.;.S '.;.;.;.D@E@^.+.2 - - - -+                ",
"                  e.- - - j 5.k@;.;.;.S ;.;.;.;.;.;.S E T ;.;.;.y+;.;.;.).{.;.;.o.;.&+I.;.;.;.;.T e@W.2 - - - -+                ",
"                  e.- - - 5 0 F@G@;.;.l+l@;.;.;.;.;.,.E j.I.;.;.y+;.S Q.1+{.;.l@H@;.;.'.;.S ;.I@J@^.& 2 - - - K@                ",
"                  e.E.' , * 5.L@M@;.;.N@O@;.&+;.;.;.|+E `.T ;.;.y+;./+V L.{.;.P@m.;.&+;.;.`.,.;.Q@e@5.2 - = 2 %                 ",
"                  e.- - - * 9 R@S@T@T@U@V@T@W@T@T@T@U@X@Y@T@Z@`@y+ #T@T@.#+#T@V@@#T@W@T@T@.#.#T@##$#d b - - - -+                ",
"                  e.- - - 5 g C+D+%#&#D+D+D+G+*#G+D+D+D+R+T+D+N+y+O+D+J+{@D+D+D+]@:@D+D+D+D+*#~@D+L+d ) - - - -+                ",
"                  e.- - - * J C+%#) `++ D+D+m =#u D+D+-#;#-@G+N+y+O+V+>#,#'#D+D+; )#!#D+D+m ~#< D+L+d 2 - - - -+                ",
"                  e.- 6 6 5 W.C+H+; %@D.D+D+9 {#5.D+D+$.]#^#]@/#(#_#P+:#'@@ D+D+'@^#f.D+D+W.,#) D+L+d 2 , [ - -+                ",
"                  e.- , ; 5 e.<@<#^@a C+D+D+(@D.!@D+D+{@>@W+D+N+y+O+D+$ [#T+D+D+Q+D.R+D+D+/@D.}#)@|#d 2 - = - -+                ",
"                  e.- - , 7 0 1#2#3#4#4#4#4#4#4#4#4#4#4#4#4#5#6#y+7#8#4#4#4#4#4#4#4#4#4#4#4#4#3#9#0#d 2 - - - -+                ",
"                  e.- - ) : K a#|+9.9.9.9.9.b#9.9.9.c#X.j.9.1+1+d#1+e#9.f#g#9.9.9.9.e#9.9.9.9.9.|+h#d 2 , - - -+                ",
"                  e.- - - * d i#j#;.S ,./+;.;.;.;.;.S E T ;.;.;.y+;.;.;.).{.;.;.;.;.;.;.;.;.;.k#l#m#d 2 = - - -+                ",
"                  e.- - - * d n#o#S p#q#r#;.;.;.;.;.S E T ;.;.;.s#;.;.;.).{.;.t#y.1+;.;.;.;.;.;.u#x@d 2 2 - - -+                ",
"                  e.- = - * e v#w#;.;.;.;.]+l@;.;.;.S E T ;.;.;.y+;.;.;.).{.;.x#y#z#;.;.A#c@;.B#C#D#e 2 l - - -+                ",
"                  e.- b - * & E#F#J.,.;.;.`.G#;.;.;.S E T ;.;.;.y+;.;.;.).{.;.;.;.;.;.;.H#I.T I#J#K#e 2 l - - -+                ",
"      # v v v v v 8 j L#j J 8 M#N#N#O#P#P#P#P#P#P#P#P#N#P#P#P#P#Q#P#P#P#P#O#P#P#P#P#P#P#P#P#O#N#R#S#8 f n j 7 $.v v v v v {     ",
"      @ V.[#T#Z+Z+Z+Z+U#@.3 Z+Z+a !#V## N.{           W#^@W#X#                      { . v -#4 k T#Z+Z+Z+Z+T#] Z+Z+Z+Z+Z+Z+N.    ",
"      @ Z+Z+Z+Z+Z+Z+Z+f.8 +.Z+T#Z+Z+[#V#V.Z+T#k !#4 @ . V#@ I+-#V#V#V#_.] ] Y#!#k [#k Z+[#V#a Z+T#[#a Z+Z+T#] Z+Z+Z+Z+Z+Z+N.    ",
"      @ Z+Z+Z+Z+Z+Z+Z+4.(.-+V.T#Z+Z+4 k V.Z+Z#Z+Z+k !#Z+Z+Z+Z+Z+Z+-+`#U#Z+Z+Z+$.Z+a [#Z+Z+T#Z+T#Z+>@D.a Z+Z+4 #.< >@% $.Z+N.    ",
"      @ Z+Z+Z+a Z+Z+Z+Z+T#V.V.Z+Z+T#T#Z+Z+4. $Z+a V.Z+T#[#a Z+Z+Z+>@.$+$>@Z+Z+< Z+k V.Z+a !#k Z+Z+>@W.U#Z+Z+Y#D.g @$m +$Z+N.    ",
"      @ Z+V.[#Z+Z+T#T#Z+Z+Z+Z+Z+Z+Z+Z+Z+Z+4.Z+Z+Z+Z+Z+Z+Z+Z+Z+Z+Z+Z+Z+Z+Z+Z+Z++.Z+Z+Z+T#V.T#Z+Z+Z+Z+Z+Z+Z+Z+Y#Z+Z+Z+3 g #$N.    "};
