/* XPM */
static char *neige[] = {
/* columns rows colors chars-per-pixel */
"64 64 195 2 ",
"   c #1E75AB",
".  c #2E7FB2",
"X  c #427FAB",
"o  c #3282B4",
"O  c #3C87B7",
"+  c #3F88B7",
"@  c #3C8CBD",
"#  c #378ABB",
"$  c #4184B4",
"%  c #4488B7",
"&  c #448DBB",
"*  c #498CBB",
"=  c #4290BF",
"-  c #4E93BC",
";  c #5295BF",
":  c #5B95BA",
">  c #71A0BF",
",  c #3D8EC2",
"<  c #3F90C3",
"1  c #4592C1",
"2  c #4A96C4",
"3  c #4D99C6",
"4  c #4696C9",
"5  c #4A97C8",
"6  c #4798CB",
"7  c #4D9ACA",
"8  c #5397C1",
"9  c #529AC6",
"0  c #5A9CC5",
"q  c #5297C8",
"w  c #529DCB",
"e  c #5A9FCB",
"r  c #4D9ED1",
"t  c #519FD1",
"y  c #56A0CF",
"u  c #5BA1CE",
"i  c #4CA0D1",
"p  c #55A3D3",
"a  c #5AA5D4",
"s  c #5CA9D6",
"d  c #56A7D9",
"f  c #5AA7D8",
"g  c #5DABDA",
"h  c #69A2C5",
"j  c #64A4CC",
"k  c #6AA5CB",
"l  c #6CA9CE",
"z  c #66A2C6",
"x  c #70A6C7",
"c  c #74ACCE",
"v  c #7CAECD",
"b  c #7CADC0",
"n  c #61A3D0",
"m  c #61AAD6",
"M  c #6CACD4",
"N  c #63AEDC",
"B  c #69AFD9",
"V  c #72ADD2",
"C  c #7AAED2",
"Z  c #6AB0D7",
"A  c #65B0DE",
"S  c #6BB2DD",
"D  c #7CB2D3",
"F  c #74B4DC",
"G  c #7BB7DB",
"H  c #79B5D8",
"J  c #5FAFE1",
"K  c #61AFE1",
"L  c #66B1E1",
"P  c #6BB4E4",
"I  c #6EB8E7",
"U  c #6EB7E8",
"Y  c #6EB9E8",
"T  c #72B6E0",
"R  c #72B9E6",
"E  c #7BBCE3",
"W  c #72BBE9",
"Q  c #79BEE9",
"!  c #7EC0E6",
"~  c #7CC1EB",
"^  c #82AEBF",
"/  c #86ADC2",
"(  c #8BB5CF",
")  c #90B6C9",
"_  c #93BBCD",
"`  c #84B4D3",
"'  c #88B6D2",
"]  c #8CB9D6",
"[  c #83BBDC",
"{  c #8BBDDB",
"}  c #93BCD5",
"|  c #96BFD9",
" . c #99BFD8",
".. c #84BDE1",
"X. c #8CBFE0",
"o. c #8CC1DE",
"O. c #9DC3D5",
"+. c #95C3DD",
"@. c #9AC4DB",
"#. c #9ECCD8",
"$. c #A4C6D6",
"%. c #A6C9D7",
"&. c #A4C7DD",
"*. c #A4CADC",
"=. c #AACCDD",
"-. c #A8CCD6",
";. c #B2CED6",
":. c #B1CEDF",
">. c #A6D1DD",
",. c #ABD1DD",
"<. c #B5D0D7",
"1. c #B2D3DF",
"2. c #BBD4DD",
"3. c #84C1E6",
"4. c #8AC2E4",
"5. c #86C5EB",
"6. c #8CC5EA",
"7. c #87C8ED",
"8. c #8CC9EE",
"9. c #92C5E3",
"0. c #97C9E6",
"q. c #9AC9E4",
"w. c #91C9EC",
"e. c #9BCCE9",
"r. c #87CAF1",
"t. c #8DCDF2",
"y. c #93CEF2",
"u. c #96D1F5",
"i. c #9AD4F6",
"p. c #9DD6F9",
"a. c #9ED8FA",
"s. c #A3CBE2",
"d. c #ABCDE0",
"f. c #A5D0E5",
"g. c #ABD3E3",
"h. c #A4D1EA",
"j. c #ACD4EB",
"k. c #AAD8EE",
"l. c #B5D3E2",
"z. c #BBD5E4",
"x. c #B5DBE5",
"c. c #BCDBE6",
"v. c #B1D7EC",
"b. c #BAD7E8",
"n. c #B5D9EB",
"m. c #BBDCEB",
"M. c #AAD9F2",
"N. c #A5DDFE",
"B. c #A8DFFF",
"V. c #BDDDF0",
"C. c #B5DBF1",
"Z. c #BEE1EC",
"A. c #AAE2FF",
"S. c #B0E6FE",
"D. c #B5EAFF",
"F. c #BBE8FB",
"G. c #B9E0F2",
"H. c #C2D8DE",
"J. c #C4DCE6",
"K. c #CADDE5",
"L. c #C3DDEA",
"P. c #CBDEE9",
"I. c #C5E0E7",
"U. c #C2E3ED",
"Y. c #CCE3EC",
"T. c #D3E4EC",
"R. c #D9E7ED",
"E. c #D6E9ED",
"W. c #DDEAEE",
"Q. c #D3E2E7",
"!. c #C5E6F0",
"~. c #CCE5F2",
"^. c #CCEAF3",
"/. c #C5ECFC",
"(. c #D1E7F4",
"). c #D3EDF5",
"_. c #DCEBF3",
"`. c #D3EFF8",
"'. c #D5F0F9",
"]. c #DDF5FB",
"[. c #DFF8FE",
"{. c #E3ECEF",
"}. c #E3EEF2",
"|. c #E8EFF3",
" X c #E4F1F5",
".X c #EBF2F5",
"XX c #E1F6FC",
"oX c #EAF5F9",
"OX c #E2F9FE",
"+X c #EAFEFF",
"@X c #F1F5F6",
"#X c #F5F8F7",
"$X c #F2F7F8",
"%X c #F5FAFB",
"&X c #FCFCFC",
/* pixels */
"1 = 1 1 1 @ P.&X}.* = 1 = 1 1 1 1 1 1 1 1 = = 1 = 1 1 = 1 = 1 1 1 = 1 - 1 = 1 = 1 1 1 - 1 1 1 = 1 = 1 - = 1 - 1 = 1 2 # +.&X&X&X",
"= 1 - = 1 # z.&X.X- < - 1 - - 1 = = - 1 - 1 = , z 0 = 1 1 1 - 1 - 1 = 1 1 1 = 2 1 1 1 = 1 1 1 1 1 = 1 1 1 1 1 1 2 = 1 # -.&X&X&X",
"1 1 3 c 1 @ l.&X%X0 = 2 1 2 3 1 1 3 1 1 1 2 2 < y 9 1 1 1 2 1 1 1 2 1 1 1 = 1 3 1 2 1 1 1 1 1 1 @ 3 1 1 1 @ 1 1 1 c 3 # L.&X%X&X",
"2 1 3 9 2 , *.&X&Xh = 3 2 2 2 2 2 3 2 2 3 2 2 2 = 1 2 2 2 2 2 2 3 3 1 3 1 u k 1 2 2 2 2 3 2 , } @.@ 3 3 3 z O 1 2 0 3 1 _.&X&X&X",
"3 2 2 2 3 < *.&X.Xx < 3 4 1 2 3 3 3 3 2 8 4 3 3 3 3 2 3 2 1 3 3 2 2 4 3 3 y 0 2 3 2 5 2 2 5 1 l c 1 2 3 1 { ( o 3 3 1 0 @X&X&X%X",
"5 5 7 9 3 < s.&X#Xv @ 3 4 l 3 3 3 2 3 3 3 3 3 3 3 3 5 2 w n 2 3 3 3 3 5 3 3 4 3 3 9 5 9 7 5 7 1 1 7 5 3 7 < d.' . 7 4 M &X&X&X&X",
"7 7 3 w 5 < s.&X&X' < w 4 l 3 7 7 7 7 7 7 5 7 7 w 3 7 5 w l 6 w y 4 3 5 3 7 3 3 7 5 5 5 7 7 7 7 7 3 7 5 7 5 1 b.( . 2 ] &X&X&X%X",
"w w 7 2 V 3 s.&X&X} @ y w 3 7 7 3 w 7 7 5 y 7 7 3 w 7 w 7 3 5 u D 4 y 7 3 7 7 7 7 q w w 7 7 5 w 7 y w 7 7 w 5 2 _._   :.&X%X&XT.",
", 7 w 9 n 5 d.&X&X| 1 7 4 w 7 w 7 w w 7 w w 4 9 7 w 3 y w w 9 7 3 7 w w w w 7 w w 5 l V 7 w w w 7 9 w w w w u n w $X_ J.&X%X&X&.",
"} $ # w w 5 @.T.&XO., H d.5 w w w 7 y 9 y w M w w w w 7 w y w 7 w w w w w w w 7 w w 7 w w w w w w w w w w w y V 2 M .X&X&X&X&Xv ",
"R.T.' * 1 2 b.&X&X| , M | 7 w y w y y 7 7 y c 7 3 y t w y w t y y w y w w y y V t 7 w y w y 7 M V 7 y w w y w 7 w 4 H &X&X&X.X0 ",
"7 V m.P.` . z.&X&X} 4 w 6 p w y y w y y y y 1 0 ; O 3 y V V 7 y w y w y y w y M y y y w w y w a a w w y y y w e y 7 +.&X&X&XP.2 ",
"p 7 6 M L.P.R.&X&X' 5 a p w y u y a y a y y m.XXOXO.O 7 y y y u y p p 7 7 p y w y y y y y y a w w y y y p t a w a 7 L.&X$X&X*.4 ",
"p a a 7 6 @.&X&X&Xv 7 a y a a p 7 y y 7 3 { +X[.OX+Xh ; * = y p y p 7 +.s.7 a y y y y a u a w p p p y p e e y a p u  X&X&X&X` 4 ",
"p p a a a 7 _.&X&Xc 7 f a a y y c 8 j v ).].OXOX].OX`.].U.% @ w a a t H G w a a p p p u a a a e p a ] p a a a p t V &X&X&X&Xk t ",
"p p a a a f  X&X&Xk w a a a y Z.+X).].+X+X+XOXOXOXOX+XOX+X>.l - y a a p p a p f s u a a a a a a a p a a a a p p r { &X$X&X|.w p ",
"f f p a a m .X&X@Xe p p p B !.].`.'.'.'.'.'.'.).'.'.).).).].'.Z y a a d a a a p p p [ m a a a s a p p f y a s Z t g.}.Y.&XR.5 a ",
"a a s s s Z %X&X}.w m M a m B m m m s s m s s m s m m s s g a s a s s s s s a d s s s s a a y 1 e N f m s s m G i L.&X&X&Xz.5 m ",
"s s s s a F &X&XT.1 S G s g a s a s s s s s s s s s s s s s s s Z s s s m s s g s s s a s u.N.5.O 5 a f s s s s a _.&X%X&X&.7 N ",
"s m m m a ..&X&XT.1 s a s s s g m g m s a m g s s g s m g s s a E Z s s s s g s p p p s 3.A.N.A.E F & 7 m s s s m oX&X&X&X' t N ",
"g g g m d o.&X&XR.2 m g s g m g s a g g Z g g g g d g g s N g g s s g g g g s F F T F a.A.A.A.A.S.D.3.w w g g d F &X&X&X&XV p g ",
"g g g N d 0.&X&X.X0 a N m N g g B [ p g o.g g g N [ g g N g g g s Z N g g g S t.t.8.t.7.7.7.7.7.7.7.t.Q p N g d ..&X&X&X&Xz s N ",
"m N g N a v..X_.@Xe s A g N N d o. Xy g g g g N g F g g g N N m N N s N N g s d a a d s s d s s a s d s Z g N d 9.&XJ.l.K.u s g ",
"g A N N d q.P.T.}.y g N N g N d v.&X` i A N g A N g A N N g N N N g N N N Z A N N A A A N N K N N N N S 4.g A s j.&X#X XY.7 A N ",
"A A N A g n.&X&XL.7 K N N N N B  X&XK.7 N N N N N S N N N N N N N N A A s p g L N N N N N N N N N N N N N N N d m.&X&X&XP.7 S N ",
"A g g A g _.&X&X@.t L B N N g e.&X&X&Xl f A N N K B K N N B K N N N A d 4.J.u r N A N K N S N N N S N N N N L g ~.&X&X&Xl.r L N ",
"A A A A A _.&X&XV a L B A L A _.&X%X&Xz.7 L N N A N N A N L A N N N g 9.%X&X}.&.w g A A N N L N N L A A S K N N _.&X&X&X&.w L N ",
"A A A A S oX&X&Xk a L K L g e.&X&X&X&X&Xl s L A L L N L L N L A f.Z.x. X X_. X.Xd.s L A L A A A N L A K S A L A oX&X%X&X| p P L ",
"A A A L T %X&X&X` w L L L N L.&X&X&X&X@X| a P S S L L S L L S L F P P A L L N N P A A A L S A S L L L S L S L F $X&X&X&X' d P d ",
"A A A A E &X#X&X| 7 T L P K e.&X&X%X&X|.w g L P L L S L L L S P L L A L L L L P A L P A L L L S L L L L L L K E %X&X&X&XD g g X.",
"L L P A 3.&X{..Xd.r P L P J n.&X%X&X%X&X] r U L L L P L P L L L P L A A A P L P P S P S L P L P L L L P L P K ..&X&X&X&Xk r b._.",
"P L P J 6.&X&X&X| t U L L B _.&X&X&X&X&XR.7 N L P L P S P S P L L P P P P L P L L P L L P L L P P S P L L P K 0.&X%X&X&XC P.m.N ",
"K P P J e.&X%X&XC d T P K 4.&X&X&X&X&X&X&X' t U P P P P L P L P P P L P P P P L L L P P P L P P P P P P P P J e.&X&X&X&X$Xe.g P ",
"U P U K j.&X&X&Xl f U P K 0.&X&X%X&X%X&X&XP.e B P K P P P P U P P P P P P L P P U P U L P P P P P K K P P P K h.&X%X&X%XV d U P ",
"P P U K C.&X&X&Xk J U P P ..&X&X&X&X&X&X&XP.e L U P P P P P P P P P P U P P U P P P U P P P P P L X.V K U U K j.&X%X&X.Xe K U P ",
"P P U K U.&X&X%Xj f U U K C.&X&X&X&X&X&X&XR.w K U P P P U U P P P P Y P U P P U P U P P T U U U K /.h.t U U K V.&X&X&X.Xe P U P ",
"U P U K ~.&X&X%Xj K U P U oX&X%X&X&X&X%X&X$Xk f U P U P P P Y P R R L U P P U P P P P Y U U U P Q OX`.u P R K V.&X&X&X|.e K U U ",
"U U U P (.&X&X$Xe m U P v.&X&X&X&X&X&X&X&X@XD f U P P U Y P Y P ~ i.m P 5.P P U Y Y Y P U L P L k.+XXX[ K R P h.J. X&X|.e P U U ",
"U U U P _.&X&X&Xj N U E _.&X%X&X&X%X&X&X&X}.e N U U U U U U U P t.A.B L N.E K Y Y P Y P P h.S L M.+XOXD p W K ~.&X&X&X|.q L P U ",
"U U U P  X&X.XT.e f U U e.#X&X&X&X&X&X&X&X&Xc t R U U R U U Y P u.A.T g A.6.g W Y Y Y P E OX[ a ^.OX+Xm.$ q 1 L.&X&X&X{.$ q e a ",
"U U U Y  X&X X_.n f W K w.&X&X&X&X&X&X&X#X&XP.1 P R U 8.P Y U Y a.A.5.B A.u.m U P L m r q.%Xg.$ `.OXXX].: 8 e (.&X&X&X}.X * % % ",
"Y Y Y W .X&X&X&Xl f W Q }.&X%X&X&X&X&X&X&X#X}.{ p U W B.F P Y Q N.A.6.S B.8.2 q q 0 e n v.+XZ.[ ].OXOXXX0.N.A.oX&X&X&X.X..p.i.w.",
"R Y Y W $X&X&X&XV d W Q L.&X&X&X&X&X&X&X&X&X:.C L U Q B.3.N W ~ N.N.3.j X.[ k G 8.h.B.B.].OXOXx.).OXXXXXX.y.N. X&X&X&X.X[ N.B.A.",
"Y W Y Q %X&X&X&XC d Q K M.&X&X&X#X&X&X&X%X&Xb., P U r.S.8.f P T 4.4.4.6.N.N.A.A.A.B.B.B.].OXOXm.~.OXXX+Xv.3.N.OX&X&X&X$X..i.B.N.",
"W W W Q oX&X&X&X` t U Q #X&X&X#X%X&X&X&X&X&X&Xj t W t.B.3.* m 3.i.N.B.A.B.B.N.N.N.B.a.F.OXXXOXI.U.OXXXOXv.3.N.oX}.&X&X$X{ p.N.N.",
"U W Y Q %X&XT.&X{ t U C.#X%X&X&X&X&X&X&X&X&X&Xz.@ w ..8.w.w.N.A.B.N.N.N.N.N.B.N.N.B.N.F.OX].OX^.l.].OX+X!.G p.oX.XP.z.@XX.y.B.N.",
"Q P L Q P.J. X&X' 5 K E .X&X&X&X&X&X&X&X&X&X#X|.C n u.N.A.A.N.N.N.N.N.N.N.B.N.N.N.N.N./.OXXXOX).1.'.'.(.U.D B  X&X.X.X&XD ..u.p.",
"p.r.T F .X%X&X&X .j ..j.&X&X&X&X&X&X&X&X&X&X&XP.}.9.u.B.N.N.N.N.B.N.N.B.N.N.N.N.B.B.N./.OX].(.c./ ) $.O._ ` c }.&X&X&X&Xx 8 k M ",
"M.V./.].&X&X%X&XY.z.OX%X&X&X&X%X&X%X&X&X&X.XW.P.@.w.p.B.A.A.A.N.B.A.B.B.B.B.A.A.N.p.8.j.1.$.$.-.%.2.^.'.].[.[.%X&X&X&X&Xl.g.m.f.",
"OX+XOXOX&X&X&X&XK.1.].&X&X&X@X&X&X&X&X&X&X.X2.Y.9.H ..3.5.6.y.u.u.u.u.u.y.7.3.E F H [ =.c.^.].OX+XOXOXOXOXOX[.%X&X&X&X&XJ.I.+X+X",
"[.'.].'..X@X.X#X2.$.^.).).Y.Y._.R.@X@XR._. X^.].+X].^.m.f.q.o.[ [ [ G [ [ o.9.g.Z.^.XXOXOXOXOXOXOX].OXOX[.[.[.%X&X&X&X&XL.z.XX].",
"XX XoX X@X@X#X#X|.}. X X X X_.E.T.R.Q._ O.Z.Y.^.^.].OXOX+XOX+XOX].].].XXOXOX+X+X+XOXOXOXOXOX].OXOX[.OX[.OXOX[.%X&X&X&X&XT.l.].OX",
"&X&X&X&X&X&X&X&X&X&X&X&X&X&X&X&X&X&X&X%X.X|.R.P.I.x.x.Z.U.^.'.OXXXOXOXOXOX[.[.].OX].OXOXOXOXOXOX].OXOXOX].OX[.oXT.L.J.&XW.=.XXOX",
"&X&X&X&X&X&X#X&X&X&X&X&X&X&X&X&X&X&X&X&X&X&X&X&X&X%X.XR.I.x.x.x.U.^.].OX[.OXOXOXOXOXOX[.].OX].OX[.OX[.XX[.XXOX_.@.:.R.&X X=.'.OX",
"&X&X&X&X&X&X&X&X&X&X&X&X&X&X&X&X&X%X&X&X&X&X&X&X&X&X&X&X&X&X.XE.c.1.,.x.!.).].[.].OXXXOXOXOX[.OXOX].OXOXOXOX].%X&X&X&X&X#X=.^.XX",
"&X&X&X%X&X&X&X&X&X&X&X#X&X&X&X&X&X&X&X&X&X&X&X&X&X&X&X&X&X&X&X&X&X#X_.I.1.>.g.x.Z.^.'.'.].].[.OXXXOXOX[.OX[.[.%X%X&X%X%X#X%.,.x.",
"&X&X&X&X&X&X#X&X&X&X&X&X&X&X&X&X&X&X&X&X&X&X&X&X&X&X&X&X&X&X&X&X&X&X&X&X&X.XE.J.1.>.>.>.g.x.Z.U.!.^.^.^.^.^.^._.{.R.Q.K.H.^ > 2.",
"&X&X&X&X&X&X&X&X&X&X&X&X&X#X&X&X&X&X#X&X&X&X&X#X&X&X&X&X&X#X&X&X&X&X&X&X&X&X&X&X&X#X}.T.I.2.,.>.-.#.*.*.#.#.#.-.;.;.<.2.H.Q.{.&X",
"&X#X&X#X&X&X&X&X%X&X&X&X&X&X&X&X&X&X&X&X&X&X&X&X&X&X#X&X&X&X&X&X&X&X&X&X&X&X&X&X&X&X&X&X&X&X&X%X@X.X X X{.{.}..X@X#X%X&X&X&X&X&X",
"&X&X&X&X&X&X&X&X&X&X&X&X&X&X&X&X&X&X&X&X&X&X&X&X&X&X&X&X&X&X&X&X&X&X&X%X&X&X&X&X&X&X&X#X&X&X&X&X&X&X&X&X&X&X&X&X&X&X&X&X&X&X&X&X",
"&X&X&X&X&X&X&X&X&X&X#X&X#X&X&X&X&X&X&X&X&X&X&X&X#X&X&X&X&X&X&X#X&X&X&X&X%X&X&X&X&X&X&X&X&X&X&X&X&X&X&X%X&X&X&X#X&X%X&X&X&X&X&X&X",
"&X&X#X&X&X&X&X&X&X&X&X&X&X&X&X&X&X&X#X&X&X&X&X#X&X&X&X&X&X&X&X&X#X&X&X&X&X&X&X&X&X&X&X&X&X&X%X&X&X&X&X&X&X#X&X&X&X&X&X&X&X&X&X&X",
"&X&X&X&X#X&X&X&X&X&X&X&X&X&X&X#X&X&X&X&X#X&X&X&X&X&X&X&X&X&X&X&X&X&X&X&X&X%X&X&X&X&X&X&X&X&X&X&X&X&X&X&X&X&X&X&X&X&X&X&X&X&X&X&X",
"&X&X&X&X&X&X&X&X&X&X&X&X&X&X&X&X&X#X&X&X&X&X&X&X&X&X&X#X#X&X&X&X&X&X&X&X&X&X&X&X&X#X&X&X&X&X&X#X&X&X&X&X&X&X&X&X&X&X%X&X&X&X&X%X"
};
