/* XPM */
static char *pinguin[] = {
/* columns rows colors chars-per-pixel */
"64 64 194 2 ",
"   c #050403",
".  c #0A0302",
"X  c #020309",
"o  c #070A0B",
"O  c #0B0B0B",
"+  c #110601",
"@  c #160B06",
"#  c #180B06",
"$  c #160E0A",
"%  c #1A0E0A",
"&  c #16110E",
"*  c #1A110D",
"=  c #0F1010",
"-  c #151515",
";  c #191514",
":  c #161718",
">  c #16191A",
",  c #1A1A1A",
"<  c #181817",
"1  c #20140F",
"2  c #211D1B",
"3  c #031A22",
"4  c #191F22",
"5  c #151E22",
"6  c #152125",
"7  c #1C2124",
"8  c #19262B",
"9  c #1B282D",
"0  c #15252C",
"q  c #192C35",
"w  c #1D343D",
"e  c #14313E",
"r  c #222222",
"t  c #2A2B2B",
"y  c #252728",
"u  c #333334",
"i  c #393A3A",
"p  c #432A01",
"a  c #54380B",
"s  c #463C38",
"d  c #5F513C",
"f  c #594F3B",
"g  c #05354D",
"h  c #133544",
"j  c #113A49",
"k  c #123A47",
"l  c #063E52",
"z  c #0F455D",
"x  c #114359",
"c  c #114053",
"v  c #3E4247",
"b  c #0E4D67",
"n  c #114B64",
"m  c #114E69",
"M  c #174A60",
"N  c #0E516E",
"B  c #16536D",
"V  c #0E5978",
"C  c #0D617F",
"Z  c #414243",
"A  c #4B4B4B",
"S  c #454849",
"D  c #585247",
"F  c #535454",
"G  c #5C5D5D",
"H  c #4A5059",
"J  c #665940",
"K  c #71654B",
"L  c #636464",
"P  c #6A6A6B",
"I  c #676868",
"U  c #636972",
"Y  c #737474",
"T  c #7C7D7D",
"R  c #99680C",
"E  c #8A7F38",
"W  c #6F8A5A",
"Q  c #7A8A52",
"!  c #738E60",
"~  c #BF911F",
"^  c #8D8038",
"/  c #978F3F",
"(  c #B79225",
")  c #AB9436",
"_  c #CC8700",
"`  c #DB8F00",
"'  c #DB9402",
"]  c #D6970E",
"[  c #E08D00",
"{  c #E29604",
"}  c #E59A05",
"|  c #EA9902",
" . c #F39C00",
".. c #FA9B02",
"X. c #F99400",
"o. c #FBA402",
"O. c #F5A306",
"+. c #C49A25",
"@. c #8B8E4A",
"#. c #958F42",
"$. c #E7B141",
"%. c #F3BB5F",
"&. c #EEB853",
"*. c #F2C46B",
"=. c #0D6283",
"-. c #0D6489",
";. c #0B698C",
":. c #066489",
">. c #146E8D",
",. c #096C95",
"<. c #136C90",
"1. c #0C739A",
"2. c #08739A",
"3. c #147298",
"4. c #0A76A4",
"5. c #0C7CA4",
"6. c #027DAC",
"7. c #0B7DA8",
"8. c #077CA7",
"9. c #017DB2",
"0. c #0078BD",
"q. c #2D808E",
"w. c #30808C",
"e. c #258298",
"r. c #0A81AF",
"t. c #1B84A5",
"y. c #0281B3",
"u. c #0B83B3",
"i. c #0384BB",
"p. c #0B8ABA",
"a. c #0888B7",
"s. c #1E92BC",
"d. c #2192BB",
"f. c #0287C1",
"g. c #038AC6",
"h. c #038CCB",
"j. c #0E8EC3",
"k. c #0591CB",
"l. c #0899CE",
"z. c #0693C5",
"x. c #008DD3",
"c. c #0292D5",
"v. c #0A94D3",
"b. c #0599D4",
"n. c #0C9CD3",
"m. c #0095DA",
"M. c #0A97DA",
"N. c #019BDD",
"B. c #0A9BDC",
"V. c #04A1DE",
"C. c #0BA1DF",
"Z. c #06A3D7",
"A. c #009EE0",
"S. c #009FE8",
"D. c #0B9FE1",
"F. c #01A3E3",
"G. c #0AA4E2",
"H. c #01AAE5",
"J. c #09ACE6",
"K. c #01A5EA",
"L. c #01ABEC",
"P. c #09AEE8",
"I. c #09A5EB",
"U. c #0AB0E5",
"Y. c #01B3EE",
"T. c #09B4EC",
"R. c #01ADF2",
"E. c #02B3F2",
"W. c #09B6F3",
"Q. c #838383",
"!. c #8D8C8D",
"~. c #888687",
"^. c #9A9B9C",
"/. c #939596",
"(. c #A4A4A3",
"). c #ACACAC",
"_. c #B1B0AF",
"`. c #B4B4B4",
"'. c #BBBBBB",
"]. c #F2DCB0",
"[. c #FAE0B5",
"{. c #C5C5C5",
"}. c #CACACA",
"|. c #C5C9CF",
" X c #D4D4D4",
".X c #DBDBDB",
"XX c #C8CCD3",
"oX c #F8E6C1",
"OX c #E5E5E5",
"+X c #EAEAEA",
"@X c #F5F5F5",
"#X c #FDFBF4",
"$X c #FFFFFF",
"%X c #F3F5F9",
/* pixels */
"H.P.P.P.H.H.H.U.H.U.U.U.H.H.U.U.H.U.U.U.H.U.U.U.H.U.U.H.U.H.U.U.H.U.U.H.U.H.U.U.U.U.H.U.U.H.U.U.H.H.H.H.U.U.H.U.U.H.U.U.H.H.U.U.",
"H.H.P.H.Y.H.H.U.H.H.H.H.H.T.U.H.U.H.H.H.H.H.T.H.H.H.H.H.H.H.H.H.H.H.H.H.H.U.U.H.H.H.H.H.H.U.U.H.U.Y.U.H.H.H.H.H.U.H.H.H.H.U.H.Y.",
"P.H.H.H.U.H.H.H.H.H.H.H.U.U.H.H.H.H.H.H.H.H.H.H.U.H.U.H.H.U.Y.Y.Y.Y.Y.H.H.U.H.H.H.H.H.H.H.U.H.U.H.H.H.H.H.H.H.H.H.U.H.H.U.U.H.H.",
"H.H.H.U.U.H.U.H.H.U.H.U.H.H.H.H.H.H.H.H.U.H.H.U.H.H.H.W.T.H.p.a.a.p.Z.T.W.U.H.H.U.H.H.H.H.H.H.H.H.H.H.U.U.H.H.H.H.H.H.U.U.H.H.H.",
"V.H.U.U.V.H.H.H.H.H.H.H.H.H.U.U.V.H.U.H.H.H.H.H.H.Y.Z.>.c 4 - & & - 5 c ;.Z.Y.H.H.H.H.H.H.H.H.H.H.H.U.U.V.H.H.H.H.H.V.U.H.H.H.H.",
"H.H.H.H.H.H.V.H.H.H.H.H.H.H.H.H.H.H.U.H.H.H.H.V.Y.t.9 # & & ; : : - & $ # 6 t.Y.V.H.U.H.V.H.H.H.U.U.U.H.H.H.H.H.U.H.H.H.H.H.H.U.",
"H.H.P.P.H.H.H.P.U.H.H.H.H.H.H.H.U.P.P.P.H.H.H.E.C # & > : : : - > : : : > - + C W.U.L.H.P.H.H.H.H.H.H.H.H.H.H.H.H.H.H.H.H.H.H.H.",
"H.H.H.H.H.H.H.U.U.H.H.H.H.H.H.H.P.H.H.H.H.V.E.1.@ : > > : ; - , 2 ; ; < : > > # 3.E.H.H.H.H.H.H.H.H.H.H.H.H.H.U.U.H.H.H.H.H.H.H.",
"H.H.H.H.H.H.P.J.Z.H.H.H.H.H.H.H.H.H.H.H.H.H.n.> ; - O O - < , r : - : < o o - ; > l.L.V.H.H.H.H.H.H.H.H.H.H.P.J.V.H.H.H.H.H.H.J.",
"F.H.F.H.F.H.H.K.H.H.H.H.K.F.F.H.H.K.F.H.F.W.B @ o r A S - O r - : : O ; A A r o # m E.H.H.I.J.F.H.F.H.K.H.H.J.F.H.H.H.K.F.H.H.F.",
"H.H.H.K.H.F.H.H.H.H.H.F.J.L.H.H.H.H.F.H.L.Z.5 $ Q.+X$X$X.XZ o < > O Z .X$X$X+XQ.= > l.L.J.J.H.K.K.H.H.H.F.H.K.H.H.H.H.H.K.H.H.K.",
"H.K.H.K.H.H.F.H.H.H.F.P.L.F.H.K.F.H.H.F.W.1.. ^.$X$X$X$X$X+Xt - - t OX#X$X$X$X$X^.. 1.E.J.H.F.H.H.F.F.H.K.H.H.K.H.H.F.J.L.H.F.H.",
"H.H.J.J.H.H.K.H.H.H.J.J.H.H.F.H.H.F.H.H.E.l s $X$X`.Q.@X#X$XQ.o o ! $X#X$X~.(.$X$Xs l E.F.H.F.H.H.H.H.K.H.H.H.H.H.F.J.J.J.F.H.H.",
"F.J.J.F.F.H.H.F.F.F.H.H.F.H.F.H.H.F.H.F.J.3 ~.$X$Xi   {.$X$X(.$ O ).$X$X{.  t $X$X!.> H.H.F.H.H.F.J.J.F.F.H.F.H.F.H.J.H.F.H.H.F.",
"J.L.F.H.F.H.F.K.F.H.F.K.H.F.H.F.J.H.H.L.l.o ).$X$X'.!.#X$X$X!.o X ~.$X$X$X!.'.$X$X_.o l.L.F.H.F.J.J.H.F.H.F.F.H.F.H.F.H.H.F.F.H.",
"F.F.H.F.H.F.H.H.F.H.H.H.F.H.F.J.J.F.F.R.p.  ).$X$X$X$X$X$X$XD a a D %X$X$X$X$X$X$X`.. p.L.H.F.H.J.H.F.H.F.H.H.F.K.H.K.H.F.H.F.H.",
"F.H.F.F.H.F.J.H.F.H.F.F.H.F.H.I.F.H.F.Y.7.  !.$X#X$X#X$X$X%.X.o.| ` &.$X$X#X#X$X$X/.. 5.E.F.H.F.F.F.H.F.H.F.H.F.F.H.H.F.H.H.F.P.",
"H.F.H.F.F.J.J.F.H.F.F.H.H.F.H.F.F.F.F.R.1.. G $X$X$X$X$X].X.O...} { ` ].$X$X$X$X$XG . 1.R.F.F.H.F.K.H.F.F.G.J.F.F.F.F.H.F.F.I.H.",
"F.H.F.H.J.L.F.F.H.F.H.K.K.F.H.H.H.F.F.E.3.% , .X$X$X$X$X#X&.X...} ` $.#X$X$X$X$XOX, @ ;.E.F.F.F.H.F.F.F.H.I.F.F.H.H.F.F.F.H.F.F.",
"F.F.F.F.F.F.F.F.F.F.F.F.F.F.F.F.F.F.F.E.>.* o Y $X%X$X$X$X#X*...{ *.#X$X$X$X#X$XY o # -.W.F.F.F.F.F.F.H.J.H.F.F.F.F.K.F.F.F.H.H.",
"F.F.F.F.F.F.F.F.K.F.G.G.F.F.F.H.F.F.G.W.;.@ > = `.$X$X$X$X$X$XoXoX$X$X$X$X$X$X`.- > % <.R.F.F.F.F.K.F.F.F.F.I.F.F.F.F.I.F.F.H.F.",
"F.F.F.F.F.F.F.F.F.G.G.F.F.F.A.A.F.F.N.R.-.@ > - : _.$X$X$X$X$X$X$X$X$X$X$X$X_.> - > 1 ,.L.F.F.F.F.F.G.A.F.F.A.F.F.F.G.A.A.F.F.A.",
"G.G.F.A.A.F.A.F.G.G.A.F.A.F.A.F.F.A.V.R.V # > - ,   `.$X$X$X$X$X$X$X$X#X$X'.  - > > @ =.R.N.F.A.F.F.A.F.A.F.A.A.F.I.D.F.A.F.A.G.",
"G.F.D.F.F.A.F.A.F.A.F.A.F.D.F.A.F.F.N.K.j % - 4 & G $X$X$X$X$X$X$X$X$X$X$X$XG o , > % j L.N.A.G.G.F.F.A.F.A.F.G.G.G.F.A.F.A.F.A.",
"F.A.F.D.F.F.A.G.A.F.A.F.F.A.G.G.A.N.I.k.> - , , r OX$X$X$X$X$X$X$X$X$X$X$X$XOXy = < - > k.K.G.G.D.F.A.F.F.A.F.A.F.F.G.A.F.A.G.A.",
"A.F.A.F.N.F.F.A.F.A.F.A.A.G.G.F.A.F.L.x $ > , o (.$X$X$X$X$X$X$X$X$X$X$X$X$X$X(.o , > # x L.I.A.F.A.F.F.A.F.A.F.A.A.A.F.A.F.G.F.",
"F.A.A.A.F.G.F.A.A.F.A.A.F.G.A.F.N.L.m # > < o A $X$X$X$X$X$X$X$X$X$X$X$X$X$X$X$XA O , > # n H.A.A.A.F.N.F.A.F.A.F.F.A.A.F.G.F.A.",
"F.A.F.G.G.F.N.A.A.A.A.F.F.A.F.N.L.C # > - > $ {.$X$X$X$X$X$X$X$X$X$X$X$X$X$X$X$X{.- - ; , @ V R.N.F.A.A.G.G.A.A.A.A.A.F.G.G.A.A.",
"A.A.F.G.F.N.A.F.G.A.A.F.N.F.N.L.4.$ , , , o G $X#X$X$X$X$X$X$X$X$X$X$X$X$X$X$X$X$XG O , - > $ 2.L.N.F.G.F.A.F.F.F.A.F.N.A.F.A.A.",
"N.A.N.F.N.F.F.V.A.A.F.N.A.N.F.h.> , r - - - {.$X$X$X$X$X$X$X$X$X$X$X$X$X$X$X$X$X$X}., , - > - > h.F.G.G.A.A.N.A.N.F.N.F.A.A.N.A.",
"F.A.A.N.F.N.F.N.G.G.N.F.N.F.F.k ; 7 ; < o F $X$X$X$X$X$X$X$X$X$X$X$X$X$X$X$X$X$X$X$XF O , - > $ k F.N.N.N.V.N.F.F.N.F.N.F.N.F.N.",
"V.A.N.F.N.F.N.F.G.N.F.N.N.L.-.$ , - - , o _.$X#X$X$X$X$X$X$X$X$X$X$X$X$X$X$X$X$X#X$X`.o , - - > @ -.L.N.F.N.F.N.G.F.N.F.N.F.N.F.",
"A.F.F.A.F.A.V.G.N.F.V.N.F.k.> - > - - - u %X$X$X$X$X$X$X$X$X$X$X$X$X$X$X$X$X$X$X$X$X%Xu - - < , - > k.F.V.A.F.G.V.A.F.N.V.F.A.N.",
"N.N.N.A.N.A.N.F.F.N.A.N.K.m $ , - - ,   T $X#X$X$X$X$X$X$X$X$X$X$X$X$X$X$X$X$X$X$X#X$XT   , r < - # n L.N.A.G.N.A.N.N.F.A.N.N.F.",
"N.F.N.V.N.V.A.N.N.N.V.K.p., - - - - , O {.$X$X$X$X$X$X$X$X$X$X$X$X$X$X$X$X$X$X$X$X$X$X}.- r > - ; - - y.F.N.N.A.N.N.V.N.N.N.N.V.",
"N.N.N.F.N.A.V.N.A.V.N.I.M % > - > , O u @X$X$X$X$X$X$X$X$X$X$X$X$X$X$X$X$X$X$X$X$X$X$X%Xi = - > > > $ x K.N.F.N.F.N.A.A.G.F.N.A.",
"V.N.C.F.N.F.N.N.A.N.F.j.> - > - $ ,   P $X$X$X$X$X$X$X$X$X$X$X$X$X$X$X$X$X$X$X$X$X$X$X$XP   , $ - - < , f.A.N.N.N.V.N.C.V.N.N.F.",
"N.F.C.N.A.N.N.F.N.N.H.V $ > $ 5 h ,   (.$X#X$X$X$X$X$X$X$X$X$X$X$X$X$X$X$X$X$X$X$X$X#X$X(.o ; h 5 ; r $ N L.N.A.F.N.G.F.N.F.N.N.",
"N.G.N.N.V.A.N.N.N.N.m.0 ; $ 0 k.,.* - }.$X$X$X$X$X$X$X$X$X$X$X$X$X$X$X$X$X$X$X$X$X$X#X$X X: @ -.k.q 1 - 0 m.A.N.N.N.A.N.N.A.N.N.",
"N.N.N.N.N.N.N.N.N.K.4.- - 8 h.R.z $ t +X$X$X$X$X$X$X$X$X$X$X$X$X$X$X$X$X$X$X$X$X$X$X$X$X@Xy @ x R.v.0 & & 4.K.N.N.N.N.N.N.V.N.N.",
"N.N.N.N.N.N.B.G.m.K.N @ : a.F.G.h @ v $X$X$X$X$X$X$X$X$X$X$X$X$X$X$X$X$X$X$X$X$X$X$X$X$X$XZ . h N.S.p.> @ b K.M.N.N.N.N.N.N.N.G.",
"N.N.N.N.N.N.B.N.N.A.h @ ,.K.m.M.q . F $X$X$X$X$X$X$X$X$X$X$X$X$X$X$X$X$X$X$X$X$X$X$X$X$X$XG . q m.N.K.1.+ h D.N.N.N.N.N.N.m.B.N.",
"N.N.N.N.N.N.N.N.A.c.- x K.m.A.x.8 . I $X$X$X$X$X$X$X$X$X$X$X$X$X$X$X$X$X$X$X$X$X$X$X$X#X$XP   7 k.A.m.K.M 2 v.A.N.N.N.N.N.N.N.N.",
"N.N.N.N.N.N.N.N.A.g.h c.D.N.A.h.7   Y $X#X$X$X$X$X$X$X$X$X$X$X$X$X$X$X$X$X$X$X$X$X$X$X$X$XY   4 h.A.m.A.M.h g.A.N.N.N.N.N.N.N.N.",
"A.N.N.N.N.N.N.N.N.N.M.D.N.N.A.k.7   Y $X$X$X$X$X$X$X$X$X$X$X$X$X$X$X$X$X$X$X$X$X$X$X$X$X$XY   4 h.A.N.N.A.m.m.A.N.N.N.D.N.N.N.N.",
"m.D.m.N.N.N.N.N.N.N.D.N.N.N.A.m.0   L $X#X$X$X$X$X$X$X$X$X$X$X$X$X$X$X$X$X$X$X$X$X$X$X#X$XP . 8 c.A.N.N.N.N.N.N.N.N.D.m.N.N.m.N.",
"B.B.N.m.m.N.m.N.m.B.m.N.m.m.m.A.k . F $X$X$X$X$X$X$X$X$X$X$X$X$X$X$X$X$X$X$X$X$X$X$X$X$X$XF   h D.N.m.N.m.m.N.m.N.B.N.m.N.m.N.N.",
"D.N.m.N.N.N.m.N.N.m.N.m.N.N.m.I.m + u %X$X$X$X$X$X$X$X$X$X$X$X$X$X$X$X$X$X$X$X$X$X$X$X$X#Xi . m I.m.N.m.N.m.N.N.D.m.N.m.N.N.N.m.",
"m.N.m.m.A.m.m.m.A.m.m.m.m.m.A.D.,.% ,  X$X$X$X$X$X$X$X$X$X$X$X$X$X$X$X$X$X$X$X$X$X$X$X$X.X5 % 3.S.m.N.m.m.A.m.m.m.m.m.m.m.m.A.m.",
"N.m.m.N.m.m.A.m.m.m.A.m.A.m.D.S.x.4   ^.$X$X$X$X$X$X$X$X$X$X$X$X$X$X$X$X$X$X$X$X$X$X#X$X^.. 4 h.A.m.N.m.m.m.m.A.m.A.A.m.A.m.D.m.",
"m.m.m.A.D.M.m.A.m.m.m.m.m.D.c.m.S.M . S $X$X$X$X$X$X$X$X$X$X$X$X$X$X$X$X$X$X$X$X$X$X$X$XS + M S.m.m.m.m.m.D.A.m.m.m.m.m.m.D.M.m.",
"A.A.m.m.M.A.m.m.A.m.A.m.m.m.m.m.A.9.; O (.$X$X$X$X$X$X$X$X$X$X$X$X$X$X$X$X$X$X$X$X%X$X).o ; 9.A.m.N.m.N.D.m.m.m.m.A.A.m.D.m.m.A.",
"m.m.m.m.A.m.m.m.m.m.m.m.A.m.m.A.m.K.B # t OX$X$X$X$X$X$X$X$X$X$X$X$X$X$X$X$X$X$X$X$X+Xu . n S.m.m.N.m.D.M.m.m.A.m.A.m.A.m.m.A.m.",
"A.m.A.m.m.m.A.m.m.m.A.m.m.m.m.m.m.m.B.w   v @X$X$X$X$X#X%X$X$X$X$X$X$X$X$X#X$X$X$X%XH . q M.N.m.m.m.m.A.m.m.m.N.m.m.m.m.m.m.m.m.",
"m.m.m.m.m.m.m.m.D.D.m.m.A.m.m.m.m.B.A.x.h p J XX$X$X$X$X$X$X$X+X+X#X$X$X$X$X$X$XXXK p w x.A.m.N.m.m.m.m.m.m.m.m.m.A.m.m.m.m.m.m.",
"M.m.m.m.m.m.m.m.M.m.m.m.m.m.m.m.m.c.x.s.+...' R D U T Y L A u r t u A L Y T U D R '  .+.d.x.x.m.m.A.m.m.m.m.m.m.D.c.m.m.m.m.m.m.",
"m.m.m.m.m.m.m.m.m.m.m.m.x.h.f.9.6.6.7.~ | ' } O._ p     . o - , > = o   .   p _  .} ' | +.4.9.u.i.0.h.x.m.m.m.M.c.c.x.m.m.m.m.m.",
"m.x.m.m.m.m.m.m.m.m.A.g.9.6.6.6.6.0.@...{  .| ' o.E g 8 4 ; - - - - : > 9 g E o.'  . .| ..@.i.7.6.6.6.9.x.m.m.m.m.m.m.m.m.m.m.m.",
"m.m.m.m.m.m.m.m.m.x.m.0.7.9.6.6.6.6.) ] ( W #.o.' e.i.8.2.,.:.:.:.:.,.2.6.i.e.' ..#.W ( ] ) 9.6.6.6.9.6.0.D.x.m.m.m.m.m.m.m.m.m.",
"m.m.m.M.c.m.m.m.m.m.m.m.M.g.i.9.9.6.4.4.6.0.3...Q 9.6.6.y.y.y.y.9.y.y.y.u.6.9.Q ..>.0.9.5.5.6.6.9.i.h.c.m.m.m.m.m.m.m.m.M.m.m.m.",
"m.m.m.M.m.m.m.m.m.m.m.c.M.m.m.m.x.x.h.h.g.i.i.5.9.9.9.u.9.9.6.6.6.6.9.9.9.9.9.y.5.i.j.f.g.h.x.m.m.m.m.B.m.x.m.m.m.m.m.M.m.m.x.m.",
"m.m.M.m.m.m.m.x.m.x.m.m.m.c.m.m.m.M.A.c.m.m.M.m.M.M.M.c.x.x.c.c.x.c.c.x.c.M.m.M.m.m.c.m.m.m.m.m.m.m.M.m.m.m.m.m.m.x.m.m.m.m.m.m.",
"m.m.m.m.m.x.m.m.m.m.m.m.m.m.m.m.m.M.c.m.m.m.x.m.m.M.M.m.m.m.m.m.m.m.m.m.m.m.m.x.m.M.m.x.x.m.m.x.m.M.M.m.x.m.m.x.m.x.m.m.m.m.m.m.",
"m.m.m.x.m.m.c.m.m.x.x.m.m.m.x.m.M.c.m.m.x.m.m.m.m.x.m.m.m.m.x.m.m.M.m.m.x.m.m.m.M.m.m.m.m.m.m.m.c.m.x.m.m.m.m.m.m.m.m.m.x.m.m.x."
};
