/* XPM */
static char *sapin[] = {
/* columns rows colors chars-per-pixel */
"64 64 247 2 ",
"   c #01292E",
".  c #01242B",
"X  c #022C34",
"o  c #052F39",
"O  c #1B263C",
"+  c #1B293E",
"@  c #05323A",
"#  c #0A343D",
"$  c #053B3C",
"%  c #053839",
"&  c #02433C",
"*  c #024A3F",
"=  c #1A2D43",
"-  c #152F45",
";  c #0D3642",
":  c #0E3A43",
">  c #0A3548",
",  c #153147",
"<  c #193147",
"1  c #123B45",
"2  c #15344A",
"3  c #19354A",
"4  c #17394E",
"5  c #18384D",
"6  c #0D3C53",
"7  c #163C53",
"8  c #183C54",
"9  c #22364C",
"0  c #253E53",
"q  c #1F3D7B",
"w  c #203E7B",
"e  c #0A4745",
"r  c #15464B",
"t  c #09455D",
"y  c #164156",
"u  c #1A4355",
"i  c #15445B",
"p  c #1A455A",
"a  c #15485F",
"s  c #1A495F",
"d  c #1F4854",
"f  c #1C5759",
"g  c #0F5249",
"h  c #254156",
"j  c #254A5C",
"k  c #29485A",
"l  c #26535C",
"z  c #30495D",
"x  c #0B4C64",
"c  c #044E66",
"v  c #134C63",
"b  c #1A4C62",
"n  c #1E416A",
"m  c #0D546C",
"M  c #0A5669",
"N  c #135067",
"B  c #12546B",
"V  c #1C556A",
"C  c #12586F",
"Z  c #1C556B",
"A  c #0D5C73",
"S  c #085B73",
"D  c #125670",
"F  c #115C73",
"G  c #1A5D74",
"H  c #125F7A",
"J  c #144E7D",
"K  c #2C4C62",
"L  c #2C4C6A",
"P  c #274965",
"I  c #334D6B",
"U  c #334968",
"Y  c #235166",
"T  c #2C5363",
"R  c #22546A",
"E  c #24596D",
"W  c #2B576C",
"Q  c #33526D",
"!  c #335B6C",
"~  c #375868",
"^  c #24437D",
"/  c #2A447F",
"(  c #264878",
")  c #245C73",
"_  c #285874",
"`  c #385B74",
"'  c #334F74",
"]  c #0F6176",
"[  c #03637B",
"{  c #0E647B",
"}  c #0D697F",
"|  c #02667C",
" . c #116077",
".. c #11637B",
"X. c #1C647C",
"o. c #12697E",
"O. c #1C6479",
"+. c #19616C",
"@. c #36666D",
"#. c #26667B",
"$. c #3C6375",
"%. c #38687B",
"&. c #29686E",
"*. c #405672",
"=. c #48697B",
"-. c #4B717B",
";. c #1B5B83",
":. c #1D5884",
">. c #2C4682",
",. c #264D82",
"<. c #2A4982",
"1. c #274582",
"2. c #235383",
"3. c #225985",
"4. c #275589",
"5. c #37558B",
"6. c #38548D",
"7. c #026B82",
"8. c #0D6B83",
"9. c #0B6982",
"0. c #146481",
"q. c #196383",
"w. c #136B83",
"e. c #1B6C83",
"r. c #136C8C",
"t. c #196389",
"y. c #0C7087",
"u. c #04748A",
"i. c #0C748B",
"p. c #0A788E",
"a. c #02748B",
"s. c #12748B",
"d. c #1B748B",
"f. c #047C93",
"g. c #0A7C92",
"h. c #0D7A96",
"j. c #137392",
"k. c #146D90",
"l. c #256C82",
"z. c #27748B",
"x. c #377386",
"c. c #317390",
"v. c #425E97",
"b. c #486B81",
"n. c #536782",
"m. c #447285",
"M. c #4A778B",
"N. c #57778A",
"B. c #486895",
"V. c #437D91",
"C. c #577B96",
"Z. c #546F9C",
"A. c #667B8B",
"S. c #5973AB",
"D. c #546FAA",
"F. c #637DA7",
"G. c #088399",
"H. c #1A8399",
"J. c #3B889A",
"K. c #26879C",
"L. c #3390A4",
"P. c #478597",
"I. c #588698",
"U. c #54878D",
"Y. c #638498",
"T. c #5A8AA8",
"R. c #5698A8",
"E. c #4992AB",
"W. c #6B8BA3",
"Q. c #6694A3",
"!. c #7898A7",
"~. c #6594B3",
"^. c #7B9BB4",
"/. c #708EAD",
"(. c #5BA4B2",
"). c #68A6B6",
"_. c #77A3B7",
"`. c #76B3C4",
"'. c #789CC6",
"]. c #85A5BB",
"[. c #8FACBB",
"{. c #899ED3",
"}. c #89A8C3",
"|. c #93AEC9",
" X c #99B6C9",
".X c #8FA4DD",
"XX c #8BA2D7",
"oX c #91A6DF",
"OX c #93A8DF",
"+X c #9BB6D6",
"@X c #83BBD0",
"#X c #A0B9C8",
"$X c #A3BCD9",
"%X c #94A9E0",
"&X c #99AEE3",
"*X c #92A6E0",
"=X c #9DB2E3",
"-X c #9EB2E8",
";X c #A5BAE5",
":X c #A4B8E6",
">X c #ACBFF3",
",X c #8CC8D7",
"<X c #ABC6DA",
"1X c #B8CDD8",
"2X c #ABC3E4",
"3X c #ACC5E9",
"4X c #B4CCE5",
"5X c #B4CBEC",
"6X c #B5C9EE",
"7X c #B6D1E6",
"8X c #BAD2E6",
"9X c #BDD4EB",
"0X c #BDDDEC",
"qX c #B9CEF2",
"wX c #B6CEF1",
"eX c #BCD2F3",
"rX c #BDD4FA",
"tX c #BFD9F2",
"yX c #C0D9EC",
"uX c #C6D8EA",
"iX c #C5DBF2",
"pX c #C9DDF3",
"aX c #C1D7FA",
"sX c #C5DAFB",
"dX c #CBDDFB",
"fX c #C1D5F3",
"gX c #D1DFF0",
"hX c #DBE6E9",
"jX c #CDE2FA",
"kX c #CBE4F6",
"lX c #D3E5FD",
"zX c #D6E9FE",
"xX c #DCECFE",
"cX c #D9E5F6",
"vX c #DEF2FF",
"bX c #D5F2FF",
"nX c #C7E9F6",
"mX c #E3EEFD",
"MX c #E5EDF6",
"NX c #E2F3FF",
"BX c #ECF3FE",
"VX c #EDF2F7",
"CX c #F2F6FB",
"ZX c #F5F9FD",
"AX c #FEFEFE",
"SX c #E1EAEC",
"DX c #C6CDD2",
/* pixels */
"O O O O O O = O = = = = = = = = < = < = < < < < < < < < = 3 3 = 3 < = 3 , 3 < < < < < < < < < < < = = = = = = = = O O = O O O O ",
"O O O O O = = O O = = = = = = = < < < < < < < 3 3 3 3 3 3 < 3 3 3 3 3 3 3 - < 3 3 3 < < < < < < < < < < = = = = = = = O O = O O ",
"O O + + = O = = = = < < 9 < < < < < < < 3 3 3 3 3 3 < ~ 8 3 2 5 2 3 5 5 3 n.h , 3 3 3 3 3 3 3 3 < < < < < < = = = 9 = = O = = O ",
"+ O = = = = = = = = < 0 < < 3 < 3 3 3 - 3 3 3 3 5 5 3 3 5 5 5 5 5 5 3 5 5 z 5 5 5 3 5 2 3 3 , 0 z < < < 3 < < < = = = 9 = = O = ",
"= = = = = = = - = < < 3 3 < 3 3 3 3 2 ~ h 2 5 5 5 5 5 4 5 7 5 5 5 5 4 5 5 2 4 4 5 5 5 k 5 3 3 5 5 3 3 3 3 < 9 3 < < < 9 = = = = ",
"O = = = = = = 9 3 < 3 3 3 3 3 3 5 5 , =.K 2 4 4 5 8 5 8 4 7 7 7 7 8 7 7 8 4 7 4 4 7 7 0 4 4 5 5 5 3 4 3 2 < ~ 0 < < < < = = = = ",
"= = = = 3 = - z 9 3 3 3 3 5 8 3 5 4 5 > 4 7 7 7 8 8 8 8 0 8 8 8 7 8 8 8 7 8 8 8 7 8 4 5 7 7 4 4 5 5 4 5 3 4 4 3 3 3 < < < < = = ",
"= = 3 3 3 3 3 , 3 5 3 5 5 5 5 8 4 5 8 8 7 7 8 7 8 8 7 8 n 7 7 y 8 8 y 7 y y 7 7 8 8 7 8 8 8 8 7 7 4 4 2 4 3 3 3 3 3 3 < 3 < < < ",
"= < < < , 3 3 5 5 5 5 5 4 4 4 7 8 8 8 8 y K 8 y y y 7 > 7 y y y y y y y y y p p y y y 7 7 7 7 8 8 7 2 Q K 2 4 4 3 2 U 0 , 3 3 = ",
"3 3 , 0 h , 5 5 5 5 4 4 7 8 8 7 K K 7 y y Y y y y y y N.Y y y i y y y i y 7 Y P y y 4 W =.6 y 8 8 8 7 K j 5 7 4 4 4 3 3 5 2 3 3 ",
"3 3 , h h 5 5 5 4 7 8 8 8 8 P 8 y y y y y 7 i i y i i Y.W 7 p i i y i i y i i y i y y s Y 8 y y y y y 7 7 7 7 7 7 4 4 4 2 5 5 3 ",
"3 3 5 2 , 8 5 8 7 7 8 7 8 i 8 8 y y y i i i y i i i i 6 i a i i i i v i v i i i i i i i i i y i y y y y 8 y p 4 8 8 4 4 5 5 5 3 ",
"3 3 5 5 4 4 7 8 8 8 7 y 6 y y y y i y y i i i i a a a v s i t a v p i i v i a a i a i a i i y y i y y 6 y p p y 6 7 7 7 7 4 4 5 ",
"5 5 5 4 8 8 7 j y 7 i 8 ! p i i i i b b a a i Y W i a a t W E i v v v i i R v i a a a i a a v W i i Y ! y y y y P P 7 8 8 4 4 4 ",
"5 5 7 7 8 7 y y y y y i b.b i i i a R b a v i v v b v v v E V v b t v v v v v v v E a a v i v b a 6 Y.[.y i i 6 W K 7 8 8 8 8 7 ",
"5 7 8 8 y y y y y i i i y i i a i v i v i v v v v v v v b t v v t %.V v v v v v v V v a v $.b i a a s j i i i i y 7 i 8 8 7 8 8 ",
"7 7 8 y 6 6 u y y i i v i v i i t v v v v v v v N v N v v B t &.%.G Z v B v B v v v N N a V v v v a t a v Y i i p i p p y y 8 8 ",
"7 8 y 6 ` =.6 i i b b i v i i V %.v v v v V Z v N N N m N B t #X8Xt B B B v B v N N N N v N v v v v v v b a i a i i p p i y y y ",
"8 8 y 7 $.b.7 a i i v i v b 6 b.1XV x N v Z &.x N N B B B Z B SXcXG N B m N B N N N N x B x t V v v v a V b v a $.W y i i i y y ",
"y y i i 6 6 a a v i v v v v N x.V v v B B m m B B B B m B C x.AXzXV.x C C B C C B C B B x m.M.x B N N v a v v t ) V t i i i i y ",
"y i i 6 s a i a a a a x v N N ) x N v B B B B D C B C C D c !.AXxX_.M x.x.M C C C C C C x m.V.x N N N v N v v v v t b s i i i y ",
"i 6 W E i v v v N a E &.v B N x B m C m m B C D C C C C F M 1XAXcX5XO.m D D D D C D C C C M x C B m ) V N N N v v a R V a a a i ",
"p i ! @.y V R a N t m.M.x B B B C B m x.#.m G m #.].O.F c P.AXAXMXaX^.c  .A A F F D C C D F C C B B C B m v B v v v v v v i a i ",
"i i i t a x a N N N x x B B B C C D D #.#.A D A F l. .m l.SXAXAXCXqXeXJ.m F F F F F D A D F D D C C C B B B N N B v v v v v a v ",
"v i v b v v N v N N B B C C G C C D F D A F F F  .A A X. XSXAXAXAXsXjXtXz.S  . .H  .l.A A F D A F F C C C x C B v B N v v v v v ",
"i v i v v v N N B N B D B O.I.C #.F A A F A  .X.A  .] +.g f 4XCXCX|.Y.~ s ]  . . . . .G F F F A G A D F C x.#.B B B N v N v v v ",
"i v R N N N N N m ) G m C D G A  .H F F  .H  .o.] ] { ] C & f ].Q.$ # &.M {  .] ] ] ] ] ]  .S m F F F D m #.G m B B B m B v v v ",
"v v M.Z x B B M m G D D D A A F F F  .]  ... .] { { o.S E._.Q.I.U.}.<X`.S o.o.{ ..{ ] ..] ] [.J.S F F F F m C D C B B N Z V v v ",
"v v x v B B B %.G m G A D A F  . . .] { { { { { { { | o.hXbXBXdXjXcXsX0Xo.] { { { { { { { { Q.z.S  . .F F F F m m C C C B B v N ",
"v N N N B B C V.O.m F F F F O.] ] ] ] { { ..{ { } } o.1XAXAXAXCXCXZXqXlX@X[ 8.} { } 8.{ { { S ]  .] ]  . .F A O.G m C C x B B N ",
"N N m B m C C m D F  . . . .] e.o.{ ..] e.J.{ 8.8.} &.!.VXAXAXAXAXBXfXaXzX).| 8.} } 8.{ 8.{ ..{ { { ..]  . .A X.O.A m G x.B B N ",
"N N B B C C C D F F F  . . .] e.0...} 8.w.w.9.} 8.] g   !.AXAXCX|.$.` C.}.-.M y.} d.d.} 8.8.8.9.{ ] ]  .]  . .F A D m #.].D B m ",
"N B B m #.F A F F  .] ] ] ] { { { { 8.8.} } 8.} y.y.C P 1 ].[.` .   X   1 e 8.y.8.y.w.} w.w.9.0.{ z.P.{ ..{ ]  .F F F A M D D C ",
"B B C C C A #. .]  .] { e.e.{ { 8.8.} 8.8.8.y.y.y.y.j.2X` C.$.7 N.Y.N.-.7Xj.y.y.i.y.s.s.} y.8.8.} w.z.} ..{ { ]  .A F F D D C C ",
"B C C A D A O.F ] ] { ] 0.w.o.[ R.).| w.y.y.y.y.s.| ).pXsXBXpXgXzXrXrXfXbX`.7.i.s.| ).R.| z.y.8.8.} } } ..{ ..{ ] X. .F A D D C ",
"B C D D F F A ]  .] { { { } 8.9.d.z.8.y.y.y.i.s.7.J.AXCXCXAXAXAXZXVXcXqXeXnXE.7.p.u.s.s.8.3.y.y.8.8.8.9.} 8.{ { { e. . .F F D A ",
"C C D A F  . . . .X.z.{ } } 8.w.9.8.y.y.i.i.i.u.K.hXAXAXAXuX+XcXAXAXAXpXwXsXjXE.a.p.i.i.t.>.8.y.y.8.8.8.8.8.{ ..{ { ] ]  .F A F ",
"C D F A F  .] { H ;.w.} 8.8.8.y.y.y.y.i.i.i.i.| Q.AXAXAX[.l $ }.AXAXAXzX$XW N.}.d.i.i.p.,.>.t.i.y.y.y.8.8.8.8.{ { { ] ]  .F F F ",
"C F F F A ] { ] H ,.{ 8.} 8.} y.u.O.w.p.i.i.K.L.# -.!.$.% & $ f 4XAXCXrX$.X X . ] g.f.t.>.>.2.p.i.y.y.8.8.8.8.} 8...{ { ]  .F F ",
"D A P.X.H ] { { o.>.;.} 8.y.y.y.i._ #.f.p.p.K.L.o.V $ & # d # % l W.!.~ X X ~ P.a.g.p.,.<.<.<.r.i.i.7.7.8.8.8.8.8.] P.z.S  .] F ",
"F F  . . .{ { { c.<.<. XE.| s.i.y.L _ g.g.g.p.p.f.@X=.1 N.1 5 j X X X   -.~ <XnXH.G.w./ <.<.<.;.p.u.(.E.7.8.y.8.9.9.0.o. .] H F ",
"A  .] ] ....} } J >.<.F.K.7.i.u.l.` I i.g.g.h.a.(.CXpXgXeXb.}.].@ W.C.T tXbXnXzX,XG.j.,.<.>.:.i.i.a.).R.7.s.y.8.8.8.9.9...{ ] H ",
"F  . .] ..{ } } :.>.<.w J i.i.p.` n.U e.G.f.f.`.AXAXAXAXcXlXZXMX5XcXMXeXqXtXnXnXbX`.J / ,.<.<.r.g.p.u.7.y.y.y.8.w.w.} 0.{ { ] ] ",
"F  .] ..{ ..} 8.,.>.<.<.3.s.i.p.q.L ' i.f.f.L.cXgXCXAXAXAXAXAXAXAXAXAXMXwXeXeXsXkXvX$X5./ <.>.2.p.p.s.g.w.q.u.8.z.y.8.G } { ..] ",
"] ] { S [ } } 8.;.>.<./ ,.i.i.g._ I U l.G.f.M f f M.cXAXAXAXAXAXZXCXAXVXwXqXwXwX5XI.W.B.<.,.<.>.t.g.g.g.e.' i.y.8.8.w.,.{ o.e. .",
"A ] S T.[.} 8.7.2.>.,.5.1.c.g.p.I I I b.w.g # * g % =.kXBXBX1XN.` W.$XdXaXeXeXjXW.. X r _ <.>.2.2.s.g.p.e.U 0.i.i.i.;.>.0.8...{ ",
"] { ] m.R.} 8.8.,.<.>.,.1.5.h.e.I I I I P r $ r & 1 % j b.! : X @ % r M.|.2X6X|.d ; ; @ 1 ( <.<.j.g.g.f.) I _ y.y.y.2.>.;.} } { ",
"] ] { P B 8.y.q.<.<.<.>.>.1.:.e.I I I Q r.f.P.o j 1 X r X @ o o 1 : o o X 1 d # o # $.n ( >.<.>.:.G.g.s.Q I I 0.p.8.,.,.( } } ..",
" .{ { ' I w.s.J >.<.<.<.<.2.r.r.I I Q U 0.,XBX#X6XW.$.$Xk ~ N.M.o 1 j   W : 1 ^.d l 0XD.w <.<.<.>.j.G.q.I I I X.p.;.>.<.>...9...",
"..{  .Q I _ y.q.5.<.<./ <./ k.e.I ' P *.DXAXAXAXzXBXxXrX4XMXzXrXN.W.3XW.4X+X XsX7X0XbX0X6.q <.<.<.2.G.e.I I I r.i.,.<.<.>.:.8...",
"{ { ) I ' I G r./ <.<.<.>.B.4._ I P A.MXAXAXAXAXAXAXAXcXZXAXiXfXCXBXeXdXwXrXsX5XqXtXtXbXnXZ.1.<.4.k.j.R U I I O.r.,.<.<.<.,.0.} ",
"{ 9._ I I I _ 2.<.<.<.<.>.<.>./ ' @.U.-.&.[.BXAXAXAXAXAXAXAXAXAXAXAXCXCXcXqXwXrXrXaXjXrXjXzX/.n >.h.;.n.=.U I Q i.;.<.<.<.;.8.{ ",
"..{ X.I I I X.2.>.<.,.>.<.<.>.4.R r $ % * & Q.xXAXAXAXAXgXuXAXAXAXAXAXAXAXcXrX}.@.I.].|.}.W.j 4 <.3.L [.].0 ' I e.,.<.<.>.2.8.{ ",
"..8.H ' I I ' <.<.<.>.>.<.<.>.3.L # # 1 g g & I.sXBXxX^.f f }.CXAXAXAXAXZXdX$Xr e & X % # X # ( <.4._ I U U ' ) 3.<.<.<.<.>.;.8.",
"S 8._ L I T L ( ,.>.w w q q >.1.( %.! o @ : : o @.T.%.% e * e }.mXAXAXAXmX6XT @ 1 : 1 : % ; ^ ^ / ^ ( K U ' I l.:.1.,.1./ >./ { ",
"c.c.C.I.T.S.C.m.6.5.B.S.^.}.|.+X<X<X+XT T d # # $ $ & # e e # g /.9XlXsX|.l @ 1 : ; # 1 ~ 5.S.S.S.D.Z.n.*.U 0 ( 4.6.6.B.6.6.6.3.",
"~.~.~.~.~.T.~.`.<X<X8XyXyXyX9X9X9X8X9X4XyX~ X =.o # 1 1 # 1 # e e f ! l # @ 1 # # r 1 Q =X&X-X:X6XiXkXkXyX#X].{..X.X&X&X&X%XoX{.",
"T.T.T.T.~.|.2X8X7X7X5X7X7X4X4X7X7X7X7X7XyX#X].4XC.N.X X ; o # 1 g g # o 1 # @ Q X Z.XXXX&X*X;XuXkXyXfXpXpXkXlXkXfX:X%XOXoX*X%X&X",
"~.~.'.+X4X0X8X7X7X7X7X7X8X8X8X8X7X4X4X2X=X=X=X&X3X+XN.!.#X#X<X4X8XyXyXuX1X<X X4X+X:X:XOX.X;XkXkXiXpXpXpXpXiXuXpXpXkXiX;X%X%X*X%X",
".X&X&X=X:X$X2X2X4X4X4X4X4X2X2X;X=XOX.XOX:X5XeXdXlXxXBXNXNXNXmXmXxXxXxXxXxXNXNXxXmXxXzXdXqX;X:X;X6XtXfXpXpXpXiXiXfX9X9XqX:X*X%X%X",
"%X%X%X%XOXoXoXOXOX&XOX&X%XOXoXoXOX:XfXlXxXmXmXmXxXzXzXzXzXlXzXlXzXlXzXzXzXzXzXzXzXzXxXxXNXxXzXqX:X%X&X=X=X=X=X&X%X%XoXoX%X%X%X%X",
"%X%X%X%X%X%X%X%XOX%XOXOX*X&X%X*XOX&X=X:X;X3X6XqXfXdXdXlXlXzXxXzXzXxXzXzXzXzXlXlXlXlXdXpXfXfX6X6X:XOXoXoXoXoXoX%X%X%XOX%X%X%X%X%X",
"%X%X%X%X%X%X%XOXOXOX%X%XOX&X%X%X%X*X*X*X*X*XoXoXoXOXOXOX&X&X=X:X=X=X=X=X&X:X&X&X&XOXOXOXoXoXoX.XoX%XOX%X%X%X%X%X%X%X%X%X%X%X%X%X",
"%X%X%X%X%X*X%X%X%X%X*XOXOX*X%X%X%X%X%X%X%X%XOX&XOX%X%XOX*XoXoX*X*X*XoXoXOX*XOX*X*X%X*X%X%X*X%X%X%X%XOX%X%X%X%XOX%X%X%X%XOX%X%X*X"
};
