/* XPM */
static char *snowman[] = {
/* columns rows colors chars-per-pixel */
"64 64 223 2 ",
"   c #351B1E",
".  c #001E38",
"X  c #001B35",
"o  c #00243D",
"O  c #0B293C",
"+  c #172F3E",
"@  c #353237",
"#  c #423737",
"$  c #543A3D",
"%  c #622D34",
"&  c #012740",
"*  c #032A43",
"=  c #072F48",
"-  c #0C334C",
";  c #09334B",
":  c #18374A",
">  c #0D3B53",
",  c #0E3750",
"<  c #123C54",
"1  c #273B47",
"2  c #3F3641",
"3  c #15445B",
"4  c #1A465D",
"5  c #19485F",
"6  c #304954",
"7  c #1B4C64",
"8  c #164C63",
"9  c #1B5369",
"0  c #22556C",
"q  c #23546A",
"w  c #345769",
"e  c #255D73",
"r  c #2B647A",
"t  c #33697C",
"y  c #494446",
"u  c #6D4843",
"i  c #70655C",
"p  c #4B6976",
"a  c #4A6974",
"s  c #737279",
"d  c #900500",
"f  c #B20E00",
"g  c #855C52",
"h  c #BF5753",
"j  c #8A6458",
"k  c #96675A",
"l  c #B9625E",
"z  c #956F65",
"x  c #A47869",
"c  c #CC625E",
"v  c #CC6664",
"b  c #A8805F",
"n  c #AA867A",
"m  c #B18A7A",
"M  c #B28D70",
"N  c #BEA07C",
"B  c #D6BB7D",
"V  c #CAAD78",
"C  c #DCC47D",
"Z  c #2A6D82",
"A  c #356E83",
"S  c #2E7287",
"D  c #35748A",
"F  c #387D92",
"G  c #557A8C",
"H  c #068699",
"J  c #0D899B",
"K  c #078698",
"L  c #148D9E",
"P  c #1C919F",
"I  c #3B879B",
"U  c #168EA0",
"Y  c #198FA1",
"T  c #1C91A3",
"R  c #2394A6",
"E  c #2896A7",
"W  c #2695A8",
"Q  c #2997AA",
"!  c #2D99AB",
"~  c #339CAE",
"^  c #3A9EAF",
"/  c #3B95A9",
"(  c #369DB0",
")  c #3A9FB1",
"_  c #3C8BA0",
"`  c #3DA0AF",
"'  c #3DA1B3",
"]  c #3FA6B9",
"[  c #4C8597",
"{  c #7B999F",
"}  c #668896",
"|  c #488FA3",
" . c #4993A7",
".. c #5495A8",
"X. c #4D9FB1",
"o. c #579EB2",
"O. c #7399A3",
"+. c #43A3B5",
"@. c #4AA5B6",
"#. c #46A5B8",
"$. c #4AA7B9",
"%. c #4DA9BB",
"&. c #4EA8B7",
"*. c #52A2B5",
"=. c #53ABBD",
"-. c #5AAEBE",
";. c #58A4B7",
":. c #5CB0BF",
">. c #60AABA",
",. c #56ADC0",
"<. c #5AAEC1",
"1. c #4DB2C4",
"2. c #5EB1C3",
"3. c #57B2C5",
"4. c #63B3C5",
"5. c #69B6C6",
"6. c #6DB9C6",
"7. c #66B4C8",
"8. c #6AB6C9",
"9. c #6EB8CA",
"0. c #66B8CD",
"q. c #73BBCC",
"w. c #79BDCE",
"e. c #75B8C5",
"r. c #7BBED1",
"t. c #77BDD0",
"y. c #6CB5C8",
"u. c #7DC1CD",
"i. c #7EC1D2",
"p. c #73C2D5",
"a. c #8D8788",
"s. c #BA9787",
"d. c #B2918D",
"f. c #BFA79F",
"g. c #8597A4",
"h. c #A29CA2",
"j. c #85A4AD",
"k. c #99A4A9",
"l. c #83ABB5",
"z. c #98A7B6",
"x. c #A6AAAD",
"c. c #A3B6BD",
"v. c #A4B8BE",
"b. c #ABB3B8",
"n. c #B7AEAC",
"m. c #C5A69E",
"M. c #CBB4AE",
"N. c #D1B3AF",
"B. c #E7B38C",
"V. c #C3C5BF",
"C. c #86B9C7",
"Z. c #80BFD2",
"A. c #9DBFCE",
"S. c #ACBEC5",
"D. c #A7BAC0",
"F. c #B9BEC1",
"G. c #89C4CE",
"H. c #83C2D4",
"J. c #8AC5D6",
"K. c #85C5D8",
"L. c #8BC6D9",
"P. c #8EC8DB",
"I. c #89C9DA",
"U. c #93CADC",
"Y. c #99CDDE",
"T. c #94C8D6",
"R. c #9CD0DF",
"E. c #AFC0C7",
"W. c #B4C4CA",
"Q. c #B8C7CC",
"!. c #BAC9CE",
"~. c #B7C4C8",
"^. c #A5CBD5",
"/. c #BECCD1",
"(. c #A6D3DF",
"). c #B6D1DE",
"_. c #8BCEE1",
"`. c #9CCEE1",
"'. c #96CBE0",
"]. c #9ED0E2",
"[. c #A3D1E4",
"{. c #A9D4E5",
"}. c #A4D9E6",
"|. c #B8D9E3",
" X c #A0CFE4",
".X c #BEE0E5",
"XX c #C6C8CA",
"oX c #C1CED3",
"OX c #CBCEDA",
"+X c #C5D2D5",
"@X c #C9D3D7",
"#X c #CBD5DA",
"$X c #CED9DB",
"%X c #C6D4D8",
"&X c #D1D4DB",
"*X c #D2DBDE",
"=X c #D9D8D9",
"-X c #EBD1CB",
";X c #CED4E1",
":X c #C5DCE5",
">X c #CBDFE7",
",X c #D5DDE1",
"<X c #D6DAE4",
"1X c #CCE1E7",
"2X c #D7E0E2",
"3X c #DBE3E5",
"4X c #DEE4E9",
"5X c #D8E5EA",
"6X c #DCEEF5",
"7X c #E1E6EA",
"8X c #E5EAED",
"9X c #E9EDEE",
"0X c #E6E4E3",
"qX c #EAEEF1",
"wX c #E6EEF0",
"eX c #EEF1F3",
"rX c #ECF8F8",
"tX c #F2F4F6",
"yX c #F5F7F8",
"uX c #F6F8F9",
"iX c #FCFCFC",
"pX c #FAF6F4",
"aX c #EDF0EF",
/* pixels */
"H K J J J J L P L L L E P R E P T T W T W W T E R W W W W ! 5.~ ~ E ! E R Q R R W R R T ~ ~ U ! ^ Y Y U P L L L L L J P ;.H K H ",
"H L ` K L L L P T L Y P +.` L R T T R T ' Q E ! W W T W W ! 4.~ ` ! ' R Q R ! ! W W W T ' ` T R ~ T ~ ! ! U P L L L L J J U K +.",
"J L L L L L L L ! P R T T Y Y R R R R ! ! R W ! ~ ! &.! Q ! T Q E ! Q E ! ` Q Q Q Q W W R W W W T T E ! P T R T Y L L L +.` H P ",
"J J J L L L E U P T L ^ +.R W W W W W R Q ! W ~ ` e.T.W ~ ! ~ ~ ! ! ' ~ ! $.! ! ! Q ! ! E E W ! E E R ~ =.T R T T R ! P L L J J ",
"J L L L U U +.R Y E R E E R E W E Q ( ) ! ! ~ E ` 4.Q ! ' ! ~ ~ ` ! @.e.=.` R ! ! ! ' ! ~ ! E E ! E E E &.E ~ ~ T +.` P ! L L L ",
"L L L E R R E T R R ~ E E W Q E ~ Q ^ G.~ ~ ~ ! ` ! ( ` ( ` ~ ~ ~ ! -..X:.' 4.&.! ' ~ ! ~ ~ ~ ~ E W W ~ ~ T #.` T P ! E P L L L ",
"L L L T U T R T R R 6.^ +.( Q Q ( ~ ! ~ ~ ~ ~ &.( ( =.! $.=.&.~ ` ! =.+.! ~ 6.=.! &.~ ~ ~ ! ` +.! ! ! ! W ! ! W ` T T T T U L L ",
"L P T T R T R R E R E W ! ( E +.#.! ! ! ( +.' ` ( ' +.` ( #.u.&.` ' ~ ` ' ` ~ ~ ~ ^ 5.+.&.+.~ ~ ( ! ! ! W ! ! W E E T E ! T P P ",
"U T T T T R E W W E E ! ! ( ! ) ~ ~ :.=.~ ` +.:.) ) ] ' #.( ) ) ] #.) ' ^ ' &.' ' =.-.@.@.&.:.^ ( ! ! ' ~ ! Q Q Q E ! R E T T T ",
"T T T R W R W W ~ ! ~ ~ ~ ! +.) ) ~ w.4.~ ' +.=.#.) ] ' #.' X.] ' ] #.#.+.+.=.+.' -.~ +.(.@.&.~ ' ' ` ~ &.#.Q Q Q W Q Q T ! R T ",
"T T ~ E R W W ~ ( ( ~ ~ ' ! =.=.~ ' ' ~ +.' #.&.<.) +.X.] +.+.X.%.-.%.#.+.+.%.' +.~ ' ) -.6.+.' +.` ` ! ` ~ @.` ! ! Q Q T R R T ",
"T ! 6.R Q Q ( ! ! E Q ( ' ~ X.&.:.^ #.] ' @.' #.q.=.+.$.#.+.@.@.@.+.#.#.+.w.w.#.+.J.=.' ^ 5.#.#.#.' ' ` ! ] ] Q ! ! ! W ] ! ` E ",
"T R ~ ! Q ! +.! ! :.&.~ ( ~ :.&.+.' &.=.+.=.5.&.-.4.#.&.%.<.$.w.%.4.%.%.+.w.2.$.$.4.$.' 2.<.+.' ' ] +.] ' ' ' ! ! ! ! Q &.' ~ 5.",
"E ~ T Q Q ( ~ ( ` :.-.~ #.+.' #.#.+.-.$.@.#.-.#.#.=.4.$.%.=.-.y.=.=.%.%.5.=.&.%.$.+.$.+.e.Y.+.+.' ' ( &.' ` Q ' ' ~ ' ! E R R E ",
"~ :.! ! ! ! ! ' :.! ~ @.6.+.#.+.#.@.:.#.$.#.w.,.%.%.&.=.%.=.%.$.=.$.%.%.%.2.-.$.&.%.,.$.#.&.$.#.+.+.+.' ` 4.6.$.#.` ~ ! ' ! Q Q ",
"R $.+.W ~ ~ ( ( ' &.~ +.&.+.+.#.#.$.&.=.,.&.,.%.,.=.%.=.=.<.2.,.-.H.4.%.-.-.-.=.=.%.&.2.:.#.4.-.+.+.+.+.@.=.5.' @.i.Q ' ! ! ! Q ",
"! ! ~ ` ! ~ ' ( =.4.) +.) %.%.%.=.$.2.%.$.,.4.,.=.,.<.,.-.%.q.2.=.4.<.,.,.5.5.=.=.-.=.2.L.Z.#.$.$.#.#.+.%.$.) +.<.8.~ ( ~ ! ! ! ",
"! Q %.q.! ` ( ] ) ) +.+.%.%.#.$.$.5.,.-.=.,.,.-.,.<.2.,.,.<.-.,.2.<.,.<.,.<.-.,.,.8.=.%.-.2.%.%.$.4.,.<.) #.<.' +.~ ^ +.' ~ ! ( ",
"! =.` ' ~ ( ) =.+.' +.+.%.7.$.=.<.T.4.&.,.-.<.2.,.4.<.2.2.<.2.-.e.7.<.<.,.<.<.4.2.5.2.,.=.%.=.-.,.,.&.%.#.#.+.X.) #.( ) ' +.! ! ",
"! =.+.! ' ' ' ' +.+.+.#.%.%.%.%.w.4.4.=.,.<.2.q.,.7.4.4.7.8.4.J.9.8.<.8.T.8.4.4.<.<.<.,.<.<.,.=.2.=.$.%.$.$.] +.+.$.=.) ) ' ( ( ",
"! ~ 4.+.~ ' ' +.X.] <.=.$.$.,.=.%.,.,.<.4.4.<.<.2.4.4.r.8.8.4.w.4.4.4.8.J.7.w.9.<.<.2.2.<.4.=.=.$.w.q.$.%.&.$.$.+.+.5.2.4.! ) ( ",
"$.~ ^ =.2.+.+.&.$.#.=.,.<.=.=.=.,.,.<.2.4.4.8.4.4.2.2.7.7.4.7.4.8.4.2.7.2.2.w.y.2.5.8.8.<.q.9.<.=.5.4.$.%.%.%.%.+.+.' #.+.^ ) ~ ",
"^ ~ ) ' $.' #.#.%.%.$.$.w.w.4.,.<.2.<.4.<.7.w.8.2.8.9.8.8.7.8.q.4.H.Z.7.8.7.2.8.9.4.2.8.5.4.8.2.<.%.,.,.,.%.%.%.#.' #.' ) ) ' ) ",
"Z ' ) ' ' +.#.%.$.%.%.=.=.<.<.<.<.<.<.2.4.4.4.4.q.9.J.5.8.8.8.8.7.w.w.7.8.9.8.8.8.8.4.4.4.4.<.<.2.2.,.=.,.%.%.%.$.8.&.#.#.) ' ' ",
"8 ] ) ) +.+.%.$.+.<.=.<.4.,.,.<.4.6.4.4.4.7.q.8.J.H.e.6.q.w.t.8.6.q.9.q.w.9.8.q.9.8.8.8.4.2.5.2.2.2.<.<.,.=.%.%.$.8.=.+.#.' ' +.",
"9 E / ,.+.#.+.w.w.4.2.=.4.<.9.8.8.J.7.4.7.8.8.8.w.H.L.t.t.L.r.q.9.r.q.w.r.8.9.r.9.8.8.8.8.q.P.2.2.<.<.2.,.,.4.<.$.$.#.#.+.' ' ' ",
"> G *.$.+.%.&.<.<.%.=.-.<.4.2.2.8.4.4.7.8.q.8.q.q.J.P.u.q.t.H.q.H.w.9.q.q.q.q.9.q.q.9.q.9.8.8.2.8.6.8.<.<.,.H.6.&.=.#.,.=.$.#.) ",
"> X.1.' #.$.%.$.$.6.4.=.<.<.4.4.4.8.L.r.w.8.9.q.q.q.q.q.q.q.r.q.P.U.H.w.t.r.q.q.Z.J.9.9.8.8.8.7.7.8.4.<.<.,.=.=.=.%.%.%.=.2.#.' ",
"9 / I #.#.$.<.4.4.2.4.<.4.4.2.4.4.8.w.6.q.9.H.r.q.w.w.Z.U.t.t.i.L.T.P.t.t.r.w.t.r.9.Z.r.9.9.8.8.0.2.7.2.<.<.,.,.2.5.<.#.#.+.+.' ",
"> 9 F 1.$.%.;. .3.-.2.4.4.4.4.8.7.8.8.8.9.q.w.Z.w.t.H.H.T.r.i.r.r.H.Z.r.J.Z.r.t.q.L.r.q.9.9.9.9.8.7.9.q.T.w.<.,.2.,.=.2.$.#.+.#.",
"0 1.1.+.$.=.@.Z 3.<.<.<.4.7.4.8.8.8.q.q.q.q.t.t.t.U.T.r.r.H.H.J.H.Y.L.H.Z.H.Z.r.r.r.q.q.q.q.9.9.5.8.8.4.8.4.2.,.-.=.4.q.$.@.$.I ",
"* 3 Z 1.%.%.S q F <.4.2.4.q.p.0.H.U.8.q.q.t.t.r.r.U.J.H.Y.L.J.T.Y.H.Z.K.H.Z.J.Z.r.Z.Z.r.q.q.9.9.8.8.8.7.2.2.2.=.q.q.%.%.&.@.1.Z ",
"; - . 7 X.3.o.8 >.8.<.<.r.} p p q.q.w.t.t.w.J.(.Z.r.H.Z.Z.L.L.Y.L.H.J.H.H.H.H.H.r.H.Z.r.t.J.Z.9.9.9.9.9.7.2.2.<.<.,.,.,.X.,.S 8 ",
"= _ S Z X.D [ A ..5.4.0.O.# # 1 p.t.w.w.r.H.H.L.H.Z.L.L.L.P.L.L.T.U.L.L.L.L.L.H.H.Z.r.r.r.Z.t.q.9.9.9.q.7.8.7.4.<.,.,.,.,.1.$.7 ",
"& - S %.1.X.G e | >.4.0.;.1 y # 6 e.t.H.J.Z.H.r.H.`.U.L.U.U.L.L.L.P.L.L.L.L.L.H.H.Z.T.H.r.t.q.q.q.9.9.9.7.y.4.2.<.<.,.,.1.X.F 9 ",
"* & X 8 I  .e 7 ..-.4...a   % u s e.t.r.Z.J.L.I.K.T.U.L.L.U.P.L.U.L.].Y.L.L.L.K.K.H.K.H.r.r.H.t.q.9.9.9.7.4.4.<.7. . .,.,.,.X.e ",
"< , 8 q , , < < - 8 ..A G h.n.x.9X|.e.i.r.K.K.Z.C.L.L.U.P.U.U.U.Y.`.U.Y.U.U.L.L.Y.H.H.H.Z.r.H.w.q.q.9.0.q.7.4.4.2.A D 3.,._ 7 = ",
"* o < X.D r r = G | o.e A.yXiX-XB.$Xw.Z._.K.j.O.L.Y.Y.L.Y.Y.'.'.Y.'.'.U.U.U.L.U.L.U.P.H.H.Z.t.t.q.r.q.9.q.r.4.4.4.D F *.*.0 0 > ",
"& * & 4 Z q < = * q A r C.4X5XN.f.T.q.K.j.{ C._.L.U.Y.P.'.'.'.`.Y.`.`.Y.'.U.U.P.L.Y.(.L.H.H.i.q.r.t.r.9.9.9.7.7.r.D S *.3. .e = ",
"* & 7 A 0 q 1 1 : 7 8 9 s c v h v Q.P.O.i { l.{ J.U.P.U.Y.[.[.`.`. X`.'.'.'.U.U.L.J.L.H.H.Z.i.K.q.Z.q.q.9.4...2.F w 7 [ I < & * ",
"& & * 8 6 6 + @ # # : # d N.-X-XiXiX=Xj.H.C.C.C.P.U.U. X`.`. X`. X`. X`.Y.Y.U.U.P.P.Z.L.H.i.T.k.T.b.T.H.w.o.A >.A 8 4 A D D = & ",
"* & 3 > e t O + : : w d.f -XiXiXiXiXpX:XH.I.U.'.U.'.'.[.`.`.[.[.[.[.[. X X[.'.U.P.P.L.'.K._.} $ XXz M.}.9.>.A | e & < Z A 7 * * ",
"* & 3  .e , = * * = G =Xh -XiXiXiX=X0X6Xr.J.P.U.U.'.'.'. X X[.[.[.[.[.[.`.`.'.Y.U.P.L.L.J.i.l.=Xs.B M s.C.D 7 r q o , 7 e Z = & ",
"& * . 8 F = o * = q w 4X&XqXyXiXiXiXeX).H.L.L.P.U.Y.Y.{.{.{.[.[.{.{.[. X X'.[.U.U.U.U.Z.K.U.rXm.M C m.k a.G = A 7 o - A 7 8 * & ",
"* * * o * - * * & < o g.qX#X<XqXqX<X<X^.r.L.L.P.P.'.'.`.`.[.[.[.{.{.[.{.].`. XY.U.P.P.L.Z.Q.n k s.m m m k a.; q 4 * - < G F = * ",
"* = o . o . . o * - w z.&X&X<X#X#XOXeXiX|.U.L.L.U.U.'.'.`.[.{.[.[.[.{.[.[.'.U. XL.U.L.Z.Z.e.i x m m m m j 1 o 8 7 X . . 9 > - * ",
". o - w G g.c.~.OX<XOX4X8X9XtX9XqXiX=XiXiXwX1X:X:X|.(.[.`.`.].[.[.].`.`. X X[.{.|.|.:X>X5X5Xz M C M B.V j n.S.S.k.} G w : . X o ",
"a k.@X7XtXyXyXiXiX4XOX4XiXiXiXiXiXiX=XiXiXiXtXtXaXqX9X8X5X>X|.{.[.|.|.5X5X8XqXqXqXqXtXtXtXtXj x B M V V u =XiXtXiXiXyX8X;XF.G 7 ",
",X2X2X5X8XeXtXyXiX,X;X8XiXiXiXiXiXiXiXuX9XiXuXyXtXtXtXeXtXeX9X9X7X8X8XaXeXtXtXyXyXyXyXyXiXyXf.f.M.N.M.M.d.0XiXyXuXyXeXwX7X8X8X*X",
"E./.*X7XeXyXiXiXiX7X#X<XeXiXiXiXiXiXiXtXXXtXtXiXiXiXiXyXyXtXtXtXeXwX8X8X8X9XwXeXyXyXyXiXiXiXiXiXiXiXiXiXiXiXiXiXyXeXwX8X4X,X%X!.",
"D./.2X7XeXiXiXiXiXeX;X;X4XtXiXiXiXiXiXiXiX4XpXiXiXiXiXiXiXiXiXiXuXuXyXtXeXwX9X8X9X8X8X8XwXwX9XeXqXqXeX9X8X9X8X9X9X9X8X4X2X%X/.E.",
"D./.2X8XaXyXyXyX=X3XqX#X;X<X9XtXiXiXtX&X<X<XiXiXiXiXiXiXiXiXiXiXiXiXiXuXuXuXyXyXeXeXeXeXeXqX9X9X9X9XwXqX9XeXeXtXrXeX9X3X2X%XQ.c.",
"v./.,X4XwXeXyXaX=XXX7XqX;XOX;X<X<X4X<Xb.oXeXiXuXiXiXiXiXiXiXiXiXiXiXiXiXiXiXiXiXiXuXuXuXiXtXyXtXyXyXyXyXiXyXyXtXtXaXwX3X*X%XW.c.",
"v./.$X2X7XwXaXaX=XF.b.XX8X4X<X;X;X;XOX;X8XpXtXrXtXyXiXyXiXyXiXiXiXiXiXiXiXiXiXiXiXiXiXiXiXiXiXiXiXiXiXiXiXiXiXtXtXaXwX3X*X%XW.c.",
"v.W.%X2X4X8X8X9X<X@XF.x.x.XX&X&XoXXX@X4XeX9XaXaXtXeXtXtXtXtXtXyXyXuXiXiXiXiXiXiXiXiXiXiXiXiXiXiXiXiXiXiXiXiXiXiXrXaX8X3X$X%XE.c.",
"v.W.%X$X,X3X4X4X8X7X3X7X,X*X&X<X=X3X8X9X7X8X8XwX8XqX8X9X9XqXeXeXeXeXtXpXtXiXiXiXiXiXiXiXiXiXiXiXiXiXiXiXiXiXiXiXtXaX8X2X$X+XE.c.",
"v.W./.%X$X*X2X2X2X2X2X3X3X3X3X4X3X3X3X3X3X3X3X3X4X4X4X4X7X7X8XwXwX9XwXwXtXtXtXtXyXiXyXiXiXiXiXiXiXiXiXiXiXiXiXtXeXwX4X,X@X/.E.c.",
"v.E././.%X$X*X*X*X*X*X*X*X*X*X*X*X*X2X2X2X2X*X2X2X2X3X2X3X3X3X3X4X4X0X8X8X8XwXwXeXtXtXyXyXtXyXiXiXuXiXiXyXiXtXtXaX8X3X$X+XQ.E.c.",
"v.E.Q./.+X+X@X$X$X@X#X$X#X@X#X#X@X#X#X*X$X$X$X*X*X*X*X*X*X*X*X2X,X*X,X2X3X3X0X7X8X8XqXqXeXeXtXeXeXtXtXtXtXtXeX9X7X2X$X+X!.~.E.c.",
"c.E.Q.!./././.+X%X+X+X+X%X+X%X%X+X%X%X%X+X+X+X+X%X%X#X%X@X@X@X@X$X$X$X$X$X*X*X,X2X2X2X2X4X7X8X9X9XqXwXqX9X9X8X3X*X$X+X!.Q.E.S.c.",
"v.E.E.Q.!.!./././././././.oX/./././././.+X/.+X/./.+X/.+X+XoX+X+X+X+X+X+X+X@X#X#X$X$X$X*X*X*X,X,X2X2X3X3X2X,X$X#X+X+X!.Q.Q.E.S.v.",
"v.E.E.E.~.W.~.Q.!.!.!.Q.Q.!.Q.!.!.~.!.!.~.!.Q.Q.!.!.!.!.!.!.!.!.!./.!.!././././.oXoXoX%X%X%X@X%X@X%X@X@X+X+X/./.Q.Q.Q.E.E.E.E.v.",
"v.S.E.E.E.E.W.W.W.W.~.W.W.W.~.W.W.W.W.W.W.W.W.W.W.~.W.W.E.Q.~.E.Q.W.E.Q.W.W.Q.Q.W.Q.Q.Q.W.Q.Q.Q.Q.Q.Q.Q.W.W.E.W.W.E.E.S.S.E.v.D.",
"S.S.D.E.S.S.S.S.S.S.S.S.S.S.S.E.S.S.S.S.E.E.S.E.E.S.S.S.S.E.E.E.E.E.E.E.E.E.E.E.E.S.E.S.E.S.W.S.S.S.S.S.S.S.E.S.E.S.S.S.S.v.S.S."
};
